<svg viewBox="0 0 468 84" xmlns="http://www.w3.org/2000/svg">
  <path d="M376.3,39.4 C376.8,37 377.6,34.9 378.1,32.6 C377.3,32.9 376.6,33.4 375.8,33.8 C375,32.6 374.3,31.3 373.7,30 C372.9,31.2 372.2,32.5 371.6,33.8 C370.7,33.5 370,33 369.2,32.5 C369.6,34.7 370.5,37.1 371.1,39.5 C371.1,39.6 370.9,39.4 370.8,39.4 C369.8,38.5 368.9,37.6 368,36.6 C367.7,36.5 367.6,36.1 367.3,36 C366.9,36.5 366.6,37 366.2,37.5 C365.2,37.3 364.3,37 363.4,36.8 C363.8,38.1 364.3,39.3 364.8,40.5 C364.3,40.8 363.9,41 363.4,41.3 C365.1,42.7 366.9,44 368.7,45.2 C368.5,45.9 368,46.3 367.8,47 C369.4,46.8 371,46.7 372.6,46.5 C372.7,47.8 372.6,49.4 372.7,50.9 L374.6,50.9 C374.6,49.5 374.5,47.9 374.7,46.5 C376.4,46.6 378,46.8 379.6,47 C379.3,46.4 379,45.8 378.7,45.3 C380.5,44 382.3,42.7 384,41.4 C383.6,41.1 383.1,40.8 382.6,40.6 C383,39.3 383.6,38.1 384,36.8 C383.1,37 382.1,37.3 381.2,37.5 C380.8,37.1 380.5,36.5 380.1,36 C379.3,36.6 378.1,37.9 377.3,38.8 C376.9,38.9 376.1,39.8 376.3,39.4" fill="#2E2E2E"></path>
  <path d="M288.7,39.4 C289.2,37 290,34.9 290.5,32.6 C289.7,32.9 289,33.4 288.2,33.8 C287.4,32.6 286.7,31.3 286.1,30 C285.3,31.2 284.6,32.5 284,33.8 C283.1,33.5 282.4,33 281.6,32.5 C282,34.7 282.9,37.1 283.5,39.5 C283.5,39.6 283.3,39.4 283.2,39.4 C282.3,38.5 281.3,37.6 280.4,36.6 C280.1,36.5 280,36.1 279.7,36 C279.3,36.5 279,37 278.6,37.5 C277.6,37.3 276.7,37 275.8,36.8 C276.2,38.1 276.7,39.3 277.2,40.5 C276.7,40.8 276.3,41 275.8,41.3 C277.5,42.7 279.3,44 281.1,45.2 C280.9,45.9 280.4,46.3 280.2,47 C281.8,46.8 283.4,46.7 285,46.5 C285.1,47.8 285,49.4 285.1,50.9 L287,50.9 C287,49.5 286.9,47.9 287.1,46.5 C288.8,46.6 290.4,46.8 292,47 C291.7,46.4 291.4,45.8 291.1,45.3 C292.9,44 294.7,42.7 296.4,41.4 C296,41.1 295.5,40.8 295,40.6 C295.4,39.3 296,38.1 296.4,36.8 C295.5,37 294.5,37.3 293.6,37.5 C293.2,37.1 292.9,36.5 292.5,36 C291.7,36.6 290.5,37.9 289.7,38.8 C289.4,38.9 288.5,39.8 288.7,39.4" fill="#2E2E2E"></path>
  <path d="M171.9,39.4 C172.4,37 173.2,34.9 173.7,32.6 C172.9,32.9 172.2,33.4 171.4,33.8 C170.6,32.6 169.9,31.3 169.3,30 C168.5,31.2 167.8,32.5 167.2,33.8 C166.3,33.5 165.6,33 164.8,32.5 C165.2,34.7 166.1,37.1 166.7,39.5 C166.7,39.6 166.5,39.4 166.4,39.4 C165.4,38.5 164.5,37.6 163.6,36.6 C163.3,36.5 163.2,36.1 162.9,36 C162.5,36.5 162.2,37 161.8,37.5 C160.8,37.3 159.9,37 159,36.8 C159.4,38.1 159.9,39.3 160.4,40.5 C159.9,40.8 159.5,41 159,41.3 C160.7,42.7 162.5,44 164.3,45.2 C164.1,45.9 163.6,46.3 163.4,47 C165,46.8 166.6,46.7 168.2,46.5 C168.3,47.8 168.2,49.4 168.3,50.9 L170.2,50.9 C170.2,49.5 170.1,47.9 170.3,46.5 C172,46.6 173.6,46.8 175.2,47 C174.9,46.4 174.6,45.8 174.3,45.3 C176.1,44 177.9,42.7 179.6,41.4 C179.2,41.1 178.7,40.8 178.2,40.6 C178.6,39.3 179.2,38.1 179.6,36.8 C178.7,37 177.7,37.3 176.8,37.5 C176.4,37.1 176.1,36.5 175.7,36 C174.9,36.6 173.7,37.9 172.9,38.8 C172.5,38.9 171.7,39.8 171.9,39.4" fill="#2E2E2E"></path>
  <path d="M96.6,39.4 C97.1,37 97.9,34.9 98.4,32.6 C97.6,32.9 96.9,33.4 96.1,33.8 C95.3,32.6 94.6,31.3 94,30 C93.2,31.2 92.5,32.5 91.9,33.8 C91,33.5 90.3,33 89.5,32.5 C89.9,34.7 90.8,37.1 91.4,39.5 C91.4,39.6 91.2,39.4 91.1,39.4 C90.2,38.5 89.2,37.6 88.3,36.6 C88,36.5 87.9,36.1 87.6,36 C87.2,36.5 86.9,37 86.5,37.5 C85.5,37.3 84.6,37 83.7,36.8 C84.1,38.1 84.6,39.3 85.1,40.5 C84.6,40.8 84.2,41 83.7,41.3 C85.4,42.7 87.2,44 89,45.2 C88.8,45.9 88.3,46.3 88.1,47 C89.7,46.8 91.3,46.7 92.9,46.5 C93,47.8 92.9,49.4 93,50.9 L94.9,50.9 C94.9,49.5 94.8,47.9 95,46.5 C96.7,46.6 98.3,46.8 99.9,47 C99.6,46.4 99.3,45.8 99,45.3 C100.8,44 102.6,42.7 104.3,41.4 C103.9,41.1 103.4,40.8 102.9,40.6 C103.3,39.3 103.9,38.1 104.3,36.8 C103.4,37 102.4,37.3 101.5,37.5 C101.1,37.1 100.8,36.5 100.4,36 C99.6,36.6 98.4,37.9 97.6,38.8 C97.2,38.9 96.4,39.8 96.6,39.4" fill="#2E2E2E"></path>
  <polygon fill="#EE4323" points="414.1 41.1 387.7 1.6 413.3 1.6 427.5 24.2 441.8 1.6 466.8 1.6 440.4 40.9 468 81.9 442.4 81.9 427 57.7 411.5 81.9 386.5 81.9"></polygon>
  <polygon fill="#FAAB19" points="319.4 1.6 341.8 1.6 341.8 81.9 319.4 81.9"></polygon>
  <polygon fill="#B7D333" points="188.8 1.6 213.7 1.6 232 52.5 250.2 1.7 274.6 1.7 242 82.6 221.3 82.6"></polygon>
  <polygon fill="#18BDD9" points="121.7 1.6 144.1 1.6 144.1 81.9 121.7 81.9 121.7 1.6"></polygon>
  <path d="M0,42 L0,41.8 C0,18.4 18,0 42.4,0 C58.8,0 69.4,6.9 76.5,16.8 L59.7,29.8 C55.1,24.1 49.8,20.4 42.1,20.4 C30.9,20.3 23,29.8 23,41.5 L23,41.7 C23,53.8 30.9,63.2 42.2,63.2 C50.6,63.2 55.5,59.3 60.3,53.4 L77,65.4 C69.4,75.8 59.2,83.500424 41.4,83.500424 C18.5,83.6 0,66 0,42 Z" fill="#EE4323"></path>
</svg>
