<svg viewBox="0 0 1472 1521" xmlns="http://www.w3.org/2000/svg">
  <defs>
    <linearGradient id="grad" x1="0%" y1="50%" x2="100%" y2="50%">
      <stop offset="0%" style="stop-color:#ffd8d1;stop-opacity:1" />
      <stop offset="100%" style="stop-color:#FFDEC4;stop-opacity:1" />
    </linearGradient>
  </defs>
  <path fill="url(#grad)" d="M1077.23776,1496.47439 L1009.86924,1521 L909.143634,1191.7817 C905.723382,1180.83913 897.528841,1172.03691 886.860277,1167.84588 C876.191713,1163.65485 864.199168,1164.52678 854.249036,1170.21693 L553.322473,1343.78946 L553.143674,1208.18359 C553.198819,1197.09544 546.190331,1187.20233 535.713388,1183.57917 L79.7174144,1026.51876 L145.575638,960.569763 C154.756309,951.292125 155.597653,936.629491 147.538517,926.361406 L0,737.561196 L218.520692,706.765144 C230.711542,705.003259 239.973006,694.893674 240.665571,682.59234 L246.314703,575.814743 L466.479783,688.146471 C476.770028,693.284586 489.215096,691.01648 497.031899,682.578368 C504.848701,674.140256 506.163025,661.55532 500.258507,651.682884 L280.592044,285.634528 L428.725918,311.836817 C435.773001,313.1274 443.039564,311.43933 448.796528,307.174284 C454.553492,302.909238 458.286106,296.448569 459.106195,289.329593 L494.540769,0 L707.621151,198.857331 C712.824342,203.783522 719.835601,206.332867 726.986597,205.89875 C734.137594,205.464633 740.788932,202.085869 745.357926,196.566435 L841.996313,81.2544177 L908.960814,502.894164 C910.782153,514.253088 919.876616,523.048688 931.287336,524.486991 C942.698056,525.925293 953.689116,519.661439 958.269923,509.109495 L1054.73685,281.507385 L1127.68432,359.671766 C1136.12023,368.649862 1149.71179,370.43977 1160.18278,363.951573 L1347.37024,247.048933 L1355.6805,486.53541 C1356.10557,499.58269 1366.17293,510.273993 1379.16795,511.478535 L1472,519.656084 L1223.62075,933.145414 C1217.92335,942.656867 1218.91228,954.741405 1226.08026,963.199964 L1313.08958,1067.19504 L971.021124,1127.70587 C959.74214,1129.74421 949.994972,1136.78665 944.515721,1146.85632 C939.036469,1156.926 938.415781,1168.93742 942.82789,1179.51889 L1077.23776,1496.47439 Z"></path>
</svg>
