<svg xmlns="http://www.w3.org/2000/svg" width="2195" height="1553" fill="none">
  <g clip-path="url(#a)">
    <path fill="#FFFDFC" d="M2195 1553V0H0v1553h2195Z"/>
    <path stroke="#000" stroke-linecap="round" stroke-miterlimit="10" d="M2078.58 119.581c-.82 0-1.61-.327-2.2-.909a3.117 3.117 0 0 1-.91-2.196c0-.824.33-1.614.91-2.196a3.103 3.103 0 0 1 4.39-.003c.59.582.91 1.372.91 2.196 0 .823-.32 1.614-.9 2.196-.59.583-1.37.911-2.2.912M1798.27 119.581c-.82 0-1.61-.327-2.19-.909a3.077 3.077 0 0 1-.91-2.196c0-.824.32-1.614.9-2.196a3.134 3.134 0 0 1 2.2-.911c.82 0 1.61.326 2.19.908.59.582.91 1.372.91 2.196.01.823-.32 1.614-.9 2.196-.58.583-1.37.911-2.2.912M1517.96 119.581c-.82 0-1.61-.327-2.19-.909a3.118 3.118 0 0 1-.91-2.196c0-.824.32-1.614.91-2.196a3.093 3.093 0 0 1 2.19-.911c.82 0 1.61.326 2.2.908.58.582.91 1.372.91 2.196 0 .823-.33 1.614-.91 2.196-.58.583-1.37.911-2.19.912M1237.65 119.581c-.82 0-1.61-.327-2.19-.909a3.118 3.118 0 0 1-.91-2.196c0-.824.33-1.614.91-2.196a3.1 3.1 0 0 1 5.3 2.193c0 .823-.33 1.614-.91 2.196-.58.583-1.37.911-2.19.912M957.346 119.581a3.103 3.103 0 0 1-3.105-3.105 3.105 3.105 0 1 1 3.108 3.105M677.038 119.581a3.105 3.105 0 1 1-.006-6.21 3.105 3.105 0 0 1 .009 6.21M396.73 119.581a3.107 3.107 0 0 1-3.105-3.105 3.109 3.109 0 0 1 3.103-3.107 3.104 3.104 0 0 1 3.106 3.104 3.107 3.107 0 0 1-3.102 3.108M116.421 119.581a3.105 3.105 0 1 1-.006-6.21 3.105 3.105 0 0 1 .009 6.21M2078.58 239.586c-.82 0-1.61-.327-2.2-.91a3.115 3.115 0 0 1-.91-2.196c0-.823.33-1.613.91-2.196a3.102 3.102 0 0 1 4.39-.002c.59.582.91 1.372.91 2.195a3.11 3.11 0 0 1-.9 2.197c-.59.583-1.37.911-2.2.912M1798.27 239.586c-.82 0-1.61-.327-2.19-.91a3.073 3.073 0 0 1-.91-2.196c0-.823.32-1.613.9-2.196.59-.582 1.38-.91 2.2-.91a3.09 3.09 0 0 1 2.19.908c.59.582.91 1.372.91 2.195.01.824-.32 1.614-.9 2.197-.58.583-1.37.911-2.2.912M1517.96 239.586c-.82 0-1.61-.328-2.19-.91a3.115 3.115 0 0 1-.91-2.196c0-.823.32-1.613.91-2.196.58-.582 1.37-.91 2.19-.91a3.13 3.13 0 0 1 2.2.908c.58.582.91 1.372.91 2.195 0 .824-.33 1.614-.91 2.197-.58.583-1.37.911-2.19.912M1237.65 239.586c-.82 0-1.61-.328-2.19-.91a3.115 3.115 0 0 1-.91-2.196c0-.823.33-1.613.91-2.196.58-.582 1.37-.91 2.19-.91.83-.001 1.62.326 2.2.908.58.582.91 1.372.91 2.195 0 .824-.33 1.614-.91 2.197-.58.583-1.37.911-2.19.912M957.346 239.586a3.104 3.104 0 0 1-3.105-3.106 3.109 3.109 0 0 1 3.103-3.106 3.104 3.104 0 0 1 2.199 5.3 3.105 3.105 0 0 1-2.194.912M677.038 239.586a3.106 3.106 0 1 1 3.105-3.109 3.109 3.109 0 0 1-3.102 3.109M396.73 239.586a3.108 3.108 0 0 1-3.105-3.106 3.106 3.106 0 1 1 3.107 3.106M116.421 239.586a3.106 3.106 0 1 1 2.194-5.304 3.106 3.106 0 0 1-2.191 5.304M2078.58 359.59c-.82 0-1.61-.327-2.2-.909a3.117 3.117 0 0 1-.91-2.196c0-.824.33-1.614.91-2.196a3.103 3.103 0 0 1 4.39-.002c.59.582.91 1.371.91 2.195 0 .823-.32 1.614-.9 2.197-.59.582-1.37.91-2.2.911M1798.27 359.59c-.82 0-1.61-.327-2.19-.909a3.075 3.075 0 0 1-.91-2.196c0-.824.32-1.614.9-2.196.59-.583 1.38-.91 2.2-.911.82 0 1.61.327 2.19.909.59.582.91 1.371.91 2.195a3.07 3.07 0 0 1-.9 2.197c-.58.582-1.37.91-2.2.911M1517.96 359.59c-.82 0-1.61-.327-2.19-.909a3.117 3.117 0 0 1-.91-2.196c0-.824.32-1.614.91-2.196.58-.583 1.37-.91 2.19-.911.82 0 1.61.327 2.2.909.58.582.91 1.371.91 2.195a3.12 3.12 0 0 1-.91 2.197c-.58.582-1.37.91-2.19.911M1237.65 359.59c-.82 0-1.61-.327-2.19-.909a3.117 3.117 0 0 1-.91-2.196c0-.824.33-1.614.91-2.196.58-.583 1.37-.91 2.19-.911.83 0 1.62.326 2.2.909.58.582.91 1.371.91 2.195a3.12 3.12 0 0 1-.91 2.197c-.58.582-1.37.91-2.19.911M957.346 359.59a3.103 3.103 0 0 1-3.105-3.105 3.105 3.105 0 1 1 3.108 3.105M677.038 359.59a3.105 3.105 0 1 1-.006-6.21 3.105 3.105 0 0 1 .009 6.21M396.73 359.59a3.107 3.107 0 0 1-3.105-3.105 3.109 3.109 0 0 1 3.103-3.107 3.104 3.104 0 0 1 3.106 3.104 3.105 3.105 0 0 1-3.102 3.108M116.421 359.59a3.105 3.105 0 1 1-.006-6.21 3.105 3.105 0 0 1 .009 6.21M2078.58 479.595c-.82 0-1.61-.327-2.2-.91a3.114 3.114 0 0 1-.91-2.195c0-.824.33-1.614.91-2.197a3.102 3.102 0 0 1 4.39-.002c.59.582.91 1.372.91 2.195a3.11 3.11 0 0 1-.9 2.197c-.59.583-1.37.911-2.2.912M1798.27 479.595c-.82 0-1.61-.327-2.19-.91a3.073 3.073 0 0 1-.91-2.195c0-.824.32-1.614.9-2.197.59-.582 1.38-.91 2.2-.91a3.09 3.09 0 0 1 2.19.908c.59.582.91 1.372.91 2.195.01.824-.32 1.614-.9 2.197-.58.583-1.37.911-2.2.912M1517.96 479.595c-.82 0-1.61-.327-2.19-.91a3.114 3.114 0 0 1-.91-2.195c0-.824.32-1.614.91-2.197.58-.582 1.37-.91 2.19-.91a3.13 3.13 0 0 1 2.2.908c.58.582.91 1.372.91 2.195 0 .824-.33 1.614-.91 2.197-.58.583-1.37.911-2.19.912M1237.65 479.595c-.82 0-1.61-.327-2.19-.91a3.114 3.114 0 0 1-.91-2.195c0-.824.33-1.614.91-2.197.58-.582 1.37-.91 2.19-.91.83-.001 1.62.326 2.2.908.58.582.91 1.372.91 2.195 0 .824-.33 1.614-.91 2.197-.58.583-1.37.911-2.19.912M957.346 479.595a3.1 3.1 0 0 1-2.195-.91 3.102 3.102 0 0 1-.001-4.392 3.102 3.102 0 0 1 4.39-.002 3.106 3.106 0 0 1-2.191 5.304M677.038 479.595a3.11 3.11 0 0 1-2.196-5.302 3.104 3.104 0 0 1 5.301 2.193 3.109 3.109 0 0 1-3.102 3.109M396.73 479.595a3.104 3.104 0 0 1-3.105-3.106 3.106 3.106 0 1 1 3.107 3.106M116.421 479.595a3.106 3.106 0 1 1 2.194-5.304 3.106 3.106 0 0 1-2.191 5.304M2078.58 599.599c-.82 0-1.61-.327-2.2-.909a3.115 3.115 0 0 1-.91-2.196c0-.824.33-1.614.91-2.196a3.103 3.103 0 0 1 4.39-.002c.59.582.91 1.371.91 2.195a3.11 3.11 0 0 1-.9 2.197c-.59.583-1.37.911-2.2.911M1798.27 599.599c-.82 0-1.61-.327-2.19-.909a3.073 3.073 0 0 1-.91-2.196c0-.824.32-1.614.9-2.196.59-.583 1.38-.91 2.2-.911.82 0 1.61.327 2.19.909.59.582.91 1.371.91 2.195.01.824-.32 1.614-.9 2.197-.58.583-1.37.91-2.2.911M1517.96 599.599c-.82 0-1.61-.327-2.19-.909a3.115 3.115 0 0 1-.91-2.196c0-.824.32-1.614.91-2.196.58-.583 1.37-.91 2.19-.911.82 0 1.61.327 2.2.909.58.582.91 1.371.91 2.195 0 .824-.33 1.614-.91 2.197-.58.583-1.37.91-2.19.911M1237.65 599.599c-.82 0-1.61-.327-2.19-.909a3.117 3.117 0 0 1-.91-2.196c0-.824.33-1.614.91-2.196a3.1 3.1 0 0 1 4.39-.002c.58.582.91 1.371.91 2.195 0 .824-.33 1.614-.91 2.197-.58.583-1.37.91-2.19.911M957.346 599.599a3.103 3.103 0 0 1-3.105-3.105 3.105 3.105 0 1 1 3.108 3.105M677.038 599.599a3.105 3.105 0 1 1-.006-6.21 3.105 3.105 0 0 1 .009 6.21M396.73 599.599a3.107 3.107 0 0 1-3.105-3.105 3.109 3.109 0 0 1 3.103-3.107 3.105 3.105 0 0 1 3.106 3.104 3.108 3.108 0 0 1-3.102 3.108M116.421 599.599a3.105 3.105 0 1 1-.006-6.21 3.105 3.105 0 0 1 .009 6.21M2078.58 719.604c-.82 0-1.61-.327-2.2-.91a3.114 3.114 0 0 1-.91-2.195c0-.824.33-1.614.91-2.197a3.102 3.102 0 0 1 4.39-.002c.59.582.91 1.372.91 2.195a3.11 3.11 0 0 1-.9 2.197c-.59.583-1.37.911-2.2.912M1798.27 719.604c-.82 0-1.61-.327-2.19-.91a3.073 3.073 0 0 1-.91-2.195c0-.824.32-1.614.9-2.197.59-.582 1.38-.91 2.2-.91a3.09 3.09 0 0 1 2.19.908c.59.582.91 1.372.91 2.195.01.824-.32 1.614-.9 2.197-.58.583-1.37.911-2.2.912M1517.96 719.604c-.82 0-1.61-.327-2.19-.91a3.114 3.114 0 0 1-.91-2.195c0-.824.32-1.614.91-2.197.58-.582 1.37-.91 2.19-.91a3.13 3.13 0 0 1 2.2.908c.58.582.91 1.372.91 2.195 0 .824-.33 1.614-.91 2.197-.58.583-1.37.911-2.19.912M1237.65 719.604c-.82 0-1.61-.327-2.19-.91a3.114 3.114 0 0 1-.91-2.195c0-.824.33-1.614.91-2.197.58-.582 1.37-.91 2.19-.91.83-.001 1.62.326 2.2.908.58.582.91 1.372.91 2.195 0 .824-.33 1.614-.91 2.197-.58.583-1.37.911-2.19.912M957.346 719.604a3.1 3.1 0 0 1-2.195-.91 3.102 3.102 0 0 1-.001-4.392 3.102 3.102 0 0 1 4.39-.002 3.106 3.106 0 0 1-2.191 5.304M677.038 719.604a3.11 3.11 0 0 1-2.196-5.302 3.104 3.104 0 0 1 5.301 2.193 3.109 3.109 0 0 1-3.102 3.109M396.73 719.604a3.104 3.104 0 0 1-3.105-3.105 3.106 3.106 0 1 1 3.107 3.105M116.421 719.604a3.106 3.106 0 1 1 2.194-5.304 3.106 3.106 0 0 1-2.191 5.304M2078.58 839.608c-.82 0-1.61-.327-2.2-.909a3.115 3.115 0 0 1-.91-2.196c0-.823.33-1.613.91-2.196a3.103 3.103 0 0 1 4.39-.002c.59.582.91 1.371.91 2.195a3.11 3.11 0 0 1-.9 2.197c-.59.583-1.37.911-2.2.911M1798.27 839.608c-.82 0-1.61-.327-2.19-.909a3.073 3.073 0 0 1-.91-2.196c0-.823.32-1.613.9-2.196.59-.583 1.38-.91 2.2-.911.82 0 1.61.327 2.19.909.59.582.91 1.371.91 2.195.01.824-.32 1.614-.9 2.197-.58.583-1.37.911-2.2.911M1517.96 839.608c-.82 0-1.61-.327-2.19-.909a3.115 3.115 0 0 1-.91-2.196c0-.823.32-1.613.91-2.196.58-.583 1.37-.91 2.19-.911.82 0 1.61.327 2.2.909.58.582.91 1.371.91 2.195 0 .824-.33 1.614-.91 2.197-.58.583-1.37.911-2.19.911M1237.65 839.608c-.82 0-1.61-.327-2.19-.909a3.115 3.115 0 0 1-.91-2.196c0-.823.33-1.613.91-2.196a3.1 3.1 0 0 1 4.39-.002c.58.582.91 1.371.91 2.195 0 .824-.33 1.614-.91 2.197-.58.583-1.37.911-2.19.911M957.346 839.608a3.103 3.103 0 0 1-3.105-3.105 3.109 3.109 0 0 1 3.103-3.107 3.109 3.109 0 0 1 3.106 3.104 3.108 3.108 0 0 1-3.101 3.108M677.038 839.608a3.105 3.105 0 1 1-.006-6.21 3.105 3.105 0 0 1 .009 6.21M396.73 839.608a3.107 3.107 0 0 1-3.105-3.105 3.107 3.107 0 0 1 3.103-3.107 3.105 3.105 0 0 1 3.106 3.104 3.108 3.108 0 0 1-3.102 3.108M116.421 839.608a3.105 3.105 0 1 1-.006-6.21 3.105 3.105 0 0 1 .009 6.21M2078.58 959.613c-.82 0-1.61-.327-2.2-.909a3.118 3.118 0 0 1-.91-2.196c0-.824.33-1.614.91-2.197a3.102 3.102 0 0 1 4.39-.002c.59.582.91 1.372.91 2.196 0 .823-.32 1.613-.9 2.196-.59.583-1.37.911-2.2.912M1798.27 959.613c-.82 0-1.61-.327-2.19-.909a3.077 3.077 0 0 1-.91-2.196c0-.824.32-1.614.9-2.197.59-.582 1.38-.91 2.2-.91.82 0 1.61.326 2.19.908.59.582.91 1.372.91 2.196.01.823-.32 1.613-.9 2.196-.58.583-1.37.911-2.2.912M1517.96 959.613c-.82 0-1.61-.327-2.19-.909a3.118 3.118 0 0 1-.91-2.196c0-.824.32-1.614.91-2.197.58-.582 1.37-.91 2.19-.91.82 0 1.61.326 2.2.908.58.582.91 1.372.91 2.196 0 .823-.33 1.613-.91 2.196-.58.583-1.37.911-2.19.912M1237.65 959.613c-.82 0-1.61-.327-2.19-.909a3.118 3.118 0 0 1-.91-2.196c0-.824.33-1.614.91-2.197.58-.582 1.37-.91 2.19-.91a3.1 3.1 0 0 1 3.11 3.104c0 .823-.33 1.613-.91 2.196-.58.583-1.37.911-2.19.912M957.346 959.613a3.103 3.103 0 0 1-3.105-3.105 3.102 3.102 0 0 1 5.299-2.199 3.106 3.106 0 0 1-2.191 5.304M677.038 959.613a3.11 3.11 0 0 1-2.196-5.302 3.104 3.104 0 0 1 5.301 2.194 3.108 3.108 0 0 1-3.102 3.108M396.73 959.613a3.104 3.104 0 0 1-3.105-3.105 3.106 3.106 0 1 1 3.107 3.105M116.421 959.613a3.106 3.106 0 1 1 2.194-5.304 3.106 3.106 0 0 1-2.191 5.304M2078.58 1079.62c-.82 0-1.61-.33-2.2-.91a3.104 3.104 0 0 1 0-4.39c.58-.59 1.37-.91 2.2-.91.82 0 1.61.32 2.19.9.59.59.91 1.38.91 2.2 0 .82-.32 1.61-.9 2.2-.59.58-1.37.91-2.2.91M1798.27 1079.62c-.82 0-1.61-.33-2.19-.91-.59-.58-.91-1.37-.91-2.2 0-.82.32-1.61.9-2.19.59-.59 1.38-.91 2.2-.91.82 0 1.61.32 2.19.9.59.59.91 1.38.91 2.2.01.82-.32 1.61-.9 2.2-.58.58-1.37.91-2.2.91M1517.96 1079.62a3.104 3.104 0 0 1-3.1-3.11c0-.82.32-1.61.91-2.19.58-.59 1.37-.91 2.19-.91.82 0 1.61.32 2.2.9.58.59.91 1.38.91 2.2 0 .82-.33 1.61-.91 2.2-.58.58-1.37.91-2.19.91M1237.65 1079.62a3.104 3.104 0 0 1-2.19-5.3c.58-.59 1.37-.91 2.19-.91.83 0 1.62.32 2.2.9.58.59.91 1.38.91 2.2 0 .82-.33 1.61-.91 2.2-.58.58-1.37.91-2.19.91M957.346 1079.62c-.824 0-1.613-.33-2.195-.91a3.098 3.098 0 0 1-.91-2.2c0-.82.327-1.61.909-2.19a3.069 3.069 0 0 1 2.194-.91c.823 0 1.613.32 2.196.9.582.59.91 1.38.91 2.2.001.82-.326 1.61-.907 2.2-.582.58-1.371.91-2.194.91M677.038 1079.62a3.106 3.106 0 0 1-2.196-5.3 3.07 3.07 0 0 1 2.194-.91c.824-.01 1.613.32 2.196.9.582.59.91 1.38.911 2.2 0 .82-.326 1.61-.908 2.2a3.11 3.11 0 0 1-2.194.91M396.73 1079.62c-.824 0-1.613-.33-2.196-.91a3.1 3.1 0 0 1-.909-2.2c0-.82.327-1.61.908-2.19a3.073 3.073 0 0 1 2.195-.91c.823-.01 1.613.32 2.195.9.583.59.91 1.38.911 2.2.001.82-.326 1.61-.907 2.2-.582.58-1.371.91-2.195.91M116.421 1079.62c-.823 0-1.613-.33-2.195-.91a3.102 3.102 0 0 1-.001-4.39 3.07 3.07 0 0 1 2.194-.91c.824-.01 1.613.32 2.196.9.582.59.91 1.38.91 2.2a3.13 3.13 0 0 1-.907 2.2c-.582.58-1.371.91-2.194.91M2078.58 1199.62c-.82 0-1.61-.33-2.2-.91a3.104 3.104 0 1 1 4.39-4.39c.59.58.91 1.37.91 2.19a3.1 3.1 0 0 1-.9 2.2c-.59.58-1.37.91-2.2.91M1798.27 1199.62c-.82 0-1.61-.33-2.19-.91-.59-.58-.91-1.37-.91-2.19 0-.83.32-1.62.9-2.2.59-.58 1.38-.91 2.2-.91.82 0 1.61.33 2.19.91.59.58.91 1.37.91 2.19.01.83-.32 1.62-.9 2.2-.58.58-1.37.91-2.2.91M1517.96 1199.62a3.104 3.104 0 0 1-3.1-3.1c0-.83.32-1.62.91-2.2.58-.58 1.37-.91 2.19-.91.82 0 1.61.33 2.2.91a3.104 3.104 0 0 1-2.19 5.3M1237.65 1199.62a3.104 3.104 0 1 1 .01 0M957.346 1199.62c-.824 0-1.613-.33-2.195-.91a3.1 3.1 0 0 1-.001-4.39 3.11 3.11 0 0 1 2.194-.91c.823 0 1.613.33 2.196.91.582.58.91 1.37.91 2.19a3.099 3.099 0 0 1-3.101 3.11M677.038 1199.62c-.823 0-1.613-.33-2.195-.91a3.1 3.1 0 0 1-.001-4.39 3.112 3.112 0 0 1 2.194-.91c.824 0 1.613.33 2.196.91a3.101 3.101 0 0 1 .003 4.39 3.11 3.11 0 0 1-2.194.91M396.73 1199.62c-.824 0-1.613-.33-2.196-.91a3.104 3.104 0 1 1 5.3-2.2 3.099 3.099 0 0 1-3.102 3.11M116.421 1199.62c-.823 0-1.613-.33-2.195-.91a3.1 3.1 0 0 1-.001-4.39 3.112 3.112 0 0 1 2.194-.91c.824 0 1.613.33 2.196.91.582.58.91 1.37.91 2.19.001.83-.325 1.62-.907 2.2-.582.58-1.371.91-2.194.91M2078.58 1319.63c-.82 0-1.61-.33-2.2-.91-.58-.59-.91-1.37-.91-2.2 0-.82.33-1.61.91-2.19a3.12 3.12 0 0 1 2.2-.92 3.104 3.104 0 0 1 3.1 3.11c0 .82-.32 1.61-.9 2.2-.59.58-1.37.91-2.2.91M1798.27 1319.63a3.104 3.104 0 0 1-3.1-3.11c0-.82.32-1.61.9-2.19.59-.59 1.38-.91 2.2-.92a3.104 3.104 0 0 1 3.1 3.11c.01.82-.32 1.61-.9 2.2-.58.58-1.37.91-2.2.91M1517.96 1319.63c-.82 0-1.61-.33-2.19-.91-.58-.59-.91-1.38-.91-2.2 0-.82.32-1.61.91-2.19.58-.59 1.37-.92 2.19-.92.82 0 1.61.33 2.2.91a3.104 3.104 0 0 1 0 4.39c-.58.59-1.37.92-2.19.92M1237.65 1319.63c-.82 0-1.61-.33-2.19-.91-.58-.59-.91-1.38-.91-2.2 0-.82.33-1.61.91-2.19.58-.59 1.37-.92 2.19-.92a3.11 3.11 0 0 1 3.11 3.11c0 .82-.33 1.61-.91 2.19-.58.59-1.37.92-2.19.92M957.346 1319.63c-.824 0-1.613-.33-2.195-.91a3.133 3.133 0 0 1-.91-2.2c0-.82.327-1.61.909-2.19a3.078 3.078 0 0 1 2.194-.92c.823 0 1.613.33 2.196.91a3.102 3.102 0 0 1 .003 4.39 3.08 3.08 0 0 1-2.194.92M677.038 1319.63c-.823 0-1.613-.33-2.195-.91a3.141 3.141 0 0 1-.91-2.2c0-.82.327-1.61.909-2.19a3.08 3.08 0 0 1 2.194-.92 3.107 3.107 0 0 1 2.199 5.3c-.581.59-1.371.92-2.194.92M396.73 1319.63c-.824 0-1.613-.33-2.196-.91a3.136 3.136 0 0 1-.909-2.2c0-.82.327-1.61.908-2.19a3.082 3.082 0 0 1 2.195-.92c.823 0 1.613.33 2.195.91a3.103 3.103 0 0 1 .004 4.39 3.08 3.08 0 0 1-2.195.92M116.421 1319.63c-.823 0-1.613-.33-2.195-.91a3.137 3.137 0 0 1-.91-2.2c0-.82.327-1.61.909-2.19a3.08 3.08 0 0 1 2.194-.92c.824 0 1.613.33 2.196.91.582.58.91 1.37.91 2.2.001.82-.325 1.61-.907 2.19a3.08 3.08 0 0 1-2.194.92M2078.58 1439.63c-.82 0-1.61-.33-2.2-.91a3.104 3.104 0 1 1 4.39-4.39c.59.58.91 1.37.91 2.19a3.1 3.1 0 0 1-.9 2.2c-.59.58-1.37.91-2.2.91M1798.27 1439.63c-.82 0-1.61-.33-2.19-.91-.59-.58-.91-1.37-.91-2.19 0-.83.32-1.62.9-2.2.59-.58 1.38-.91 2.2-.91.82 0 1.61.33 2.19.91.59.58.91 1.37.91 2.19.01.83-.32 1.62-.9 2.2-.58.58-1.37.91-2.2.91M1517.96 1439.63a3.104 3.104 0 0 1-3.1-3.1c0-.83.32-1.62.91-2.2.58-.58 1.37-.91 2.19-.91.82 0 1.61.33 2.2.91a3.104 3.104 0 0 1-2.19 5.3M1237.65 1439.63a3.104 3.104 0 1 1 .01 0M957.346 1439.63c-.824 0-1.613-.33-2.195-.91a3.1 3.1 0 0 1-.001-4.39 3.11 3.11 0 0 1 2.194-.91c.823 0 1.613.33 2.196.91.582.58.91 1.37.91 2.19a3.099 3.099 0 0 1-3.101 3.11M677.038 1439.63c-.823 0-1.613-.33-2.195-.91a3.1 3.1 0 0 1-.001-4.39 3.112 3.112 0 0 1 2.194-.91c.824 0 1.613.33 2.196.91a3.101 3.101 0 0 1 .003 4.39 3.11 3.11 0 0 1-2.194.91M396.73 1439.63c-.824 0-1.613-.33-2.196-.91a3.104 3.104 0 1 1 5.3-2.2 3.099 3.099 0 0 1-3.102 3.11M116.421 1439.63c-.823 0-1.613-.33-2.195-.91a3.1 3.1 0 0 1-.001-4.39 3.112 3.112 0 0 1 2.194-.91c.824 0 1.613.33 2.196.91.582.58.91 1.37.91 2.19.001.83-.325 1.62-.907 2.2-.582.58-1.371.91-2.194.91"/>
    <path stroke="red" stroke-linecap="round" stroke-miterlimit="10" d="m1651.7 1104.71-267.48 183.61M1651.7 1288.32l-267.48-183.61M1422.43 1104.71l-38.21 26.23M1651.7 1130.94l-229.27 157.38M1422.43 1288.32l-38.21-26.23M1651.7 1262.09l-229.27-157.38M1460.65 1104.71l-76.43 52.46M1651.7 1157.17l-191.05 131.15M1460.65 1288.32l-76.43-52.46M1651.7 1235.86l-191.05-131.15M1498.86 1104.71l-114.64 78.69M1651.7 1183.4l-152.84 104.92M1498.86 1288.32l-114.64-78.69M1651.7 1209.63l-152.84-104.92M1537.07 1104.71l-152.85 104.92M1651.7 1209.63l-114.63 78.69M1537.07 1288.32l-152.85-104.92M1651.7 1183.4l-114.63-78.69M1575.28 1104.71l-191.06 131.15M1651.7 1235.86l-76.42 52.46M1575.28 1288.32l-191.06-131.15M1651.7 1157.17l-76.42-52.46M1613.49 1104.71l-229.27 157.38M1651.7 1262.09l-38.21 26.23M1613.49 1288.32l-229.27-157.38M1651.7 1130.94l-38.21-26.23M695.344 802.841l-36.611 547.339M695.344 1350.18l-36.611-547.339M660.562 802.841l-1.83 27.367M695.344 830.208l-34.781 519.972M660.562 1350.18l-1.83-27.36M695.344 1322.82l-34.781-519.979M662.394 802.841l-3.661 54.734M695.344 857.575l-32.95 492.605M662.394 1350.18l-3.661-54.73M695.344 1295.45l-32.95-492.609M664.224 802.841l-5.492 82.101M695.344 884.942l-31.12 465.238M664.224 1350.18l-5.492-82.1M695.344 1268.08l-31.12-465.239M666.055 802.841l-7.323 109.468M695.344 912.309l-29.289 437.871M666.055 1350.18l-7.323-109.47M695.344 1240.71l-29.289-437.869M667.885 802.841l-9.153 136.835M695.344 939.676l-27.459 410.504M667.885 1350.18l-9.153-136.83M695.344 1213.35l-27.459-410.509M669.716 802.841l-10.983 164.202M695.344 967.043l-25.628 383.137M669.716 1350.18l-10.983-164.2M695.344 1185.98l-25.628-383.139M671.546 802.841 658.732 994.41M695.344 994.41l-23.798 355.77M671.546 1350.18l-12.814-191.57M695.344 1158.61l-23.798-355.769M673.377 802.841l-14.645 218.939M695.344 1021.78l-21.967 328.4M673.377 1350.18l-14.645-218.93M695.344 1131.25l-21.967-328.409M675.207 802.841l-16.475 246.299M695.344 1049.14l-20.136 301.04M675.207 1350.18l-16.475-246.3M695.344 1103.88l-20.136-301.039M677.038 802.841l-18.305 273.669M695.344 1076.51l-18.306 273.67M677.038 1350.18l-18.305-273.67M695.344 1076.51l-18.306-273.669M678.868 802.841l-20.136 301.039M695.344 1103.88l-16.475 246.3M678.868 1350.18l-20.136-301.04M695.344 1049.14l-16.475-246.299M680.699 802.841l-21.967 328.409M695.344 1131.25l-14.645 218.93M680.699 1350.18l-21.966-328.4M695.344 1021.78l-14.645-218.939M682.529 802.841l-23.797 355.769M695.344 1158.61l-12.814 191.57M682.529 1350.18l-23.797-355.77M695.344 994.41 682.53 802.841M684.36 802.841l-25.627 383.139M695.344 1185.98l-10.984 164.2M684.36 1350.18l-25.627-383.137M695.344 967.043 684.36 802.841M686.19 802.841l-27.458 410.509M695.344 1213.35l-9.153 136.83M686.19 1350.18l-27.458-410.504M695.344 939.676l-9.153-136.835M688.021 802.841l-29.288 437.869M695.344 1240.71l-7.322 109.47M688.021 1350.18l-29.288-437.871M695.344 912.309l-7.322-109.468M689.852 802.841l-31.12 465.239M695.344 1268.08l-5.492 82.1M689.852 1350.18l-31.12-465.238M695.344 884.942l-5.492-82.101M691.683 802.841l-32.951 492.609M695.344 1295.45l-3.661 54.73M691.683 1350.18l-32.951-492.605M695.344 857.575l-3.661-54.734M693.513 802.841l-34.781 519.979M695.344 1322.82l-1.831 27.36M693.513 1350.18l-34.781-519.972M695.344 830.208l-1.831-27.367M598.167 895.714 195.292 1436.53M598.167 1436.53 195.292 895.714M214.477 895.714l-19.185 25.753M598.167 921.467 214.476 1436.52M214.477 1436.52l-19.185-25.75M598.167 1410.77 214.476 895.714M233.661 895.714l-38.369 51.506M598.167 947.22l-364.506 489.31M233.661 1436.53l-38.369-51.51M598.167 1385.02 233.661 895.714M252.846 895.714l-57.554 77.259M598.167 972.973 252.845 1436.53M252.846 1436.53l-57.554-77.26M598.167 1359.27 252.845 895.714M272.03 895.714l-76.738 103.012M598.167 998.726 272.03 1436.53M272.03 1436.52l-76.738-103.01M598.167 1333.51 272.03 895.714M291.215 895.714l-95.923 128.766M598.167 1024.48l-306.953 412.05M291.215 1436.52l-95.923-128.76M598.167 1307.76 291.214 895.714M310.399 895.714 195.292 1050.23M598.167 1050.23l-287.768 386.3M310.399 1436.53l-115.107-154.52M598.167 1282.01 310.399 895.714M329.584 895.714 195.292 1075.98M598.167 1075.98l-268.584 360.55M329.584 1436.53l-134.292-180.28M598.167 1256.25 329.583 895.714M348.769 895.714 195.292 1101.74M598.167 1101.74l-249.399 334.79M348.769 1436.52 195.292 1230.5M598.167 1230.5 348.768 895.714M367.953 895.714 195.292 1127.49M598.167 1127.49l-230.214 309.04M367.953 1436.53l-172.661-231.78M598.167 1204.75 367.953 895.714M387.137 895.714 195.291 1153.24M598.167 1153.24l-211.03 283.29M387.137 1436.53 195.291 1179M598.167 1179l-211.03-283.286M406.322 895.714 195.292 1179M598.167 1179l-191.845 257.53M406.322 1436.53l-211.03-283.29M598.167 1153.24 406.322 895.714M425.506 895.714 195.291 1204.75M598.167 1204.75l-172.661 231.78M425.506 1436.53l-230.215-309.04M598.167 1127.49 425.506 895.714M444.69 895.714 195.291 1230.5M598.167 1230.5l-153.476 206.03M444.69 1436.53l-249.399-334.79M598.167 1101.74 444.691 895.714M463.875 895.714 195.291 1256.25M598.167 1256.25l-134.292 180.28M463.875 1436.53l-268.584-360.55M598.167 1075.98 463.875 895.714M483.06 895.714 195.292 1282.01M598.167 1282.01 483.06 1436.53M483.06 1436.53l-287.768-386.3M598.167 1050.23 483.06 895.714M502.244 895.714 195.291 1307.76M598.167 1307.76l-95.923 128.77M502.244 1436.53l-306.953-412.05M598.167 1024.48l-95.923-128.766M521.429 895.714 195.292 1333.51M598.167 1333.51l-76.738 103.02M521.429 1436.53 195.292 998.726M598.167 998.726l-76.738-103.012M540.613 895.714 195.292 1359.27M598.167 1359.27l-57.554 77.26M540.613 1436.53 195.292 972.973M598.167 972.973l-57.554-77.259M559.798 895.714 195.292 1385.02M598.167 1385.02l-38.369 51.51M559.798 1436.53 195.292 947.22M598.167 947.22l-38.369-51.506M578.982 895.714l-383.69 515.056M598.167 1410.77l-19.185 25.76M578.982 1436.53l-383.69-515.063M598.167 921.467l-19.185-25.753M1608.67 228.301l-181.41 496.375M1608.67 724.676l-181.41-496.375M1437.33 228.301l-10.07 27.577M1608.67 255.878l-171.34 468.798M1437.33 724.676l-10.07-27.576M1608.67 697.1l-171.34-468.799M1447.41 228.301l-20.16 55.153M1608.67 283.454l-161.26 441.222M1447.41 724.676l-20.16-55.153M1608.67 669.523l-161.26-441.222M1457.49 228.301l-30.23 82.73M1608.67 311.031l-151.18 413.645M1457.49 724.676l-30.23-82.729M1608.67 641.947l-151.18-413.646M1467.57 228.301l-40.31 110.306M1608.67 338.607l-141.1 386.069M1467.57 724.676l-40.31-110.305M1608.67 614.371l-141.1-386.07M1477.65 228.301l-50.39 137.882M1608.67 366.183l-131.02 358.493M1477.65 724.676l-50.39-137.882M1608.67 586.794l-131.02-358.493M1487.73 228.301l-60.47 165.459M1608.67 393.76l-120.94 330.916M1487.73 724.676l-60.47-165.458M1608.67 559.218l-120.94-330.917M1497.81 228.301l-70.55 193.035M1608.67 421.336l-110.86 303.34M1497.81 724.676l-70.55-193.035M1608.67 531.641l-110.86-303.34M1507.88 228.301l-80.62 220.611M1608.67 448.912l-100.79 275.764M1507.88 724.676l-80.62-220.611M1608.67 504.065l-100.79-275.764M1517.96 228.301l-90.7 248.188M1608.67 476.489l-90.71 248.187M1517.96 724.676l-90.7-248.187M1608.67 476.489l-90.71-248.188M1528.04 228.301l-100.78 275.764M1608.67 504.065l-80.63 220.611M1528.04 724.676l-100.78-275.764M1608.67 448.912l-80.63-220.611M1538.12 228.301l-110.86 303.34M1608.67 531.641l-70.55 193.035M1538.12 724.676l-110.86-303.34M1608.67 421.336l-70.55-193.035M1548.2 228.301l-120.94 330.917M1608.67 559.218l-60.47 165.458M1548.2 724.676 1427.26 393.76M1608.67 393.76l-60.47-165.459M1558.28 228.301l-131.03 358.493M1608.67 586.794l-50.39 137.882M1558.28 724.676l-131.03-358.493M1608.67 366.183l-50.39-137.882M1568.36 228.301l-141.1 386.07M1608.67 614.371l-40.31 110.305M1568.36 724.676l-141.1-386.069M1608.67 338.607l-40.31-110.306M1578.43 228.301l-151.17 413.646M1608.67 641.947l-30.24 82.729M1578.43 724.676l-151.17-413.645M1608.67 311.031l-30.24-82.73M1588.51 228.301l-161.25 441.222M1608.67 669.523l-20.16 55.153M1588.51 724.676l-161.25-441.222M1608.67 283.454l-20.16-55.153M1598.59 228.301 1427.26 697.1M1608.67 697.1l-10.08 27.576M1598.59 724.676l-171.33-468.798M1608.67 255.878l-10.08-27.577M419.538 727.171 116.422 1185.84M419.538 1185.84 116.422 727.171M135.366 727.171l-18.945 28.667M419.538 755.838 135.366 1185.84M135.366 1185.84l-18.945-28.66M419.538 1157.18 135.366 727.171M154.311 727.171l-37.89 57.334M419.538 784.505 154.311 1185.84M154.311 1185.84l-37.89-57.33M419.538 1128.51 154.311 727.171M173.256 727.171l-56.834 86.001M419.538 813.172 173.256 1185.84M173.256 1185.84l-56.834-86M419.538 1099.84 173.256 727.171M192.2 727.171l-75.779 114.668M419.538 841.839 192.201 1185.84M192.2 1185.84l-75.779-114.67M419.538 1071.17 192.201 727.171M211.146 727.171l-94.724 143.335M419.538 870.506 211.146 1185.84M211.146 1185.84l-94.724-143.33M419.538 1042.51 211.146 727.171M230.09 727.171 116.421 899.173M419.538 899.173 230.09 1185.84M230.09 1185.84l-113.669-172M419.538 1013.84 230.09 727.171M249.034 727.171 116.421 927.84M419.538 927.84l-170.503 258M249.034 1185.84 116.421 985.174M419.538 985.174 249.035 727.171M267.979 727.171 116.421 956.507M419.538 956.507 267.98 1185.84M267.979 1185.84 116.421 956.507M419.538 956.507 267.98 727.171M286.924 727.171 116.421 985.174M419.538 985.174 286.925 1185.84M286.924 1185.84l-170.503-258M419.538 927.84 286.925 727.171M305.869 727.171 116.421 1013.84M419.538 1013.84l-113.669 172M305.869 1185.84 116.421 899.173M419.538 899.173 305.869 727.171M324.813 727.171 116.421 1042.51M419.538 1042.51l-94.724 143.33M324.813 1185.84 116.421 870.506M419.538 870.506l-94.724-143.335M343.759 727.171 116.421 1071.17M419.538 1071.17l-75.779 114.67M343.759 1185.84 116.422 841.839M419.538 841.839l-75.779-114.668M362.703 727.171 116.421 1099.84M419.538 1099.84l-56.834 86M362.703 1185.84 116.421 813.172M419.538 813.172l-56.834-86.001M381.648 727.171 116.422 1128.51M419.538 1128.51l-37.89 57.33M381.648 1185.84 116.422 784.505M419.538 784.505l-37.89-57.334M400.593 727.171 116.421 1157.18M419.538 1157.18l-18.945 28.66M400.593 1185.84 116.421 755.838M419.538 755.838l-18.945-28.667M2078.58 116.475l-311.79 620.823M2078.58 737.298l-311.79-620.823M1777.92 116.475l-11.13 22.172M2078.58 138.647l-300.66 598.651M1777.92 737.298l-11.13-22.173M2078.58 715.125l-300.66-598.65M1789.06 116.475l-22.27 44.345M2078.58 160.82l-289.52 576.478M1789.06 737.298l-22.27-44.345M2078.58 692.953l-289.52-576.478M1800.19 116.475l-33.4 66.517M2078.58 182.992l-278.39 554.306M1800.19 737.298l-33.4-66.517M2078.58 670.781l-278.39-554.306M1811.33 116.475l-44.54 88.689M2078.58 205.164l-267.25 532.134M1811.33 737.298l-44.54-88.689M2078.58 648.609l-267.25-532.134M1822.46 116.475l-55.67 110.861M2078.58 227.336l-256.12 509.962M1822.46 737.298l-55.67-110.861M2078.58 626.437l-256.12-509.962M1833.6 116.475l-66.81 133.033M2078.58 249.509 1833.6 737.298M1833.6 737.298l-66.81-133.034M2078.58 604.264 1833.6 116.475M1844.74 116.475l-77.95 155.206M2078.58 271.681l-233.84 465.617M1844.74 737.298l-77.95-155.206M2078.58 582.092l-233.84-465.617M1855.87 116.475l-89.08 177.378M2078.58 293.853l-222.71 443.445M1855.87 737.298l-89.08-177.378M2078.58 559.92l-222.71-443.445M1867.01 116.475l-100.22 199.55M2078.58 316.025l-211.57 421.273M1867.01 737.298l-100.22-199.55M2078.58 537.748l-211.57-421.273M1878.14 116.475l-111.35 221.722M2078.58 338.197l-200.44 399.101M1878.14 737.298l-111.35-221.723M2078.58 515.575l-200.44-399.1M1889.28 116.475 1766.79 360.37M2078.58 360.37l-189.3 376.928M1889.28 737.298l-122.49-243.895M2078.58 493.403l-189.3-376.928M1900.41 116.475l-133.62 266.067M2078.58 382.542l-178.17 354.756M1900.41 737.298l-133.62-266.067M2078.58 471.231l-178.17-354.756M1911.55 116.475l-144.76 288.239M2078.58 404.714l-167.03 332.584M1911.55 737.298l-144.76-288.239M2078.58 449.059l-167.03-332.584M1922.68 116.475l-155.89 310.411M2078.58 426.886l-155.9 310.412M1922.68 737.298l-155.89-310.412M2078.58 426.886l-155.9-310.411M1933.82 116.475l-167.03 332.584M2078.58 449.059l-144.76 288.239M1933.82 737.298l-167.03-332.584M2078.58 404.714l-144.76-288.239M1944.95 116.475l-178.16 354.756M2078.58 471.231l-133.63 266.067M1944.95 737.298l-178.16-354.756M2078.58 382.542l-133.63-266.067M1956.09 116.475l-189.3 376.928M2078.58 493.403l-122.49 243.895M1956.09 737.298l-189.3-376.928M2078.58 360.37l-122.49-243.895M1967.22 116.475l-200.43 399.1M2078.58 515.575l-111.36 221.723M1967.22 737.298l-200.43-399.101M2078.58 338.197l-111.36-221.722M1978.36 116.475l-211.57 421.273M2078.58 537.748l-100.22 199.55M1978.36 737.298l-211.57-421.273M2078.58 316.025l-100.22-199.55M1989.5 116.475 1766.79 559.92M2078.58 559.92l-89.08 177.378M1989.5 737.298l-222.71-443.445M2078.58 293.853l-89.08-177.378M2000.63 116.475l-233.84 465.617M2078.58 582.092l-77.95 155.206M2000.63 737.298l-233.84-465.617M2078.58 271.681l-77.95-155.206M2011.77 116.475l-244.98 487.789M2078.58 604.264l-66.81 133.034M2011.77 737.298l-244.98-487.79M2078.58 249.508l-66.81-133.033M2022.9 116.475l-256.11 509.962M2078.58 626.437l-55.68 110.861M2022.9 737.298l-256.11-509.962M2078.58 227.336l-55.68-110.861M2034.04 116.475l-267.25 532.134M2078.58 648.609l-44.54 88.689M2034.04 737.298l-267.25-532.134M2078.58 205.164l-44.54-88.689M2045.17 116.475l-278.38 554.306M2078.58 670.781l-33.41 66.517M2045.17 737.298l-278.38-554.306M2078.58 182.992l-33.41-66.517M2056.31 116.475l-289.52 576.478M2078.58 692.953l-22.27 44.345M2056.31 737.298 1766.79 160.82M2078.58 160.82l-22.27-44.345M2067.44 116.475l-300.65 598.65M2078.58 715.125l-11.14 22.173M2067.44 737.298l-300.65-598.651M2078.58 138.647l-11.14-22.172M1710.44 1171.5l-384.96 265.03M1710.44 1436.53l-384.96-265.03M1345.74 1171.5l-20.26 13.95M1710.44 1185.45l-364.7 251.08M1345.74 1436.53l-20.26-13.95M1710.44 1422.58l-364.7-251.08M1366 1171.5l-40.52 27.9M1710.44 1199.4 1366 1436.53M1366 1436.53l-40.52-27.9M1710.44 1408.63 1366 1171.5M1386.26 1171.5l-60.78 41.85M1710.44 1213.35l-324.18 223.18M1386.26 1436.53l-60.78-41.85M1710.44 1394.68l-324.18-223.18M1406.53 1171.5l-81.05 55.8M1710.44 1227.3l-303.91 209.23M1406.53 1436.53l-81.05-55.8M1710.44 1380.73l-303.91-209.23M1426.79 1171.5l-101.31 69.75M1710.44 1241.25l-283.65 195.28M1426.79 1436.53l-101.31-69.75M1710.44 1366.78l-283.65-195.28M1447.05 1171.5l-121.57 83.7M1710.44 1255.2l-263.39 181.33M1447.05 1436.53l-121.57-83.7M1710.44 1352.83l-263.39-181.33M1467.31 1171.5l-141.83 97.64M1710.44 1269.14l-243.13 167.39M1467.31 1436.53l-141.83-97.64M1710.44 1338.89l-243.13-167.39M1487.57 1171.5l-162.09 111.59M1710.44 1283.09l-222.87 153.44M1487.57 1436.53l-162.09-111.59M1710.44 1324.94l-222.87-153.44M1507.83 1171.5l-182.35 125.54M1710.44 1297.04l-202.61 139.49M1507.83 1436.53l-182.35-125.54M1710.44 1310.99l-202.61-139.49M1528.09 1171.5l-202.61 139.49M1710.44 1310.99l-182.35 125.54M1528.09 1436.53l-202.61-139.49M1710.44 1297.04l-182.35-125.54M1548.35 1171.5l-222.87 153.44M1710.44 1324.94l-162.09 111.59M1548.35 1436.53l-222.87-153.44M1710.44 1283.09l-162.09-111.59M1568.62 1171.5l-243.14 167.39M1710.44 1338.89l-141.82 97.64M1568.62 1436.53l-243.14-167.39M1710.44 1269.14l-141.82-97.64M1588.88 1171.5l-263.4 181.33M1710.44 1352.83l-121.56 83.7M1588.88 1436.53l-263.4-181.33M1710.44 1255.2l-121.56-83.7M1609.14 1171.5l-283.66 195.28M1710.44 1366.78l-101.3 69.75M1609.14 1436.53l-283.66-195.28M1710.44 1241.25l-101.3-69.75M1629.4 1171.5l-303.92 209.23M1710.44 1380.73l-81.04 55.8M1629.4 1436.53l-303.92-209.23M1710.44 1227.3l-81.04-55.8M1649.66 1171.5l-324.18 223.18M1710.44 1394.68l-60.78 41.85M1649.66 1436.53l-324.18-223.18M1710.44 1213.35l-60.78-41.85M1669.92 1171.5l-344.44 237.13M1710.44 1408.63l-40.52 27.9M1669.92 1436.53l-344.44-237.13M1710.44 1199.4l-40.52-27.9M1690.18 1171.5l-364.7 251.08M1710.44 1422.58l-20.26 13.95M1690.18 1436.53l-364.7-251.08M1710.44 1185.45l-20.26-13.95M422.279 555.908l-51.099 81.171M422.279 637.079l-51.099-81.171M388.213 555.908l-17.033 27.057M422.279 582.965l-34.066 54.114M388.213 637.079l-17.033-27.057M422.279 610.022l-34.066-54.114M405.246 555.908l-34.066 54.114M422.279 610.022l-17.033 27.057M405.246 637.079l-34.066-54.114M422.279 582.965l-17.033-27.057M372.568 546.093 116.421 646.894M372.568 646.894 116.421 546.093M201.804 546.092l-85.383 33.601M372.568 579.693l-170.764 67.201M201.804 646.894l-85.383-33.601M372.568 613.293l-170.764-67.2M287.186 546.093l-170.765 67.2M372.568 613.293l-85.382 33.601M287.186 646.894l-170.765-67.201M372.568 579.693l-85.382-33.6M772.271 116.475 581.805 383.748M772.271 383.748 581.805 116.475M599.12 116.475l-17.315 24.298M772.271 140.773 599.119 383.748M599.12 383.748l-17.315-24.298M772.271 359.45 599.12 116.475M616.435 116.475l-34.631 48.595M772.271 165.07 616.434 383.748M616.435 383.748l-34.631-48.595M772.271 335.153 616.435 116.475M633.75 116.475l-51.945 72.893M772.271 189.368l-138.522 194.38M633.75 383.748l-51.945-72.893M772.271 310.855 633.75 116.475M651.065 116.475l-69.26 97.19M772.271 213.665 651.065 383.748M651.065 383.748l-69.26-97.19M772.271 286.558 651.066 116.475M668.38 116.475l-86.576 121.488M772.271 237.963 668.38 383.748M668.38 383.748 581.804 262.26M772.271 262.26l-103.89-145.785M685.695 116.475 581.805 262.26M772.271 262.26l-86.576 121.488M685.695 383.748l-103.89-145.785M772.271 237.963l-86.575-121.488M703.011 116.475 581.805 286.558M772.271 286.558l-69.261 97.19M703.011 383.748 581.805 213.665M772.271 213.665l-69.26-97.19M720.326 116.475l-138.521 194.38M772.271 310.855l-51.946 72.893M720.325 383.748l-138.521-194.38M772.271 189.368l-51.945-72.893M737.641 116.475 581.804 335.153M772.271 335.153l-34.631 48.595M737.641 383.748 581.804 165.07M772.271 165.07l-34.63-48.595M754.956 116.475 581.805 359.45M772.271 359.45l-17.316 24.298M754.956 383.748 581.805 140.773M772.271 140.773l-17.315-24.298M1862.47 355.153l-128.4 722.687M1862.47 1077.84l-128.4-722.687M1739 355.153l-4.93 27.796M1862.47 382.949 1739 1077.84M1739 1077.84l-4.93-27.79M1862.47 1050.05 1739 355.153M1743.94 355.153l-9.87 55.592M1862.47 410.745l-118.53 667.095M1743.94 1077.84l-9.87-55.59M1862.47 1022.25l-118.53-667.097M1748.88 355.153l-14.81 83.387M1862.47 438.54l-113.59 639.3M1748.88 1077.84l-14.81-83.385M1862.47 994.455l-113.59-639.302M1753.82 355.153l-19.75 111.183M1862.47 466.336l-108.65 611.504M1753.82 1077.84l-19.75-111.18M1862.47 966.66l-108.65-611.507M1758.76 355.153l-24.69 138.979M1862.47 494.132l-103.71 583.708M1758.76 1077.84l-24.69-138.976M1862.47 938.864l-103.71-583.711M1763.7 355.153l-29.63 166.775M1862.47 521.928l-98.77 555.912M1763.7 1077.84l-29.63-166.772M1862.47 911.068l-98.77-555.915M1768.64 355.153l-34.57 194.57M1862.47 549.723l-93.83 528.117M1768.64 1077.84l-34.57-194.568M1862.47 883.272l-93.83-528.119M1773.58 355.153l-39.51 222.366M1862.47 577.519l-88.89 500.321M1773.58 1077.84l-39.51-222.363M1862.47 855.477l-88.89-500.324M1778.52 355.153l-44.45 250.162M1862.47 605.315l-83.95 472.525M1778.52 1077.84l-44.45-250.159M1862.47 827.681l-83.95-472.528M1783.45 355.153l-49.38 277.958M1862.47 633.111l-79.02 444.729M1783.45 1077.84l-49.38-277.955M1862.47 799.885l-79.02-444.732M1788.39 355.153l-54.32 305.753M1862.47 660.906l-74.08 416.934M1788.39 1077.84l-54.32-305.751M1862.47 772.089l-74.08-416.936M1793.33 355.153l-59.26 333.549M1862.47 688.702l-69.14 389.138M1793.33 1077.84l-59.26-333.546M1862.47 744.294l-69.14-389.141M1798.27 355.153l-64.2 361.345M1862.47 716.498l-64.2 361.342M1798.27 1077.84l-64.2-361.342M1862.47 716.498l-64.2-361.345M1803.21 355.153l-69.14 389.141M1862.47 744.294l-59.26 333.546M1803.21 1077.84l-69.14-389.138M1862.47 688.702l-59.26-333.549M1808.15 355.153l-74.08 416.936M1862.47 772.089l-54.32 305.751M1808.15 1077.84l-74.08-416.934M1862.47 660.906l-54.32-305.753M1813.09 355.153l-79.02 444.732M1862.47 799.885l-49.38 277.955M1813.09 1077.84l-79.02-444.729M1862.47 633.111l-49.38-277.958M1818.03 355.153l-83.96 472.528M1862.47 827.681l-44.44 250.159M1818.03 1077.84l-83.96-472.525M1862.47 605.315l-44.44-250.162M1822.96 355.153l-88.89 500.324M1862.47 855.477l-39.51 222.363M1822.96 1077.84l-88.89-500.321M1862.47 577.519l-39.51-222.366M1827.9 355.153l-93.83 528.119M1862.47 883.272l-34.57 194.568M1827.9 1077.84l-93.83-528.117M1862.47 549.723l-34.57-194.57M1832.84 355.153l-98.77 555.915M1862.47 911.068l-29.63 166.772M1832.84 1077.84l-98.77-555.912M1862.47 521.928l-29.63-166.775M1837.78 355.153l-103.71 583.711M1862.47 938.864l-24.69 138.976M1837.78 1077.84l-103.71-583.708M1862.47 494.132l-24.69-138.979M1842.72 355.153 1734.07 966.66M1862.47 966.66l-19.75 111.18M1842.72 1077.84l-108.65-611.504M1862.47 466.336l-19.75-111.183M1847.66 355.153l-113.59 639.302M1862.47 994.455l-14.81 83.385M1847.66 1077.84l-113.59-639.3M1862.47 438.54l-14.81-83.387M1852.6 355.153l-118.53 667.097M1862.47 1022.25l-9.87 55.59M1852.6 1077.84l-118.53-667.095M1862.47 410.745l-9.87-55.592M1857.54 355.153l-123.47 694.897M1862.47 1050.05l-4.93 27.79M1857.54 1077.84l-123.47-694.891M1862.47 382.949l-4.93-27.796M817.773 214.75 536.302 978.237M817.773 978.237 536.302 214.75M546.008 214.75l-9.706 26.327M817.773 241.077l-271.765 737.16M546.008 978.237l-9.706-26.327M817.773 951.91 546.008 214.75M555.714 214.75l-19.412 52.654M817.773 267.404 555.714 978.237M555.714 978.237l-19.412-52.655M817.773 925.583 555.714 214.75M565.42 214.75l-29.118 78.981M817.773 293.731 565.42 978.237M565.42 978.237l-29.118-78.982M817.773 899.255 565.42 214.75M575.126 214.75l-38.824 105.308M817.773 320.058 575.126 978.237M575.126 978.237l-38.824-105.309M817.773 872.928 575.126 214.75M584.832 214.75l-48.53 131.635M817.773 346.385 584.831 978.237M584.832 978.237l-48.53-131.636M817.773 846.601 584.831 214.75M594.537 214.75l-58.235 157.963M817.773 372.713 594.537 978.237M594.537 978.237l-58.235-157.963M817.773 820.274 594.537 214.75M604.243 214.75l-67.941 184.29M817.773 399.04l-213.53 579.197M604.243 978.237l-67.941-184.29M817.773 793.947 604.243 214.75M613.949 214.75l-77.647 210.617M817.773 425.367l-203.824 552.87M613.949 978.237 536.302 767.62M817.773 767.62 613.949 214.75M623.655 214.75l-87.353 236.944M817.773 451.694 623.655 978.237M623.655 978.237l-87.353-236.944M817.773 741.293 623.655 214.75M633.361 214.75l-97.059 263.271M817.773 478.021 633.361 978.237M633.361 978.237l-97.059-263.272M817.773 714.965 633.361 214.75M643.067 214.75 536.302 504.348M817.773 504.348 643.067 978.237M643.067 978.237 536.302 688.638M817.773 688.638 643.067 214.75M652.773 214.75 536.302 530.675M817.773 530.675l-165 447.562M652.773 978.237 536.302 662.311M817.773 662.311l-165-447.561M662.479 214.75 536.302 557.003M817.773 557.003 662.479 978.237M662.479 978.237 536.302 635.984M817.773 635.984 662.479 214.75M672.185 214.75 536.302 583.33M817.773 583.33 672.185 978.237M672.185 978.237l-135.883-368.58M817.773 609.657 672.185 214.75M681.891 214.75 536.302 609.657M817.773 609.657l-135.882 368.58M681.891 978.237 536.302 583.33M817.773 583.33 681.891 214.75M691.597 214.75 536.302 635.984M817.773 635.984 691.597 978.237M691.597 978.237 536.302 557.003M817.773 557.003 691.597 214.75M701.303 214.75 536.302 662.311M817.773 662.311 701.302 978.237M701.303 978.237 536.302 530.675M817.773 530.675 701.303 214.75M711.009 214.75 536.302 688.638M817.773 688.638 711.008 978.237M711.009 978.237 536.302 504.348M817.773 504.348 711.008 214.75M720.715 214.75 536.302 714.965M817.773 714.965l-97.059 263.272M720.715 978.237 536.302 478.021M817.773 478.021 720.714 214.75M730.42 214.75 536.302 741.293M817.773 741.293 730.42 978.237M730.42 978.237 536.302 451.694M817.773 451.694 730.42 214.75M740.126 214.75 536.302 767.62M817.773 767.62l-77.647 210.617M740.126 978.237l-203.824-552.87M817.773 425.367 740.126 214.75M749.832 214.75l-213.53 579.197M817.773 793.947l-67.941 184.29M749.832 978.237 536.302 399.04M817.773 399.04l-67.941-184.29M759.538 214.75 536.302 820.274M817.773 820.274l-58.235 157.963M759.538 978.237 536.302 372.713M817.773 372.713 759.538 214.75M769.244 214.75 536.302 846.601M817.773 846.601l-48.529 131.636M769.244 978.237 536.302 346.385M817.773 346.385 769.244 214.75M778.95 214.75 536.302 872.928M817.773 872.928 778.95 978.237M778.95 978.237 536.302 320.058M817.773 320.058 778.95 214.75M788.656 214.75 536.302 899.255M817.773 899.255l-29.117 78.982M788.656 978.237 536.302 293.731M817.773 293.731l-29.117-78.981M798.361 214.75 536.302 925.583M817.773 925.582l-19.411 52.655M798.361 978.237 536.302 267.404M817.773 267.404l-19.411-52.654M808.067 214.75 536.302 951.91M817.773 951.91l-9.706 26.327M808.067 978.237l-271.765-737.16M817.773 241.077l-9.706-26.327"/>
    <path fill="#fff" stroke="#000" stroke-linecap="round" stroke-miterlimit="10" d="M971.692 1062.16v28.7H943v-28.7h28.692Z"/>
    <path stroke="#000" stroke-linecap="round" stroke-miterlimit="10" d="M957.346 1076.51 677.037 596.493"/>
    <path fill="#fff" stroke="#000" stroke-linecap="round" stroke-miterlimit="10" d="M971.692 942.154v28.706H943v-28.706h28.692Z"/>
    <path stroke="#000" stroke-linecap="round" stroke-miterlimit="10" d="M957.346 956.507v120.003"/>
    <path fill="#fff" stroke="#000" stroke-linecap="round" stroke-miterlimit="10" d="M2092.92 1062.16v28.7h-28.69v-28.7h28.69Z"/>
    <path stroke="#000" stroke-linecap="round" stroke-miterlimit="10" d="M2078.58 1076.51 957.346 956.507"/>
    <path fill="#fff" stroke="#000" stroke-linecap="round" stroke-miterlimit="10" d="M1532.31 1182.16v28.71h-28.69v-28.71h28.69Z"/>
    <path stroke="#000" stroke-linecap="round" stroke-miterlimit="10" d="m1517.96 1196.52 560.62-120.01"/>
    <path fill="#fff" stroke="#000" stroke-linecap="round" stroke-miterlimit="10" d="M1252 1422.17v28.71h-28.69v-28.71H1252Z"/>
    <path stroke="#000" stroke-linecap="round" stroke-miterlimit="10" d="m1237.65 1436.53 280.31-240.01"/>
    <path fill="#fff" stroke="#000" stroke-linecap="round" stroke-miterlimit="10" d="M2092.92 1182.16v28.71h-28.69v-28.71h28.69Z"/>
    <path stroke="#000" stroke-linecap="round" stroke-miterlimit="10" d="m2078.58 1196.52-840.93 240.01"/>
    <path fill="#fff" stroke="#000" stroke-linecap="round" stroke-miterlimit="10" d="M691.384 1062.16v28.7h-28.693v-28.7h28.693Z"/>
    <path stroke="#000" stroke-linecap="round" stroke-miterlimit="10" d="m677.038 1076.51 1401.542 120.01"/>
    <path fill="#fff" stroke="#000" stroke-linecap="round" stroke-miterlimit="10" d="M2092.92 702.145v28.706h-28.69v-28.706h28.69Z"/>
    <path stroke="#000" stroke-linecap="round" stroke-miterlimit="10" d="M2078.58 716.498 677.038 1076.51"/>
    <path fill="#fff" stroke="#000" stroke-linecap="round" stroke-miterlimit="10" d="M411.076 1062.16v28.7h-28.693v-28.7h28.693Z"/>
    <path stroke="#000" stroke-linecap="round" stroke-miterlimit="10" d="m396.73 1076.51 1681.85-360.012"/>
    <path fill="#fff" stroke="#000" stroke-linecap="round" stroke-miterlimit="10" d="M411.076 1182.16v28.71h-28.693v-28.71h28.693Z"/>
    <path stroke="#000" stroke-linecap="round" stroke-miterlimit="10" d="M396.729 1196.52v-120.01"/>
    <path fill="#fff" stroke="#000" stroke-linecap="round" stroke-miterlimit="10" d="M130.768 222.127v28.706h-28.693v-28.706h28.693Z"/>
    <path stroke="#000" stroke-linecap="round" stroke-miterlimit="10" d="m116.421 236.48 280.308 960.04"/>
    <path fill="#fff" stroke="#000" stroke-linecap="round" stroke-miterlimit="10" d="M411.076 462.136v28.706h-28.693v-28.706h28.693Z"/>
    <path stroke="#000" stroke-linecap="round" stroke-miterlimit="10" d="M396.729 476.489 116.421 236.48"/>
    <path fill="#fff" stroke="#000" stroke-linecap="round" stroke-miterlimit="10" d="M1812.62 1182.16v28.71h-28.7v-28.71h28.7Z"/>
    <path stroke="#000" stroke-linecap="round" stroke-miterlimit="10" d="M1798.27 1196.52 396.729 476.489"/>
    <path fill="#fff" stroke="#000" stroke-linecap="round" stroke-miterlimit="10" d="M1532.31 462.136v28.706h-28.69v-28.706h28.69Z"/>
    <path stroke="#000" stroke-linecap="round" stroke-miterlimit="10" d="m1517.96 476.489 280.31 720.031"/>
    <path fill="#fff" stroke="#000" stroke-linecap="round" stroke-miterlimit="10" d="M971.692 702.145v28.706H943v-28.706h28.692Z"/>
    <path stroke="#000" stroke-linecap="round" stroke-miterlimit="10" d="m957.345 716.498 560.615-240.009"/>
    <path fill="#fff" stroke="#000" stroke-linecap="round" stroke-miterlimit="10" d="M130.768 942.154v28.706h-28.693v-28.706h28.693Z"/>
    <path stroke="#000" stroke-linecap="round" stroke-miterlimit="10" d="m116.421 956.507 840.925-240.009"/>
    <path fill="#fff" stroke="#000" stroke-linecap="round" stroke-miterlimit="10" d="M2092.93 342.131v28.706h-28.7v-28.706h28.7Z"/>
    <path stroke="#000" stroke-linecap="round" stroke-miterlimit="10" d="M2078.58 356.484 116.421 956.507"/>
    <path fill="#fff" stroke="#000" stroke-linecap="round" stroke-miterlimit="10" d="M971.692 822.149v28.706H943v-28.706h28.692Z"/>
    <path stroke="#000" stroke-linecap="round" stroke-miterlimit="10" d="M957.346 836.502 2078.58 356.484"/>
    <path fill="#fff" stroke="#000" stroke-linecap="round" stroke-miterlimit="10" d="M1532.31 1422.17v28.71h-28.69v-28.71h28.69Z"/>
    <path stroke="#000" stroke-linecap="round" stroke-miterlimit="10" d="M1517.96 1436.53 957.345 836.502"/>
    <path fill="#fff" stroke="#000" stroke-linecap="round" stroke-miterlimit="10" d="M411.076 582.14v28.706h-28.693V582.14h28.693Z"/>
    <path stroke="#000" stroke-linecap="round" stroke-miterlimit="10" d="M396.729 596.493 1517.96 1436.53"/>
    <path fill="#fff" stroke="#000" stroke-linecap="round" stroke-miterlimit="10" d="M691.384 462.136v28.706h-28.693v-28.706h28.693Z"/>
    <path stroke="#000" stroke-linecap="round" stroke-miterlimit="10" d="M677.037 476.489 396.729 596.493"/>
    <path fill="#fff" stroke="#000" stroke-linecap="round" stroke-miterlimit="10" d="M411.076 1302.17v28.7h-28.693v-28.7h28.693Z"/>
    <path stroke="#000" stroke-linecap="round" stroke-miterlimit="10" d="m396.729 1316.52 280.308-840.031"/>
    <path fill="#fff" stroke="#000" stroke-linecap="round" stroke-miterlimit="10" d="M1252 102.122v28.706h-28.69v-28.706H1252Z"/>
    <path stroke="#000" stroke-linecap="round" stroke-miterlimit="10" d="M1237.65 116.475 396.73 1316.52"/>
    <path fill="#fff" stroke="#000" stroke-linecap="round" stroke-miterlimit="10" d="M2092.92 822.149v28.706h-28.69v-28.706h28.69Z"/>
    <path stroke="#000" stroke-linecap="round" stroke-miterlimit="10" d="m2078.58 836.502-840.93-720.027"/>
    <path fill="#fff" stroke="#000" stroke-linecap="round" stroke-miterlimit="10" d="M2092.92 1302.17v28.7h-28.69v-28.7h28.69Z"/>
    <path stroke="#000" stroke-linecap="round" stroke-miterlimit="10" d="M2078.58 1316.52V836.502"/>
    <path fill="#fff" stroke="#000" stroke-linecap="round" stroke-miterlimit="10" d="M130.768 582.14v28.706h-28.693V582.14h28.693Z"/>
    <path stroke="#000" stroke-linecap="round" stroke-miterlimit="10" d="M116.421 596.493 2078.58 1316.52"/>
    <path fill="#fff" stroke="#000" stroke-linecap="round" stroke-miterlimit="10" d="M691.384 222.127v28.706h-28.693v-28.706h28.693Z"/>
    <path stroke="#000" stroke-linecap="round" stroke-miterlimit="10" d="M677.037 236.48 116.421 596.493"/>
    <path fill="#fff" stroke="#000" stroke-linecap="round" stroke-miterlimit="10" d="M1812.62 1062.16v28.7h-28.7v-28.7h28.7Z"/>
    <path stroke="#000" stroke-linecap="round" stroke-miterlimit="10" d="M1798.27 1076.51 677.037 236.48"/>
    <path fill="#fff" stroke="#000" stroke-linecap="round" stroke-miterlimit="10" d="M1812.62 822.149v28.706h-28.7v-28.706h28.7Z"/>
    <path stroke="#000" stroke-linecap="round" stroke-miterlimit="10" d="M1798.27 836.502v240.008"/>
    <path fill="#fff" stroke="#000" stroke-linecap="round" stroke-miterlimit="10" d="M1812.62 702.145v28.706h-28.7v-28.706h28.7Z"/>
    <path stroke="#000" stroke-linecap="round" stroke-miterlimit="10" d="M1798.27 716.498v120.004"/>
    <path fill="#fff" stroke="#000" stroke-linecap="round" stroke-miterlimit="10" d="M691.384 582.14v28.706h-28.693V582.14h28.693Z"/>
    <path stroke="#000" stroke-linecap="round" stroke-miterlimit="10" d="M677.037 596.493 1798.27 716.498"/>
  </g>
  <defs>
    <clipPath id="a">
      <path fill="#fff" d="M2195 0v1553H0V0z"/>
    </clipPath>
  </defs>
</svg>
