<svg viewBox="0 0 1858 332" xmlns="http://www.w3.org/2000/svg">
  <path d="M389.996016,204.273473 L388.952016,204.273473 C388.952016,204.273473 386.517016,203.055473 385.823016,202.012473 C385.124016,200.969473 384.256016,199.577473 383.736016,198.184473 C383.213016,196.796473 383.038016,193.836473 383.038016,193.836473 C383.038016,193.836473 380.428016,195.054473 379.559016,195.054473 C378.691016,195.054473 377.996016,195.229473 375.906016,194.011473 C373.819016,192.794473 374.168016,189.314473 374.168016,189.314473 C374.168016,189.314473 377.996016,189.144473 379.734016,188.795473 C381.475016,188.447473 382.867016,186.010473 382.867016,186.010473 L383.387016,182.532473 L368.080016,182.532473 L368.080016,176.181473 L377.473016,176.181473 C377.473016,176.181473 377.647016,174.011473 377.298016,172.095473 C376.949016,170.183473 376.775016,169.486473 375.037016,167.922473 C373.300016,166.356473 371.213016,165.137473 368.603016,165.137473 C365.993016,165.137473 364.430016,166.530473 362.689016,168.616473 C360.947016,170.708473 359.734016,174.706473 359.734016,174.706473 C359.734016,174.706473 356.775016,172.790473 354.863016,170.708473 C352.951016,168.616473 351.903016,164.963473 351.903016,162.008473 C351.903016,159.052473 354.513016,154.356473 356.255016,152.440473 C357.992016,150.528473 362.340016,149.311473 366.168016,149.311473 C369.996016,149.311473 372.951016,151.052473 376.255016,153.659473 C379.559016,156.269473 381.126016,162.707473 381.475016,164.963473 C381.820016,167.229473 382.693016,176.268473 382.693016,176.268473 L386.346016,176.268473 C386.346016,176.268473 386.172016,173.488473 386.172016,170.708473 C386.172016,167.922473 385.648016,164.619473 385.299016,162.008473 C384.954016,159.398473 382.693016,153.483473 380.777016,150.877473 C378.865016,148.268473 376.949016,141.830473 376.949016,138.351473 C376.949016,134.873473 379.734016,127.915473 381.301016,125.133473 C382.867016,122.354473 389.476016,116.609473 389.476016,116.609473 C389.476016,116.609473 396.084016,122.354473 397.651016,125.133473 C399.214016,127.915473 401.999016,134.873473 401.999016,138.351473 C401.999016,141.830473 400.083016,148.268473 398.171016,150.877473 C396.259016,153.483473 393.998016,159.398473 393.649016,162.008473 C393.300016,164.619473 392.780016,167.922473 392.780016,170.708473 C392.780016,173.488473 392.606016,176.268473 392.606016,176.268473 L396.259016,176.268473 C396.259016,176.268473 397.128016,167.229473 397.477016,164.963473 C397.822016,162.707473 399.389016,156.269473 402.693016,153.659473 C405.997016,151.052473 408.956016,149.311473 412.780016,149.311473 C416.608016,149.311473 420.956016,150.528473 422.697016,152.440473 C424.434016,154.356473 427.045016,159.052473 427.045016,162.008473 C427.045016,164.963473 426.001016,168.616473 424.089016,170.708473 C422.173016,172.790473 419.218016,174.706473 419.218016,174.706473 C419.218016,174.706473 418.000016,170.708473 416.263016,168.616473 C414.522016,166.530473 412.955016,165.137473 410.345016,165.137473 C407.739016,165.137473 405.652016,166.356473 403.911016,167.922473 C402.173016,169.486473 401.999016,170.183473 401.650016,172.095473 C401.305016,174.011473 401.479016,176.181473 401.479016,176.181473 L410.868016,176.181473 L410.868016,182.532473 L395.561016,182.532473 L396.084016,186.010473 C396.084016,186.010473 397.477016,188.447473 399.214016,188.795473 C400.956016,189.144473 404.783016,189.314473 404.783016,189.314473 C404.783016,189.314473 405.129016,192.794473 403.042016,194.011473 C400.956016,195.229473 400.257016,195.054473 399.389016,195.054473 C398.520016,195.054473 395.910016,193.836473 395.910016,193.836473 C395.910016,193.836473 395.735016,196.796473 395.212016,198.184473 C394.692016,199.577473 393.823016,200.969473 393.129016,202.012473 C392.431016,203.055473 389.996016,204.273473 389.996016,204.273473 Z"></path>
  <path d="M695.431116,204.273473 C695.431116,204.273473 697.867116,203.055473 698.565116,202.012473 C699.259116,200.969473 700.128116,199.577473 700.647116,198.184473 C701.171116,196.796473 701.346116,193.836473 701.346116,193.836473 C701.346116,193.836473 703.956116,195.054473 704.824116,195.054473 C705.693116,195.054473 706.391116,195.229473 708.477116,194.011473 C710.564116,192.794473 710.219116,189.314473 710.219116,189.314473 C710.219116,189.314473 706.391116,189.144473 704.650116,188.795473 C702.912116,188.447473 701.520116,186.010473 701.520116,186.010473 L700.996116,182.532473 L716.304116,182.532473 L716.304116,176.181473 L706.915116,176.181473 C706.915116,176.181473 706.740116,174.011473 707.085116,172.095473 C707.434116,170.183473 707.609116,169.486473 709.346116,167.922473 C711.088116,166.356473 713.174116,165.137473 715.780116,165.137473 C718.390116,165.137473 719.957116,166.530473 721.699116,168.616473 C723.436116,170.708473 724.654116,174.706473 724.654116,174.706473 C724.654116,174.706473 727.609116,172.790473 729.525116,170.708473 C731.437116,168.616473 732.480116,164.963473 732.480116,162.008473 C732.480116,159.052473 729.870116,154.356473 728.133116,152.440473 C726.391116,150.528473 722.044116,149.311473 718.216116,149.311473 C714.392116,149.311473 711.433116,151.052473 708.128116,153.659473 C704.824116,156.269473 703.257116,162.707473 702.912116,164.963473 C702.563116,167.229473 701.695116,176.268473 701.695116,176.268473 L698.041116,176.268473 C698.041116,176.268473 698.216116,173.488473 698.216116,170.708473 C698.216116,167.922473 698.735116,164.619473 699.084116,162.008473 C699.433116,159.398473 701.695116,153.483473 703.606116,150.877473 C705.519116,148.268473 707.434116,141.830473 707.434116,138.351473 C707.434116,134.873473 704.650116,127.915473 703.087116,125.133473 C701.520116,122.354473 694.911116,116.609473 694.911116,116.609473 C694.911116,116.609473 688.303116,122.354473 686.736116,125.133473 C685.169116,127.915473 682.385116,134.873473 682.385116,138.351473 C682.385116,141.830473 684.300116,148.268473 686.213116,150.877473 C688.128116,153.483473 690.389116,159.398473 690.735116,162.008473 C691.084116,164.619473 691.607116,167.922473 691.607116,170.708473 C691.607116,173.488473 691.782116,176.268473 691.782116,176.268473 L688.128116,176.268473 C688.128116,176.268473 687.256116,167.229473 686.911116,164.963473 C686.562116,162.707473 684.995116,156.269473 681.691116,153.659473 C678.386116,151.052473 675.431116,149.311473 671.603116,149.311473 C667.775116,149.311473 663.428116,150.528473 661.690116,152.440473 C659.949116,154.356473 657.339116,159.052473 657.339116,162.008473 C657.339116,164.963473 658.386116,168.616473 660.298116,170.708473 C662.210116,172.790473 665.169116,174.706473 665.169116,174.706473 C665.169116,174.706473 666.383116,170.708473 668.124116,168.616473 C669.866116,166.530473 671.429116,165.137473 674.039116,165.137473 C676.649116,165.137473 678.735116,166.356473 680.473116,167.922473 C682.210116,169.486473 682.385116,170.183473 682.734116,172.095473 C683.083116,174.011473 682.908116,176.181473 682.908116,176.181473 L673.515116,176.181473 L673.515116,182.532473 L688.823116,182.532473 L688.303116,186.010473 C688.303116,186.010473 686.911116,188.447473 685.169116,188.795473 C683.432116,189.144473 679.604116,189.314473 679.604116,189.314473 C679.604116,189.314473 679.255116,192.794473 681.342116,194.011473 C683.432116,195.229473 684.126116,195.054473 684.995116,195.054473 C685.863116,195.054473 688.473116,193.836473 688.473116,193.836473 C688.473116,193.836473 688.648116,196.796473 689.172116,198.184473 C689.691116,199.577473 690.560116,200.969473 691.258116,202.012473 C691.952116,203.055473 694.388116,204.273473 694.388116,204.273473"></path>
  <path d="M695.431116,204.273473 C695.431116,204.273473 697.867116,203.055473 698.565116,202.012473 C699.259116,200.969473 700.128116,199.577473 700.647116,198.184473 C701.171116,196.796473 701.346116,193.836473 701.346116,193.836473 C701.346116,193.836473 703.956116,195.054473 704.824116,195.054473 C705.693116,195.054473 706.391116,195.229473 708.477116,194.011473 C710.564116,192.794473 710.219116,189.314473 710.219116,189.314473 C710.219116,189.314473 706.391116,189.144473 704.650116,188.795473 C702.912116,188.447473 701.520116,186.010473 701.520116,186.010473 L700.996116,182.532473 L716.304116,182.532473 L716.304116,176.181473 L706.915116,176.181473 C706.915116,176.181473 706.740116,174.011473 707.085116,172.095473 C707.434116,170.183473 707.609116,169.486473 709.346116,167.922473 C711.088116,166.356473 713.174116,165.137473 715.780116,165.137473 C718.390116,165.137473 719.957116,166.530473 721.699116,168.616473 C723.436116,170.708473 724.654116,174.706473 724.654116,174.706473 C724.654116,174.706473 727.609116,172.790473 729.525116,170.708473 C731.437116,168.616473 732.480116,164.963473 732.480116,162.008473 C732.480116,159.052473 729.870116,154.356473 728.133116,152.440473 C726.391116,150.528473 722.044116,149.311473 718.216116,149.311473 C714.392116,149.311473 711.433116,151.052473 708.128116,153.659473 C704.824116,156.269473 703.257116,162.707473 702.912116,164.963473 C702.563116,167.229473 701.695116,176.268473 701.695116,176.268473 L698.041116,176.268473 C698.041116,176.268473 698.216116,173.488473 698.216116,170.708473 C698.216116,167.922473 698.735116,164.619473 699.084116,162.008473 C699.433116,159.398473 701.695116,153.483473 703.606116,150.877473 C705.519116,148.268473 707.434116,141.830473 707.434116,138.351473 C707.434116,134.873473 704.650116,127.915473 703.087116,125.133473 C701.520116,122.354473 694.911116,116.609473 694.911116,116.609473 C694.911116,116.609473 688.303116,122.354473 686.736116,125.133473 C685.169116,127.915473 682.385116,134.873473 682.385116,138.351473 C682.385116,141.830473 684.300116,148.268473 686.213116,150.877473 C688.128116,153.483473 690.389116,159.398473 690.735116,162.008473 C691.084116,164.619473 691.607116,167.922473 691.607116,170.708473 C691.607116,173.488473 691.782116,176.268473 691.782116,176.268473 L688.128116,176.268473 C688.128116,176.268473 687.256116,167.229473 686.911116,164.963473 C686.562116,162.707473 684.995116,156.269473 681.691116,153.659473 C678.386116,151.052473 675.431116,149.311473 671.603116,149.311473 C667.775116,149.311473 663.428116,150.528473 661.690116,152.440473 C659.949116,154.356473 657.339116,159.052473 657.339116,162.008473 C657.339116,164.963473 658.386116,168.616473 660.298116,170.708473 C662.210116,172.790473 665.169116,174.706473 665.169116,174.706473 C665.169116,174.706473 666.383116,170.708473 668.124116,168.616473 C669.866116,166.530473 671.429116,165.137473 674.039116,165.137473 C676.649116,165.137473 678.735116,166.356473 680.473116,167.922473 C682.210116,169.486473 682.385116,170.183473 682.734116,172.095473 C683.083116,174.011473 682.908116,176.181473 682.908116,176.181473 L673.515116,176.181473 L673.515116,182.532473 L688.823116,182.532473 L688.303116,186.010473 C688.303116,186.010473 686.911116,188.447473 685.169116,188.795473 C683.432116,189.144473 679.604116,189.314473 679.604116,189.314473 C679.604116,189.314473 679.255116,192.794473 681.342116,194.011473 C683.432116,195.229473 684.126116,195.054473 684.995116,195.054473 C685.863116,195.054473 688.473116,193.836473 688.473116,193.836473 C688.473116,193.836473 688.648116,196.796473 689.172116,198.184473 C689.691116,199.577473 690.560116,200.969473 691.258116,202.012473 C691.952116,203.055473 694.388116,204.273473 694.388116,204.273473"></path>
  <path d="M1159.53272,204.273473 C1159.53272,204.273473 1161.97272,203.055473 1162.67372,202.012473 C1163.36272,200.969473 1164.23272,199.577473 1164.75372,198.184473 C1165.27272,196.796473 1165.45272,193.836473 1165.45272,193.836473 C1165.45272,193.836473 1168.05372,195.054473 1168.93272,195.054473 C1169.79272,195.054473 1170.49272,195.229473 1172.58372,194.011473 C1174.67372,192.794473 1174.32272,189.314473 1174.32272,189.314473 C1174.32272,189.314473 1170.49272,189.144473 1168.75372,188.795473 C1167.01272,188.447473 1165.62272,186.010473 1165.62272,186.010473 L1165.10272,182.532473 L1180.41272,182.532473 L1180.41272,176.181473 L1171.02272,176.181473 C1171.02272,176.181473 1170.84372,174.011473 1171.19272,172.095473 C1171.53272,170.183473 1171.71372,169.486473 1173.45272,167.922473 C1175.19272,166.356473 1177.28272,165.137473 1179.89272,165.137473 C1182.49272,165.137473 1184.06272,166.530473 1185.80372,168.616473 C1187.54272,170.708473 1188.76272,174.706473 1188.76272,174.706473 C1188.76272,174.706473 1191.71372,172.790473 1193.63372,170.708473 C1195.54272,168.616473 1196.58372,164.963473 1196.58372,162.008473 C1196.58372,159.052473 1193.98272,154.356473 1192.23272,152.440473 C1190.50372,150.528473 1186.15272,149.311473 1182.32272,149.311473 C1178.49272,149.311473 1175.53272,151.052473 1172.23272,153.659473 C1168.93272,156.269473 1167.36272,162.707473 1167.01272,164.963473 C1166.66272,167.229473 1165.80372,176.268473 1165.80372,176.268473 L1162.14272,176.268473 C1162.14272,176.268473 1162.32272,173.488473 1162.32272,170.708473 C1162.32272,167.922473 1162.84372,164.619473 1163.19272,162.008473 C1163.53272,159.398473 1165.80372,153.483473 1167.71372,150.877473 C1169.62272,148.268473 1171.53272,141.830473 1171.53272,138.351473 C1171.53272,134.873473 1168.75372,127.915473 1167.19272,125.133473 C1165.62272,122.354473 1159.01272,116.609473 1159.01272,116.609473 C1159.01272,116.609473 1152.40272,122.354473 1150.84372,125.133473 C1149.27272,127.915473 1146.49272,134.873473 1146.49272,138.351473 C1146.49272,141.830473 1148.40272,148.268473 1150.31272,150.877473 C1152.23272,153.483473 1154.49272,159.398473 1154.84372,162.008473 C1155.18272,164.619473 1155.71372,167.922473 1155.71372,170.708473 C1155.71372,173.488473 1155.88372,176.268473 1155.88372,176.268473 L1152.23272,176.268473 C1152.23272,176.268473 1151.36272,167.229473 1151.01272,164.963473 C1150.66272,162.707473 1149.10272,156.269473 1145.79272,153.659473 C1142.49272,151.052473 1139.53272,149.311473 1135.70272,149.311473 C1131.88372,149.311473 1127.53272,150.528473 1125.79272,152.440473 C1124.05372,154.356473 1121.44272,159.052473 1121.44272,162.008473 C1121.44272,164.963473 1122.49272,168.616473 1124.40272,170.708473 C1126.31272,172.790473 1129.27272,174.706473 1129.27272,174.706473 C1129.27272,174.706473 1130.48272,170.708473 1132.23272,168.616473 C1133.97272,166.530473 1135.53272,165.137473 1138.14272,165.137473 C1140.75372,165.137473 1142.84372,166.356473 1144.57272,167.922473 C1146.31272,169.486473 1146.49272,170.183473 1146.84372,172.095473 C1147.18272,174.011473 1147.01272,176.181473 1147.01272,176.181473 L1137.62272,176.181473 L1137.62272,182.532473 L1152.92372,182.532473 L1152.40272,186.010473 C1152.40272,186.010473 1151.01272,188.447473 1149.27272,188.795473 C1147.53272,189.144473 1143.71372,189.314473 1143.71372,189.314473 C1143.71372,189.314473 1143.36272,192.794473 1145.44272,194.011473 C1147.53272,195.229473 1148.23272,195.054473 1149.10272,195.054473 C1149.96372,195.054473 1152.57272,193.836473 1152.57272,193.836473 C1152.57272,193.836473 1152.75372,196.796473 1153.27272,198.184473 C1153.79272,199.577473 1154.66272,200.969473 1155.36272,202.012473 C1156.05372,203.055473 1158.49272,204.273473 1158.49272,204.273473"></path>
  <path d="M1484.80422,204.273473 C1484.80422,204.273473 1487.24322,203.055473 1487.93422,202.012473 C1488.63422,200.969473 1489.50422,199.577473 1490.02422,198.184473 C1490.54422,196.796473 1490.72422,193.836473 1490.72422,193.836473 C1490.72422,193.836473 1493.32422,195.054473 1494.19422,195.054473 C1495.06422,195.054473 1495.76422,195.229473 1497.85422,194.011473 C1499.93422,192.794473 1499.59422,189.314473 1499.59422,189.314473 C1499.59422,189.314473 1495.76422,189.144473 1494.02422,188.795473 C1492.28322,188.447473 1490.89422,186.010473 1490.89422,186.010473 L1490.37422,182.532473 L1505.67422,182.532473 L1505.68422,176.181473 L1496.29422,176.181473 C1496.29422,176.181473 1496.11422,174.011473 1496.46422,172.095473 C1496.80422,170.183473 1496.98422,169.486473 1498.72422,167.922473 C1500.45322,166.356473 1502.54422,165.137473 1505.15422,165.137473 C1507.76422,165.137473 1509.33322,166.530473 1511.06422,168.616473 C1512.81422,170.708473 1514.02422,174.706473 1514.02422,174.706473 C1514.02422,174.706473 1516.98422,172.790473 1518.90422,170.708473 C1520.81422,168.616473 1521.85422,164.963473 1521.85422,162.008473 C1521.85422,159.052473 1519.24322,154.356473 1517.50422,152.440473 C1515.77422,150.528473 1511.41322,149.311473 1507.59422,149.311473 C1503.76422,149.311473 1500.80422,151.052473 1497.50422,153.659473 C1494.19422,156.269473 1492.63422,162.707473 1492.28322,164.963473 C1491.93422,167.229473 1491.06422,176.268473 1491.06422,176.268473 L1487.41322,176.268473 C1487.41322,176.268473 1487.59422,173.488473 1487.59422,170.708473 C1487.59422,167.922473 1488.11422,164.619473 1488.45322,162.008473 C1488.80422,159.398473 1491.06422,153.483473 1492.98422,150.877473 C1494.89422,148.268473 1496.80422,141.830473 1496.80422,138.351473 C1496.80422,134.873473 1494.02422,127.915473 1492.46422,125.133473 C1490.89422,122.354473 1484.28322,116.609473 1484.28322,116.609473 C1484.28322,116.609473 1477.67422,122.354473 1476.11422,125.133473 C1474.54422,127.915473 1471.76422,134.873473 1471.76422,138.351473 C1471.76422,141.830473 1473.67422,148.268473 1475.58322,150.877473 C1477.49322,153.483473 1479.76422,159.398473 1480.10422,162.008473 C1480.45322,164.619473 1480.97422,167.922473 1480.97422,170.708473 C1480.97422,173.488473 1481.15422,176.268473 1481.15422,176.268473 L1477.49322,176.268473 C1477.49322,176.268473 1476.63422,167.229473 1476.28322,164.963473 C1475.93422,162.707473 1474.37422,156.269473 1471.06422,153.659473 C1467.76422,151.052473 1464.80422,149.311473 1460.97422,149.311473 C1457.15422,149.311473 1452.80422,150.528473 1451.06422,152.440473 C1449.32422,154.356473 1446.71422,159.052473 1446.71422,162.008473 C1446.71422,164.963473 1447.75422,168.616473 1449.67422,170.708473 C1451.58322,172.790473 1454.54422,174.706473 1454.54422,174.706473 C1454.54422,174.706473 1455.76422,170.708473 1457.49322,168.616473 C1459.24322,166.530473 1460.80422,165.137473 1463.41322,165.137473 C1466.02422,165.137473 1468.11422,166.356473 1469.84422,167.922473 C1471.58322,169.486473 1471.76422,170.183473 1472.10422,172.095473 C1472.45322,174.011473 1472.28322,176.181473 1472.28322,176.181473 L1462.89422,176.181473 L1462.89422,182.532473 L1478.19422,182.532473 L1477.67422,186.010473 C1477.67422,186.010473 1476.28322,188.447473 1474.54422,188.795473 C1472.80422,189.144473 1468.97422,189.314473 1468.97422,189.314473 C1468.97422,189.314473 1468.63422,192.794473 1470.71422,194.011473 C1472.80422,195.229473 1473.50422,195.054473 1474.37422,195.054473 C1475.24322,195.054473 1477.84422,193.836473 1477.84422,193.836473 C1477.84422,193.836473 1478.02422,196.796473 1478.54422,198.184473 C1479.06422,199.577473 1479.93422,200.969473 1480.63422,202.012473 C1481.32422,203.055473 1483.76422,204.273473 1483.76422,204.273473"></path>
  <path d="M0.979916,167.043073 L0.979916,166.163073 C0.979916,73.247073 72.451916,0.423073 168.965916,0.423073 C234.094916,0.423073 275.975916,27.753073 304.186916,66.877073 L237.732916,118.333073 C219.517916,95.588073 198.557916,81.022073 168.061916,81.022073 C123.447916,81.022073 92.031916,118.793073 92.031916,165.259073 L92.031916,166.163073 C92.031916,213.958073 123.447916,251.308073 168.061916,251.308073 C201.298916,251.308073 220.881916,235.782073 240.005916,212.577073 L306.483916,259.936073 C276.419916,301.355073 235.919916,331.852073 165.328916,331.852073 C74.288916,331.852073 0.979916,262.220073 0.979916,167.043073"></path>
  <polygon points="483.845716 325.509973 572.652716 325.509973 572.652716 6.804973 483.845716 6.804973"></polygon>
  <polygon points="993.626416 6.803773 921.209416 208.502773 848.833416 6.803773 750.043416 6.803773 879.369416 327.778773 961.293416 327.778773 1090.58342 6.803773"></polygon>
  <polygon points="1267.96472 325.509973 1356.76472 325.509973 1356.76472 6.804973 1267.96472 6.804973"></polygon>
  <polygon points="1753.60402 6.803773 1696.69402 96.462773 1640.22402 6.803773 1538.70502 6.803773 1643.42402 163.428773 1534.16402 325.504773 1633.40402 325.504773 1694.88402 229.450773 1755.88402 325.504773 1857.39402 325.504773 1748.16402 162.524773 1852.86402 6.803773"></polygon>
</svg>