<svg viewBox="0 0 345 391" xmlns="http://www.w3.org/2000/svg">
  <path d="M9.6785,130.352 L9.6785,336.431 C10.3595,336.457 10.9885,336.499 11.6165,336.499 C48.3345,336.503 85.0525,336.507 121.7695,336.482 C122.8535,336.481 123.6225,336.78 124.3925,337.557 C131.7925,345.033 139.2315,352.47 146.6625,359.915 C146.8445,360.097 147.0715,360.234 147.4855,360.55 L147.4855,336.502 L149.5235,336.502 L332.5115,336.502 C332.9915,336.502 333.4715,336.518 333.9505,336.494 C334.2525,336.477 334.5505,336.399 334.8215,336.354 C335.0755,334.08 334.9675,10.558 334.7175,9.679 C334.5705,9.656 334.4145,9.608 334.2585,9.608 C266.5435,9.605 198.8275,9.604 131.1125,9.607 C130.9545,9.607 130.7975,9.647 130.6405,9.675 C130.6055,9.682 130.5735,9.713 130.5455,9.738 C130.5155,9.765 130.4925,9.798 130.3795,9.929 L130.3795,21.812 L130.3795,33.931 L130.3795,45.931 L130.3795,58.05 L130.3795,70.049 L130.3795,82.048 L130.3795,94.167 L130.3795,106.166 C130.3795,110.206 130.3805,114.246 130.3785,118.286 C130.3775,122.267 130.3725,126.248 130.3695,130.352 L9.6785,130.352 Z M0.0235,346.08 L0.0235,343.977 L0.0235,163.985 C0.0235,153.385 0.0415,142.786 0.0005,132.186 C-0.0045,130.94 0.3215,130.049 1.2285,129.144 C15.6845,114.751 30.0975,100.316 44.5245,85.894 C72.7825,57.643 101.0465,29.397 129.2855,1.127 C130.0875,0.324 130.8745,0 132.0045,0 C202.2415,0.025 272.4785,0.022 342.7165,0.026 C343.2615,0.026 343.8085,0.072 344.4125,0.1 L344.4125,345.965 C344.1095,346.003 343.8065,346.06 343.5025,346.075 C343.1025,346.093 342.7025,346.08 342.3025,346.08 L158.9505,346.08 L157.0345,346.08 L157.0345,383.841 C156.5075,383.343 156.1915,383.061 155.8925,382.761 C144.0665,370.887 132.2335,359.019 120.4305,347.122 C119.6615,346.346 118.8955,346.056 117.8095,346.056 C79.1725,346.083 40.5355,346.08 1.8995,346.08 L0.0235,346.08 Z"></path>
  <path d="M256.6477,390.2264 L248.0957,390.2264 L248.0957,364.7724 L247.8177,364.7374 C247.1177,367.4764 246.6787,370.2764 246.0937,373.0414 C245.4997,375.8554 244.9607,378.6814 244.3977,381.5014 C243.8347,384.3204 243.2717,387.1394 242.6987,390.0104 L235.6057,390.0104 C234.0637,381.6084 232.5237,373.2184 230.9917,364.8734 C230.8737,364.8294 230.8297,364.7954 230.8037,364.8064 C230.7737,364.8194 230.7487,364.8684 230.7427,364.9054 C230.7187,365.0614 230.6867,365.2194 230.6867,365.3774 C230.6697,373.5744 230.6557,381.7714 230.6397,389.9674 C230.6397,390.0054 230.6217,390.0434 230.5717,390.2324 C227.6907,390.3714 224.7677,390.2734 221.7717,390.2964 L221.7717,354.6324 L235.2917,354.6324 C236.5987,361.4614 237.7507,368.2874 239.0467,375.0844 C239.1507,375.0804 239.2537,375.0754 239.3567,375.0704 C240.6467,368.2664 241.9357,361.4614 243.2337,354.6134 L256.5967,354.6134 C256.8767,355.5044 256.9237,388.9704 256.6477,390.2264"></path>
  <path d="M288.5891,354.4324 L298.0141,354.4324 L298.0141,356.0254 C298.0141,364.1404 298.0201,372.2564 298.0071,380.3714 C298.0061,381.3544 298.1541,382.2794 298.6511,383.1354 C299.8211,385.1584 302.0531,385.1864 303.2411,383.1844 C303.7421,382.3414 303.9491,381.4314 303.9471,380.4404 C303.9321,372.2844 303.9391,364.1284 303.9391,355.9734 L303.9391,354.5734 C304.8951,354.3104 312.0461,354.2674 313.3561,354.5054 C313.3821,354.7974 313.4361,355.1094 313.4351,355.4194 C313.4011,363.2934 313.3621,371.1684 313.3191,379.0434 C313.3111,380.6504 313.0931,382.2274 312.6061,383.7654 C311.3961,387.5844 308.8551,389.9434 304.8911,390.5964 C302.3611,391.0134 299.7701,391.0224 297.2501,390.6284 C292.5501,389.8964 289.6481,386.8244 288.8881,382.0084 C288.6771,380.6734 288.6011,379.3054 288.5921,377.9524 C288.5531,371.6754 288.5621,365.3994 288.5481,359.1224 C288.5451,357.9634 288.5111,356.8054 288.5081,355.6464 C288.5071,355.2594 288.5581,354.8724 288.5891,354.4324"></path>
  <path d="M205.5598,362.7186 C205.4708,362.7216 205.3818,362.7236 205.2928,362.7266 C204.4888,367.4906 203.6838,372.2556 202.8668,377.0956 L208.0078,377.0956 C207.1948,372.2326 206.4488,367.4636 205.5598,362.7186 M220.3638,390.2996 L210.3008,390.2996 C209.9368,388.2396 209.5788,386.2106 209.2078,384.1196 L201.6708,384.1196 C201.3158,386.1516 200.9658,388.1496 200.5988,390.2536 L190.3088,390.2536 C193.3778,378.3476 196.4328,366.4946 199.4958,354.6126 L211.1758,354.6126 C214.2358,366.4966 217.2878,378.3486 220.3638,390.2996"></path>
  <path d="M341.2395,364.6111 C338.2445,364.7311 335.3185,364.9371 332.3695,364.6991 C332.2695,364.0681 332.1935,363.5581 332.1065,363.0501 C332.0595,362.7761 332.0155,362.4981 331.9365,362.2311 C331.4795,360.7011 330.5935,359.9311 329.3685,359.9851 C328.0445,360.0431 326.7275,361.2301 326.4675,362.6151 C326.2185,363.9351 326.4925,365.1181 327.6175,365.9261 C328.5865,366.6221 329.5995,367.2771 330.6645,367.8071 C331.8035,368.3751 333.0205,368.7921 334.2155,369.2451 C336.1825,369.9921 337.9885,370.9941 339.4325,372.5531 C341.0945,374.3471 342.0245,376.4451 342.1125,378.9241 C342.1675,380.4901 342.2025,382.0451 341.7645,383.5621 C340.8015,386.9101 338.5725,389.0191 335.2965,390.0681 C332.3385,391.0161 329.3005,390.9881 326.2715,390.6291 C324.8195,390.4571 323.3525,390.1101 321.9805,389.6041 C318.5315,388.3341 316.8025,385.7571 316.6975,382.0911 C316.6765,381.3401 316.6945,380.5861 316.6945,379.6771 C319.7495,379.6051 322.6815,379.6351 325.6325,379.6571 C325.7555,380.3581 325.8115,380.9551 325.9705,381.5241 C326.1315,382.0941 326.3235,382.6781 326.6235,383.1841 C327.3965,384.4901 328.7645,384.9891 330.1285,384.5441 C331.4895,384.0991 332.3785,382.7481 332.2505,381.2831 C332.1305,379.8951 331.5345,378.7271 330.4095,377.9181 C329.5715,377.3161 328.6595,376.7991 327.7295,376.3481 C326.3655,375.6871 324.9595,375.1101 323.5645,374.5101 C319.0265,372.5571 316.8895,369.1161 317.1835,364.1861 C317.2405,363.2331 317.3095,362.2641 317.5265,361.3391 C318.3385,357.8611 320.4695,355.5111 323.8815,354.4731 C327.5705,353.3511 331.3045,353.3721 334.9665,354.6261 C339.1975,356.0751 341.6275,359.9351 341.2395,364.6111"></path>
  <path d="M180.2522,375.7762 L189.1382,375.7762 C189.1382,377.5202 189.1802,379.1912 189.1212,380.8592 C189.0902,381.7672 188.9712,382.6912 188.7482,383.5722 C187.8982,386.9262 185.7422,389.0762 182.4312,389.9882 C179.1552,390.8902 175.8082,391.0882 172.4502,390.5322 C169.4292,390.0322 167.2762,388.3302 166.0182,385.5282 C165.1722,383.6472 164.7642,381.6472 164.5762,379.6132 C164.1552,375.0662 164.0862,370.5112 164.5582,365.9632 C164.7602,364.0112 165.1672,362.0982 165.8652,360.2552 C167.2142,356.6952 169.6972,354.5012 173.5162,354.0062 C176.2662,353.6512 179.0222,353.6572 181.7312,354.3712 C186.0232,355.5032 188.6472,358.4822 189.1822,362.9062 C189.3542,364.3262 189.3762,365.7632 189.4652,367.1492 C188.5412,367.4832 181.6572,367.5672 180.2352,367.2972 C180.2152,367.0102 180.1972,366.7032 180.1722,366.3952 C180.0802,365.2422 180.0572,364.0772 179.8622,362.9412 C179.7522,362.2952 179.4632,361.6242 179.0772,361.0902 C177.9052,359.4672 175.5052,359.7462 174.8942,361.6372 C174.4452,363.0262 174.1842,364.5232 174.1262,365.9822 C173.9392,370.7362 173.8122,375.4972 174.2992,380.2432 C174.3972,381.1892 174.6092,382.1372 174.8892,383.0472 C175.1762,383.9802 175.7932,384.6302 176.8662,384.7062 C177.9672,384.7832 178.6902,384.2552 179.1902,383.3382 C179.7962,382.2252 180.0242,381.0062 180.1202,379.7672 C180.1942,378.8122 180.1742,377.8502 180.1992,376.8912 C180.2092,376.5412 180.2312,376.1912 180.2522,375.7762"></path>
  <path d="M270.6057,369.9568 C271.5237,369.9568 272.3227,370.0438 273.0947,369.9378 C274.5797,369.7348 275.5367,368.8638 275.9177,367.3928 C276.2677,366.0448 276.2097,364.7068 275.7967,363.3878 C275.4957,362.4248 274.8877,361.6968 273.9277,361.3468 C272.8657,360.9588 271.7707,360.9208 270.6057,361.1648 L270.6057,369.9568 Z M261.2987,390.2318 L261.2987,354.5988 C261.7327,354.5638 262.1177,354.5078 262.5017,354.5068 C266.8987,354.5008 271.2957,354.4788 275.6927,354.5198 C276.7617,354.5298 277.8627,354.6278 278.8907,354.9018 C281.6067,355.6258 283.5107,357.3968 284.6717,359.9188 C286.3157,363.4888 286.3587,367.1298 284.7327,370.7088 C283.0367,374.4398 280.0167,376.3368 275.9637,376.5888 C274.6497,376.6708 273.3267,376.6128 272.0067,376.6188 C271.6127,376.6198 271.2177,376.6188 270.6797,376.6188 C270.5427,378.1748 270.6257,379.6438 270.6117,381.1068 C270.5967,382.6258 270.6077,384.1448 270.6077,385.6638 L270.6077,390.0618 C269.6887,390.3498 262.4327,390.4778 261.2987,390.2318 L261.2987,390.2318 Z"></path>
  <path d="M216.5276,216.0135 L187.2906,216.0135 C187.4186,215.4705 187.5106,215.0065 187.6346,214.5525 C195.1946,187.0485 202.7526,159.5425 210.3326,132.0445 C210.6216,130.9965 210.5936,130.0405 210.3096,129.0025 C202.7336,101.3375 195.1766,73.6665 187.6196,45.9955 C187.5056,45.5765 187.4196,45.1505 187.3206,44.7305 C188.2676,44.4635 213.7336,44.3495 216.5166,44.5915 C216.7076,44.9835 216.9236,45.4065 217.1216,45.8375 C229.8766,73.6235 242.6256,101.4115 255.4016,129.1865 C255.8616,130.1865 255.8426,130.9785 255.3796,131.9815 C242.6496,159.4715 229.9556,186.9765 217.2556,214.4805 C217.0206,214.9865 216.7766,215.4875 216.5276,216.0135"></path>
  <path d="M251.5862,44.5735 L280.8212,44.5735 C280.9962,44.9275 281.1962,45.3095 281.3762,45.7015 C294.1932,73.6345 307.0062,101.5695 319.8402,129.4935 C320.1902,130.2535 320.1942,130.8605 319.8422,131.6215 C306.9932,159.4075 294.1652,187.2035 281.3342,214.9975 C281.1842,215.3235 281.0202,215.6415 280.8382,216.0125 L251.6152,216.0125 C251.7242,215.5335 251.8032,215.1115 251.9172,214.6985 C255.7022,200.9065 259.4902,187.1145 263.2792,173.3235 C267.0802,159.4935 270.8782,145.6635 274.6982,131.8405 C274.9422,130.9555 274.9362,130.1465 274.6942,129.2645 C267.2082,101.9065 259.7382,74.5425 252.2682,47.1795 C252.0392,46.3405 251.8272,45.4965 251.5862,44.5735"></path>
  <path d="M101.0115,265.1844 C97.7535,283.7334 94.4945,302.2834 91.2315,320.8614 L77.8325,320.8614 C74.8665,302.3754 71.9065,283.9264 68.9465,265.4784 C68.8905,265.4694 68.8355,265.4594 68.7805,265.4514 C68.7345,265.6824 68.6605,265.9134 68.6495,266.1454 C68.6285,266.6244 68.6385,267.1054 68.6385,267.5844 L68.6385,319.6634 L68.6385,321.1544 C67.6395,321.4204 53.6095,321.4974 51.8935,321.2824 C51.8625,321.2574 51.8245,321.2374 51.8005,321.2074 C51.7755,321.1784 51.7525,321.1394 51.7485,321.1034 C51.7195,320.8274 51.6735,320.5494 51.6735,320.2734 C51.6765,295.1544 51.6835,270.0354 51.6945,244.9154 C51.6945,244.8044 51.7555,244.6924 51.8115,244.5024 L77.3135,244.5024 C79.6925,259.4294 82.0715,274.3534 84.4495,289.2774 C84.5595,289.2784 84.6695,289.2794 84.7785,289.2804 C87.2535,274.3514 89.7295,259.4234 92.2085,244.4674 L117.6135,244.4674 C117.8925,245.3514 117.9525,319.9204 117.6695,321.2914 L101.4355,321.2914 C101.2575,318.9404 101.3755,316.5964 101.3545,314.2564 C101.3335,311.9374 101.3495,309.6184 101.3495,307.2984 L101.3495,300.2184 L101.3495,293.2584 L101.3495,286.1784 L101.3495,279.2194 L101.3495,272.1394 L101.3495,265.1924 C101.2375,265.1894 101.1245,265.1864 101.0115,265.1844"></path>
  <path d="M201.6067,293.0516 C200.0017,282.3106 198.4117,271.6796 196.8097,260.9656 C196.2987,262.4126 191.8827,292.1476 192.0377,293.0516 L201.6067,293.0516 Z M225.2037,321.4696 L205.8917,321.4696 C205.1977,316.9176 204.5187,312.4736 203.8167,307.8716 C199.1047,307.8376 194.4467,307.8596 189.6547,307.8566 C188.9617,312.3976 188.2847,316.8436 187.5847,321.4376 L167.8757,321.4376 C173.7087,295.8076 179.5437,270.1666 185.3917,244.4666 L207.6477,244.4666 C213.4877,270.0816 219.3337,295.7206 225.2037,321.4696 L225.2037,321.4696 Z"></path>
  <path d="M273.3225,272.2088 L255.9555,272.2088 C255.9555,271.7268 255.9505,271.3008 255.9565,270.8758 C255.9895,268.2728 255.9215,265.6768 255.4875,263.1038 C255.2345,261.5988 254.8425,260.1338 254.0355,258.8138 C253.2405,257.5158 252.1295,256.6888 250.5835,256.4908 C248.7715,256.2588 247.3745,256.9548 246.5155,258.5898 C245.6455,260.2468 245.3415,262.0648 245.0985,263.8898 C244.4665,268.6568 244.3535,273.4548 244.3465,278.2548 C244.3415,282.6938 244.3315,287.1348 244.4365,291.5728 C244.5275,295.3678 244.6515,299.1738 245.3525,302.9178 C245.6075,304.2818 246.0025,305.6398 246.5035,306.9348 C247.6755,309.9648 251.7635,310.2548 253.5275,307.4348 C254.6555,305.6298 255.1425,303.6218 255.4945,301.5638 C256.0685,298.1958 256.0595,294.7968 255.9975,291.3958 C255.9885,290.9588 255.9965,290.5218 255.9965,290.0978 C256.8615,289.8328 270.7695,289.7368 272.7525,289.9848 C272.7915,290.2568 272.8715,290.5578 272.8725,290.8578 C272.8815,294.8978 273.0905,298.9518 272.8225,302.9748 C272.5055,307.7598 271.0195,312.2288 267.8025,315.9458 C265.6755,318.4038 262.9595,320.0028 259.8755,320.9118 C254.0825,322.6198 248.1645,323.0698 242.1955,322.1348 C236.9675,321.3148 233.0605,318.4988 230.5195,313.8318 C228.7185,310.5218 227.7905,306.9338 227.1825,303.2498 C226.2295,297.4728 225.9685,291.6408 225.9755,285.7988 C225.9815,281.3218 226.0215,276.8388 226.2575,272.3688 C226.5385,267.0108 227.2945,261.7058 229.0795,256.6058 C229.5005,255.4018 229.9945,254.2158 230.5505,253.0668 C233.1475,247.6948 237.3325,244.3448 243.2645,243.3688 C248.1655,242.5628 253.0725,242.6038 257.9055,243.8448 C265.5585,245.8108 270.1855,250.8168 272.1975,258.3568 C273.1945,262.0968 273.4325,265.9218 273.3885,269.7728 C273.3795,270.5618 273.3455,271.3488 273.3225,272.2088"></path>
  <path d="M142.823,277.5486 C143.916,277.6286 144.909,277.7786 145.899,277.7616 C149.789,277.6916 152.212,275.6766 152.978,271.9066 C153.404,269.8126 153.431,267.6936 153.094,265.5896 C152.926,264.5326 152.656,263.4746 152.276,262.4766 C151.7,260.9666 150.654,259.8316 149.134,259.1876 C147.112,258.3296 145.013,258.5076 142.823,258.6276 L142.823,277.5486 Z M142.906,292.0916 L142.906,321.3646 C136.889,321.4746 130.992,321.5826 125.122,321.6896 C124.848,320.7056 124.798,245.8616 125.072,244.3896 C125.543,244.3896 126.051,244.3886 126.558,244.3896 C135.475,244.3996 144.392,244.4246 153.308,244.4126 C159.1,244.4046 163.643,246.8226 167.06,251.4206 C169.52,254.7306 170.894,258.5066 171.531,262.5486 C172.443,268.3506 171.976,274.0246 169.731,279.4966 C168.705,281.9966 167.314,284.2756 165.453,286.2456 C161.76,290.1566 157.173,291.9806 151.836,292.0116 C149.357,292.0256 146.878,292.0116 144.399,292.0176 C143.969,292.0186 143.539,292.0596 142.906,292.0916 L142.906,292.0916 Z"></path>
  <polygon points="289.0696 321.5906 289.0696 261.4636 275.5086 261.4636 275.5086 244.5076 320.5786 244.5076 320.5786 261.4526 307.0486 261.4526 307.0486 321.5906"></polygon>
  <path d="M26.4602,244.4852 L44.3192,244.4852 L44.3192,321.1412 C43.4372,321.4522 28.7512,321.4492 26.5142,321.1462 C26.2722,320.3012 26.2042,246.0762 26.4602,244.4852"></path>
</svg>