<svg viewBox="0 0 312 129" xmlns="http://www.w3.org/2000/svg">
  <path d="M137.076,17.318 L140.181,17.318 L140.181,32.811 C140.181,36.814 137.316,40.854 130.903,40.854 C125.087,40.854 121.62,37.907 121.62,32.957 L121.62,17.318 L125.121,17.318 L125.121,32.523 C125.121,36.509 127.05,38.357 131.188,38.357 C135.254,38.357 137.076,35.429 137.076,32.523 L137.076,17.318"></path>
  <polyline points="150.14 17.318 147.131 17.318 147.131 40.418 150.134 40.418 150.134 22.757 163.962 40.418 167.127 40.418 167.127 17.318 164.115 17.318 164.115 35.198 150.14 17.318"></polyline>
  <polygon points="174.559 40.418 178.031 40.418 178.031 17.318 174.559 17.318"></polygon>
  <polyline points="182.927 17.318 186.463 17.318 192.168 34.647 198.452 17.318 201.416 17.318 192.607 40.418 190.83 40.418 182.927 17.318"></polyline>
  <polyline points="219.871 17.318 219.871 19.754 209.605 19.754 209.605 27.284 217.818 27.284 217.818 29.709 209.605 29.709 209.605 37.973 219.871 37.973 219.871 40.418 206.111 40.418 206.111 17.318 219.871 17.318"></polyline>
  <path d="M235.196,29.569 L235.583,29.457 C237.355,28.932 239.931,26.207 239.931,23.121 C239.931,20.324 237.355,17.318 231.71,17.318 L225.387,17.318 L225.387,40.418 L228.888,40.418 L228.888,19.483 L231.396,19.483 C235.135,19.483 236.462,21.634 236.462,23.477 C236.462,25.421 234.877,28.154 231.357,28.154 L230.486,28.154 L238.246,40.418 L242.38,40.418 L235.196,29.569"></path>
  <path d="M256.574,34.979 C256.574,32.809 254.518,31.573 252.143,30.137 L251.341,29.652 C248.699,28.045 245.885,26.049 245.885,22.768 C245.885,19.401 248.865,16.852 252.818,16.852 C256.205,16.852 258.087,17.642 258.954,18.021 C258.88,18.186 258.087,20.102 258.002,20.313 C257.24,19.963 255.623,19.282 253.421,19.282 C250.918,19.282 249.355,20.373 249.355,22.127 C249.355,24.262 251.116,25.348 253.353,26.721 L254.369,27.343 C254.365,27.343 254.512,27.435 254.512,27.435 C256.814,28.892 260.29,31.093 260.29,34.268 C260.29,38.206 256.083,40.854 252.143,40.854 C248.358,40.854 246.194,39.799 245.296,39.346 C245.377,39.162 246.189,37.337 246.277,37.135 C246.283,37.14 246.301,37.147 246.301,37.147 C247.314,37.6 249.208,38.431 252.215,38.431 C254.611,38.431 256.574,36.879 256.574,34.979"></path>
  <polygon points="266.158 40.418 269.621 40.418 269.621 17.318 266.158 17.318"></polygon>
  <polyline points="292.799 17.318 292.799 19.754 285.248 19.754 285.248 40.418 281.746 40.418 281.746 19.754 274.155 19.754 274.155 17.318 292.799 17.318"></polyline>
  <path d="M300.833,19.754 L300.833,27.284 L309.043,27.284 L309.043,29.709 L300.833,29.709 L300.833,37.973 L311.096,37.973 L311.096,40.418 L297.327,40.418 L297.327,17.318 L311.096,17.318 L311.096,19.754 L300.833,19.754"></path>
  <polyline points="307.658 9.631 309.018 11.666 303.08 14.91 302.268 13.651 307.658 9.631"></polyline>
  <path d="M224.311,49.582 L224.311,49.814 C229.255,51.721 226.53,57.976 224.39,63.386 L213.559,90.772 L197.74,49.582 L187.168,49.582 L187.168,49.814 C190.259,52.173 191.884,56.832 193.384,60.718 L208.463,99.746 L216.08,99.746 L236.193,49.582 L224.311,49.582"></path>
  <path d="M311.096,92.256 C308.176,93.595 304.961,94.227 301.384,94.227 L290.549,94.227 L290.549,49.582 L278.833,49.582 L278.833,49.814 C282.505,51.069 282.421,56.802 282.421,60.334 L282.415,99.483 C278.513,97.543 276.49,93.019 274.662,88.69 L258.095,49.582 L245.507,49.582 L245.507,49.814 C249.283,50.935 247.848,54.16 246.699,56.9 L233.393,88.69 C231.577,93.019 229.696,97.513 225.662,99.515 L225.662,99.746 L235.621,99.746 L240.73,86.483 L265.168,86.483 L270.439,99.746 L311.096,99.746 L311.096,92.256 Z M242.89,80.866 L252.833,56.066 L262.934,80.866 L242.89,80.866 L242.89,80.866 Z"></path>
  <path d="M191.599,88.69 L175.024,49.582 L162.443,49.582 L162.443,49.814 C166.218,50.935 164.783,54.16 163.638,56.9 L163.637,56.904 L163.635,56.9 L150.329,88.69 C149.668,90.265 148.998,91.86 148.219,93.351 C146.298,93.92 144.258,94.228 142.081,94.228 L131.244,94.228 L131.244,49.587 L119.53,49.587 L119.53,49.82 C123.204,51.074 123.12,56.807 123.12,60.338 L123.114,99.746 L152.557,99.746 L157.666,86.483 L182.108,86.483 L187.377,99.746 L199.412,99.746 L199.412,99.515 C195.246,97.408 193.434,93.036 191.599,88.69 Z M159.826,80.866 L169.768,56.066 L179.871,80.866 L159.826,80.866 L159.826,80.866 Z"></path>
  <path d="M0.787,0.915 L101.727,0.915 L101.727,100.817 C101.727,109.417 95.108,116.147 86.653,116.147 L62.91,116.147 C59.736,116.147 55.61,118.29 53.541,124.304 L52.397,127.628 C52.116,128.315 51.71,128.753 51.261,128.753 C50.804,128.753 50.405,128.315 50.123,127.628 L48.979,124.304 C46.91,118.29 42.779,116.147 39.605,116.147 L15.863,116.147 C7.41,116.147 0.787,109.417 0.787,100.817 L0.787,0.915 Z M60.205,49.581 L60.205,3.326 L42.305,3.326 L42.305,49.581 L3.198,49.581 L3.198,67.48 L42.305,67.48 L42.305,114.119 C45.701,115.074 49.328,117.899 51.261,123.522 C53.191,117.905 56.814,115.079 60.205,114.121 L60.205,67.48 L99.314,67.48 L99.314,49.581 L60.205,49.581 Z M17.156,23.078 C16.754,21.476 15.83,17.984 15.568,16.856 C15.527,16.685 15.63,16.389 15.971,16.375 C16.001,16.375 16.074,16.383 16.16,16.417 C16.559,16.568 17.703,17.001 18.063,17.131 L17.823,14.581 C17.769,13.948 18.278,13.901 18.387,14.472 C18.889,16.727 19.171,19.785 20.803,20.788 C20.676,19.71 19.611,11.701 19.459,10.629 C19.418,10.374 19.414,10.188 19.13,10.093 C18.926,10.023 18.745,10.106 18.559,10.292 C18.548,10.299 15.875,12.746 15.874,12.746 C15.771,12.876 15.596,12.938 15.435,12.891 C15.279,12.842 15.163,12.705 15.142,12.54 L14.675,8.229 C14.654,7.996 14.558,7.823 14.393,7.693 C14.234,7.569 14.021,7.501 13.788,7.501 C13.788,7.501 13.644,7.508 13.63,7.514 C13.63,7.514 13.605,7.521 13.603,7.521 C13.217,7.583 12.399,7.954 12.097,8.099 L11.986,9.04 L12.406,9.04 C12.519,9.04 12.633,9.096 12.708,9.186 C12.791,9.268 12.825,9.384 12.811,9.501 L12.44,12.54 C12.42,12.705 12.296,12.842 12.142,12.891 C11.979,12.938 11.804,12.876 11.701,12.746 C11.701,12.746 9.027,10.299 9.017,10.292 C8.831,10.106 8.648,10.023 8.446,10.093 C8.16,10.188 8.157,10.374 8.117,10.629 C7.965,11.701 6.899,19.71 6.772,20.788 C8.404,19.785 8.686,16.727 9.188,14.472 C9.298,13.901 9.806,13.948 9.752,14.581 L9.512,17.131 C9.873,17.001 11.017,16.568 11.416,16.417 C11.502,16.383 11.574,16.375 11.605,16.375 C11.945,16.389 12.048,16.685 12.007,16.856 C11.746,17.984 10.821,21.476 10.419,23.078 C10.706,23.184 11.344,23.235 11.66,23.208 C11.746,23.201 11.821,23.188 11.884,23.168 L11.928,23.134 L12.567,20.032 C12.684,19.462 13.155,19.505 13.1,20.136 L12.773,23.332 C12.859,23.497 13.334,24.281 13.788,24.281 C14.24,24.281 14.716,23.497 14.802,23.332 L14.476,20.136 C14.42,19.505 14.892,19.462 15.008,20.032 L15.647,23.134 L15.691,23.168 C15.753,23.188 15.829,23.201 15.915,23.208 C16.232,23.235 16.869,23.184 17.156,23.078 Z M35.075,23.078 C34.673,21.476 33.748,17.984 33.487,16.856 C33.446,16.685 33.549,16.389 33.89,16.375 C33.92,16.375 33.992,16.383 34.078,16.417 C34.477,16.568 35.622,17.001 35.982,17.131 L35.742,14.581 C35.688,13.948 36.197,13.901 36.306,14.472 C36.808,16.727 37.09,19.785 38.723,20.788 C38.595,19.71 37.529,11.701 37.378,10.629 C37.337,10.374 37.334,10.188 37.048,10.093 C36.846,10.023 36.664,10.106 36.477,10.292 C36.468,10.299 33.793,12.746 33.793,12.746 C33.69,12.876 33.515,12.938 33.353,12.891 C33.198,12.842 33.081,12.705 33.06,12.54 L32.593,8.229 C32.573,7.996 32.477,7.823 32.311,7.693 C32.154,7.569 31.94,7.501 31.706,7.501 C31.706,7.501 31.562,7.508 31.549,7.514 C31.549,7.514 31.524,7.521 31.521,7.521 C31.137,7.583 30.318,7.954 30.016,8.099 L29.906,9.04 L30.325,9.04 C30.438,9.04 30.552,9.096 30.627,9.186 C30.71,9.268 30.744,9.384 30.73,9.501 L30.359,12.54 C30.339,12.705 30.216,12.842 30.06,12.891 C29.898,12.938 29.724,12.876 29.621,12.746 C29.621,12.746 26.946,10.299 26.936,10.292 C26.75,10.106 26.568,10.023 26.365,10.093 C26.08,10.188 26.077,10.374 26.035,10.629 C25.884,11.701 24.818,19.71 24.691,20.788 C26.324,19.785 26.606,16.727 27.108,14.472 C27.216,13.901 27.726,13.948 27.672,14.581 L27.431,17.131 C27.792,17.001 28.936,16.568 29.335,16.417 C29.421,16.383 29.494,16.375 29.524,16.375 C29.864,16.389 29.967,16.685 29.927,16.856 C29.665,17.984 28.741,21.476 28.339,23.078 C28.626,23.184 29.263,23.235 29.58,23.208 C29.665,23.201 29.741,23.188 29.803,23.168 L29.847,23.134 L30.486,20.032 C30.603,19.462 31.074,19.505 31.019,20.136 L30.692,23.332 C30.778,23.497 31.253,24.281 31.706,24.281 C32.16,24.281 32.635,23.497 32.721,23.332 L32.394,20.136 C32.339,19.505 32.81,19.462 32.927,20.032 L33.566,23.134 L33.611,23.168 C33.673,23.188 33.748,23.201 33.834,23.208 C34.15,23.235 34.788,23.184 35.075,23.078 Z M17.156,44.201 C16.754,42.599 15.83,39.107 15.568,37.979 C15.527,37.808 15.63,37.512 15.971,37.498 C16.001,37.498 16.074,37.506 16.16,37.54 C16.559,37.691 17.703,38.124 18.063,38.254 L17.823,35.704 C17.769,35.071 18.278,35.024 18.387,35.595 C18.889,37.85 19.171,40.908 20.803,41.911 C20.676,40.833 19.611,32.824 19.459,31.752 C19.418,31.497 19.414,31.311 19.13,31.216 C18.926,31.146 18.745,31.228 18.559,31.415 C18.548,31.422 15.875,33.869 15.874,33.869 C15.771,33.999 15.596,34.061 15.435,34.014 C15.279,33.965 15.163,33.828 15.142,33.663 L14.675,29.352 C14.654,29.119 14.558,28.946 14.393,28.816 C14.234,28.692 14.021,28.624 13.788,28.624 C13.788,28.624 13.644,28.631 13.63,28.637 C13.63,28.637 13.605,28.644 13.603,28.644 C13.217,28.706 12.399,29.077 12.097,29.222 L11.986,30.163 L12.406,30.163 C12.519,30.163 12.633,30.219 12.708,30.309 C12.791,30.391 12.825,30.507 12.811,30.624 L12.44,33.663 C12.42,33.828 12.296,33.965 12.142,34.014 C11.979,34.061 11.804,33.999 11.701,33.869 C11.701,33.869 9.027,31.422 9.017,31.415 C8.831,31.228 8.648,31.146 8.446,31.216 C8.16,31.311 8.157,31.497 8.117,31.752 C7.965,32.824 6.899,40.833 6.772,41.911 C8.404,40.908 8.686,37.85 9.188,35.595 C9.298,35.024 9.806,35.071 9.752,35.704 L9.512,38.254 C9.873,38.124 11.017,37.691 11.416,37.54 C11.502,37.506 11.574,37.498 11.605,37.498 C11.945,37.512 12.048,37.808 12.007,37.979 C11.746,39.107 10.821,42.599 10.419,44.201 C10.706,44.307 11.344,44.358 11.66,44.331 C11.746,44.324 11.821,44.311 11.884,44.291 L11.928,44.257 L12.567,41.155 C12.684,40.585 13.155,40.628 13.1,41.259 L12.773,44.456 C12.859,44.62 13.334,45.404 13.788,45.404 C14.24,45.404 14.716,44.62 14.802,44.456 L14.476,41.259 C14.42,40.628 14.892,40.585 15.008,41.155 L15.647,44.257 L15.691,44.291 C15.753,44.311 15.829,44.324 15.915,44.331 C16.232,44.358 16.869,44.307 17.156,44.201 Z M35.075,44.201 C34.673,42.599 33.748,39.107 33.487,37.979 C33.446,37.808 33.549,37.512 33.89,37.498 C33.92,37.498 33.992,37.506 34.078,37.54 C34.477,37.691 35.622,38.124 35.982,38.254 L35.742,35.704 C35.688,35.071 36.197,35.024 36.306,35.595 C36.808,37.85 37.09,40.908 38.723,41.911 C38.595,40.833 37.529,32.824 37.378,31.752 C37.337,31.497 37.334,31.311 37.048,31.216 C36.846,31.146 36.664,31.228 36.477,31.415 C36.468,31.422 33.793,33.869 33.793,33.869 C33.69,33.999 33.515,34.061 33.353,34.014 C33.198,33.965 33.081,33.828 33.06,33.663 L32.593,29.352 C32.573,29.119 32.477,28.946 32.311,28.816 C32.154,28.692 31.94,28.624 31.706,28.624 C31.706,28.624 31.562,28.631 31.549,28.637 C31.549,28.637 31.524,28.644 31.521,28.644 C31.137,28.706 30.318,29.077 30.016,29.222 L29.906,30.163 L30.325,30.163 C30.438,30.163 30.552,30.219 30.627,30.309 C30.71,30.391 30.744,30.507 30.73,30.624 L30.359,33.663 C30.339,33.828 30.216,33.965 30.06,34.014 C29.898,34.061 29.724,33.999 29.621,33.869 C29.621,33.869 26.946,31.422 26.936,31.415 C26.75,31.228 26.568,31.146 26.365,31.216 C26.08,31.311 26.077,31.497 26.035,31.752 C25.884,32.824 24.818,40.833 24.691,41.911 C26.324,40.908 26.606,37.85 27.108,35.595 C27.216,35.024 27.726,35.071 27.672,35.704 L27.431,38.254 C27.792,38.124 28.936,37.691 29.335,37.54 C29.421,37.506 29.494,37.498 29.524,37.498 C29.864,37.512 29.967,37.808 29.927,37.979 C29.665,39.107 28.741,42.599 28.339,44.201 C28.626,44.307 29.263,44.358 29.58,44.331 C29.665,44.324 29.741,44.311 29.803,44.291 L29.847,44.257 L30.486,41.155 C30.603,40.585 31.074,40.628 31.019,41.259 L30.692,44.456 C30.778,44.62 31.253,45.404 31.706,45.404 C32.16,45.404 32.635,44.62 32.721,44.456 L32.394,41.259 C32.339,40.628 32.81,40.585 32.927,41.155 L33.566,44.257 L33.611,44.291 C33.673,44.311 33.748,44.324 33.834,44.331 C34.15,44.358 34.788,44.307 35.075,44.201 Z M74.163,23.078 C73.761,21.476 72.836,17.984 72.575,16.856 C72.534,16.685 72.637,16.389 72.977,16.375 C73.008,16.375 73.08,16.383 73.166,16.417 C73.565,16.568 74.709,17.001 75.07,17.131 L74.83,14.581 C74.776,13.948 75.285,13.901 75.394,14.472 C75.895,16.727 76.178,19.785 77.81,20.788 C77.683,19.71 76.617,11.701 76.466,10.629 C76.425,10.374 76.421,10.188 76.136,10.093 C75.933,10.023 75.751,10.106 75.565,10.292 C75.555,10.299 72.881,12.746 72.881,12.746 C72.778,12.876 72.602,12.938 72.441,12.891 C72.286,12.842 72.169,12.705 72.148,12.54 L71.681,8.229 C71.661,7.996 71.564,7.823 71.399,7.693 C71.241,7.569 71.028,7.501 70.794,7.501 C70.794,7.501 70.65,7.508 70.636,7.514 C70.636,7.514 70.612,7.521 70.609,7.521 C70.224,7.583 69.406,7.954 69.103,8.099 L68.993,9.04 L69.412,9.04 C69.526,9.04 69.64,9.096 69.715,9.186 C69.798,9.268 69.832,9.384 69.818,9.501 L69.447,12.54 C69.427,12.705 69.303,12.842 69.148,12.891 C68.986,12.938 68.81,12.876 68.708,12.746 C68.708,12.746 66.033,10.299 66.023,10.292 C65.837,10.106 65.655,10.023 65.453,10.093 C65.167,10.188 65.164,10.374 65.123,10.629 C64.972,11.701 63.906,19.71 63.779,20.788 C65.411,19.785 65.693,16.727 66.195,14.472 C66.304,13.901 66.812,13.948 66.759,14.581 L66.519,17.131 C66.879,17.001 68.023,16.568 68.423,16.417 C68.509,16.383 68.581,16.375 68.611,16.375 C68.952,16.389 69.055,16.685 69.014,16.856 C68.753,17.984 67.828,21.476 67.426,23.078 C67.713,23.184 68.351,23.235 68.667,23.208 C68.753,23.201 68.828,23.188 68.89,23.168 L68.935,23.134 L69.574,20.032 C69.69,19.462 70.162,19.505 70.106,20.136 L69.78,23.332 C69.866,23.497 70.341,24.281 70.794,24.281 C71.247,24.281 71.723,23.497 71.809,23.332 L71.482,20.136 C71.427,19.505 71.898,19.462 72.015,20.032 L72.654,23.134 L72.698,23.168 C72.76,23.188 72.835,23.201 72.921,23.208 C73.238,23.235 73.875,23.184 74.163,23.078 Z M92.082,23.078 C91.68,21.476 90.755,17.984 90.494,16.856 C90.453,16.685 90.556,16.389 90.896,16.375 C90.927,16.375 90.999,16.383 91.085,16.417 C91.484,16.568 92.628,17.001 92.989,17.131 L92.749,14.581 C92.695,13.948 93.204,13.901 93.312,14.472 C93.814,16.727 94.097,19.785 95.729,20.788 C95.602,19.71 94.536,11.701 94.385,10.629 C94.344,10.374 94.34,10.188 94.055,10.093 C93.852,10.023 93.67,10.106 93.484,10.292 C93.474,10.299 90.8,12.746 90.8,12.746 C90.696,12.876 90.521,12.938 90.359,12.891 C90.205,12.842 90.088,12.705 90.067,12.54 L89.6,8.229 C89.579,7.996 89.483,7.823 89.318,7.693 C89.161,7.569 88.947,7.501 88.713,7.501 C88.713,7.501 88.568,7.508 88.556,7.514 C88.556,7.514 88.531,7.521 88.527,7.521 C88.144,7.583 87.325,7.954 87.023,8.099 L86.913,9.04 L87.332,9.04 C87.445,9.04 87.558,9.096 87.634,9.186 C87.716,9.268 87.751,9.384 87.737,9.501 L87.367,12.54 C87.346,12.705 87.222,12.842 87.067,12.891 C86.905,12.938 86.73,12.876 86.628,12.746 C86.628,12.746 83.953,10.299 83.943,10.292 C83.757,10.106 83.575,10.023 83.372,10.093 C83.087,10.188 83.083,10.374 83.042,10.629 C82.891,11.701 81.825,19.71 81.698,20.788 C83.331,19.785 83.613,16.727 84.115,14.472 C84.223,13.901 84.732,13.948 84.679,14.581 L84.437,17.131 C84.799,17.001 85.943,16.568 86.342,16.417 C86.428,16.383 86.5,16.375 86.531,16.375 C86.871,16.389 86.974,16.685 86.934,16.856 C86.672,17.984 85.748,21.476 85.345,23.078 C85.632,23.184 86.269,23.235 86.586,23.208 C86.672,23.201 86.748,23.188 86.81,23.168 L86.853,23.134 L87.493,20.032 C87.609,19.462 88.081,19.505 88.025,20.136 L87.699,23.332 C87.785,23.497 88.261,24.281 88.713,24.281 C89.167,24.281 89.642,23.497 89.727,23.332 L89.401,20.136 C89.346,19.505 89.817,19.462 89.934,20.032 L90.573,23.134 L90.617,23.168 C90.679,23.188 90.755,23.201 90.841,23.208 C91.157,23.235 91.795,23.184 92.082,23.078 Z M74.163,44.201 C73.761,42.599 72.836,39.107 72.575,37.979 C72.534,37.808 72.637,37.512 72.977,37.498 C73.008,37.498 73.08,37.506 73.166,37.54 C73.565,37.691 74.709,38.124 75.07,38.254 L74.83,35.704 C74.776,35.071 75.285,35.024 75.394,35.595 C75.895,37.85 76.178,40.908 77.81,41.911 C77.683,40.833 76.617,32.824 76.466,31.752 C76.425,31.497 76.421,31.311 76.136,31.216 C75.933,31.146 75.751,31.228 75.565,31.415 C75.555,31.422 72.881,33.869 72.881,33.869 C72.778,33.999 72.602,34.061 72.441,34.014 C72.286,33.965 72.169,33.828 72.148,33.663 L71.681,29.352 C71.661,29.119 71.564,28.946 71.399,28.816 C71.241,28.692 71.028,28.624 70.794,28.624 C70.794,28.624 70.65,28.631 70.636,28.637 C70.636,28.637 70.612,28.644 70.609,28.644 C70.224,28.706 69.406,29.077 69.103,29.222 L68.993,30.163 L69.412,30.163 C69.526,30.163 69.64,30.219 69.715,30.309 C69.798,30.391 69.832,30.507 69.818,30.624 L69.447,33.663 C69.427,33.828 69.303,33.965 69.148,34.014 C68.986,34.061 68.81,33.999 68.708,33.869 C68.708,33.869 66.033,31.422 66.023,31.415 C65.837,31.228 65.655,31.146 65.453,31.216 C65.167,31.311 65.164,31.497 65.123,31.752 C64.972,32.824 63.906,40.833 63.779,41.911 C65.411,40.908 65.693,37.85 66.195,35.595 C66.304,35.024 66.812,35.071 66.759,35.704 L66.519,38.254 C66.879,38.124 68.023,37.691 68.423,37.54 C68.509,37.506 68.581,37.498 68.611,37.498 C68.952,37.512 69.055,37.808 69.014,37.979 C68.753,39.107 67.828,42.599 67.426,44.201 C67.713,44.307 68.351,44.358 68.667,44.331 C68.753,44.324 68.828,44.311 68.89,44.291 L68.935,44.257 L69.574,41.155 C69.69,40.585 70.162,40.628 70.106,41.259 L69.78,44.456 C69.866,44.62 70.341,45.404 70.794,45.404 C71.247,45.404 71.723,44.62 71.809,44.456 L71.482,41.259 C71.427,40.628 71.898,40.585 72.015,41.155 L72.654,44.257 L72.698,44.291 C72.76,44.311 72.835,44.324 72.921,44.331 C73.238,44.358 73.875,44.307 74.163,44.201 Z M92.082,44.201 C91.68,42.599 90.755,39.107 90.494,37.979 C90.453,37.808 90.556,37.512 90.896,37.498 C90.927,37.498 90.999,37.506 91.085,37.54 C91.484,37.691 92.628,38.124 92.989,38.254 L92.749,35.704 C92.695,35.071 93.204,35.024 93.312,35.595 C93.814,37.85 94.097,40.908 95.729,41.911 C95.602,40.833 94.536,32.824 94.385,31.752 C94.344,31.497 94.34,31.311 94.055,31.216 C93.852,31.146 93.67,31.228 93.484,31.415 C93.474,31.422 90.8,33.869 90.8,33.869 C90.696,33.999 90.521,34.061 90.359,34.014 C90.205,33.965 90.088,33.828 90.067,33.663 L89.6,29.352 C89.579,29.119 89.483,28.946 89.318,28.816 C89.161,28.692 88.947,28.624 88.713,28.624 C88.713,28.624 88.568,28.631 88.556,28.637 C88.556,28.637 88.531,28.644 88.527,28.644 C88.144,28.706 87.325,29.077 87.023,29.222 L86.913,30.163 L87.332,30.163 C87.445,30.163 87.558,30.219 87.634,30.309 C87.716,30.391 87.751,30.507 87.737,30.624 L87.367,33.663 C87.346,33.828 87.222,33.965 87.067,34.014 C86.905,34.061 86.73,33.999 86.628,33.869 C86.628,33.869 83.953,31.422 83.943,31.415 C83.757,31.228 83.575,31.146 83.372,31.216 C83.087,31.311 83.083,31.497 83.042,31.752 C82.891,32.824 81.825,40.833 81.698,41.911 C83.331,40.908 83.613,37.85 84.115,35.595 C84.223,35.024 84.732,35.071 84.679,35.704 L84.437,38.254 C84.799,38.124 85.943,37.691 86.342,37.54 C86.428,37.506 86.5,37.498 86.531,37.498 C86.871,37.512 86.974,37.808 86.934,37.979 C86.672,39.107 85.748,42.599 85.345,44.201 C85.632,44.307 86.269,44.358 86.586,44.331 C86.672,44.324 86.748,44.311 86.81,44.291 L86.853,44.257 L87.493,41.155 C87.609,40.585 88.081,40.628 88.025,41.259 L87.699,44.456 C87.785,44.62 88.261,45.404 88.713,45.404 C89.167,45.404 89.642,44.62 89.727,44.456 L89.401,41.259 C89.346,40.628 89.817,40.585 89.934,41.155 L90.573,44.257 L90.617,44.291 C90.679,44.311 90.755,44.324 90.841,44.331 C91.157,44.358 91.795,44.307 92.082,44.201 Z M17.156,87.232 C16.754,85.63 15.83,82.138 15.568,81.011 C15.527,80.839 15.63,80.543 15.971,80.529 C16.001,80.529 16.074,80.537 16.16,80.571 C16.559,80.722 17.703,81.155 18.063,81.285 L17.823,78.735 C17.769,78.103 18.278,78.056 18.387,78.626 C18.889,80.88 19.171,83.939 20.803,84.942 C20.676,83.864 19.611,75.855 19.459,74.783 C19.418,74.528 19.414,74.343 19.13,74.246 C18.926,74.178 18.745,74.26 18.559,74.445 C18.548,74.453 15.875,76.9 15.874,76.9 C15.771,77.03 15.596,77.093 15.435,77.045 C15.279,76.996 15.163,76.858 15.142,76.693 L14.675,72.384 C14.654,72.15 14.558,71.977 14.393,71.848 C14.234,71.724 14.021,71.654 13.788,71.654 C13.788,71.654 13.644,71.662 13.63,71.668 C13.63,71.668 13.605,71.676 13.603,71.676 C13.217,71.736 12.399,72.108 12.097,72.253 L11.986,73.194 L12.406,73.194 C12.519,73.194 12.633,73.25 12.708,73.339 C12.791,73.421 12.825,73.538 12.811,73.655 L12.44,76.693 C12.42,76.858 12.296,76.996 12.142,77.045 C11.979,77.093 11.804,77.03 11.701,76.9 C11.701,76.9 9.027,74.453 9.017,74.445 C8.831,74.26 8.648,74.178 8.446,74.246 C8.16,74.343 8.157,74.528 8.117,74.783 C7.965,75.855 6.899,83.864 6.772,84.942 C8.404,83.939 8.686,80.88 9.188,78.626 C9.298,78.056 9.806,78.103 9.752,78.735 L9.512,81.285 C9.873,81.155 11.017,80.722 11.416,80.571 C11.502,80.537 11.574,80.529 11.605,80.529 C11.945,80.543 12.048,80.839 12.007,81.011 C11.746,82.138 10.821,85.63 10.419,87.232 C10.706,87.338 11.344,87.389 11.66,87.362 C11.746,87.355 11.821,87.342 11.884,87.322 L11.928,87.288 L12.567,84.187 C12.684,83.616 13.155,83.659 13.1,84.29 L12.773,87.486 C12.859,87.651 13.334,88.435 13.788,88.435 C14.24,88.435 14.716,87.651 14.802,87.486 L14.476,84.29 C14.42,83.659 14.892,83.616 15.008,84.187 L15.647,87.288 L15.691,87.322 C15.753,87.342 15.829,87.355 15.915,87.362 C16.232,87.389 16.869,87.338 17.156,87.232 Z M35.075,87.232 C34.673,85.63 33.748,82.138 33.487,81.011 C33.446,80.839 33.549,80.543 33.89,80.529 C33.92,80.529 33.992,80.537 34.078,80.571 C34.477,80.722 35.622,81.155 35.982,81.285 L35.742,78.735 C35.688,78.103 36.197,78.056 36.306,78.626 C36.808,80.88 37.09,83.939 38.723,84.942 C38.595,83.864 37.529,75.855 37.378,74.783 C37.337,74.528 37.334,74.343 37.048,74.246 C36.846,74.178 36.664,74.26 36.477,74.445 C36.468,74.453 33.793,76.9 33.793,76.9 C33.69,77.03 33.515,77.093 33.353,77.045 C33.198,76.996 33.081,76.858 33.06,76.693 L32.593,72.384 C32.573,72.15 32.477,71.977 32.311,71.848 C32.154,71.724 31.94,71.654 31.706,71.654 C31.706,71.654 31.562,71.662 31.549,71.668 C31.549,71.668 31.524,71.676 31.521,71.676 C31.137,71.736 30.318,72.108 30.016,72.253 L29.906,73.194 L30.325,73.194 C30.438,73.194 30.552,73.25 30.627,73.339 C30.71,73.421 30.744,73.538 30.73,73.655 L30.359,76.693 C30.339,76.858 30.216,76.996 30.06,77.045 C29.898,77.093 29.724,77.03 29.621,76.9 C29.621,76.9 26.946,74.453 26.936,74.445 C26.75,74.26 26.568,74.178 26.365,74.246 C26.08,74.343 26.077,74.528 26.035,74.783 C25.884,75.855 24.818,83.864 24.691,84.942 C26.324,83.939 26.606,80.88 27.108,78.626 C27.216,78.056 27.726,78.103 27.672,78.735 L27.431,81.285 C27.792,81.155 28.936,80.722 29.335,80.571 C29.421,80.537 29.494,80.529 29.524,80.529 C29.864,80.543 29.967,80.839 29.927,81.011 C29.665,82.138 28.741,85.63 28.339,87.232 C28.626,87.338 29.263,87.389 29.58,87.362 C29.665,87.355 29.741,87.342 29.803,87.322 L29.847,87.288 L30.486,84.187 C30.603,83.616 31.074,83.659 31.019,84.29 L30.692,87.486 C30.778,87.651 31.253,88.435 31.706,88.435 C32.16,88.435 32.635,87.651 32.721,87.486 L32.394,84.29 C32.339,83.659 32.81,83.616 32.927,84.187 L33.566,87.288 L33.611,87.322 C33.673,87.342 33.748,87.355 33.834,87.362 C34.15,87.389 34.788,87.338 35.075,87.232 Z M17.156,108.355 C16.754,106.753 15.83,103.261 15.568,102.134 C15.527,101.962 15.63,101.666 15.971,101.652 C16.001,101.652 16.074,101.66 16.16,101.694 C16.559,101.845 17.703,102.278 18.063,102.408 L17.823,99.858 C17.769,99.226 18.278,99.179 18.387,99.749 C18.889,102.003 19.171,105.062 20.803,106.065 C20.676,104.987 19.611,96.978 19.459,95.906 C19.418,95.651 19.414,95.466 19.13,95.37 C18.926,95.301 18.745,95.383 18.559,95.568 C18.548,95.576 15.875,98.023 15.874,98.023 C15.771,98.153 15.596,98.216 15.435,98.168 C15.279,98.119 15.163,97.981 15.142,97.816 L14.675,93.507 C14.654,93.273 14.558,93.101 14.393,92.971 C14.234,92.847 14.021,92.777 13.788,92.777 C13.788,92.777 13.644,92.785 13.63,92.791 C13.63,92.791 13.605,92.799 13.603,92.799 C13.217,92.859 12.399,93.231 12.097,93.376 L11.986,94.317 L12.406,94.317 C12.519,94.317 12.633,94.373 12.708,94.462 C12.791,94.545 12.825,94.661 12.811,94.778 L12.44,97.816 C12.42,97.981 12.296,98.119 12.142,98.168 C11.979,98.216 11.804,98.153 11.701,98.023 C11.701,98.023 9.027,95.576 9.017,95.568 C8.831,95.383 8.648,95.301 8.446,95.37 C8.16,95.466 8.157,95.651 8.117,95.906 C7.965,96.978 6.899,104.987 6.772,106.065 C8.404,105.062 8.686,102.003 9.188,99.749 C9.298,99.179 9.806,99.226 9.752,99.858 L9.512,102.408 C9.873,102.278 11.017,101.845 11.416,101.694 C11.502,101.66 11.574,101.652 11.605,101.652 C11.945,101.666 12.048,101.962 12.007,102.134 C11.746,103.261 10.821,106.753 10.419,108.355 C10.706,108.461 11.344,108.513 11.66,108.485 C11.746,108.478 11.821,108.465 11.884,108.445 L11.928,108.41 L12.567,105.31 C12.684,104.739 13.155,104.782 13.1,105.413 L12.773,108.609 C12.859,108.774 13.334,109.559 13.788,109.559 C14.24,109.559 14.716,108.774 14.802,108.609 L14.476,105.413 C14.42,104.782 14.892,104.739 15.008,105.31 L15.647,108.41 L15.691,108.445 C15.753,108.465 15.829,108.478 15.915,108.485 C16.232,108.513 16.869,108.461 17.156,108.355 Z M35.075,108.355 C34.673,106.753 33.748,103.261 33.487,102.134 C33.446,101.962 33.549,101.666 33.89,101.652 C33.92,101.652 33.992,101.66 34.078,101.694 C34.477,101.845 35.622,102.278 35.982,102.408 L35.742,99.858 C35.688,99.226 36.197,99.179 36.306,99.749 C36.808,102.003 37.09,105.062 38.723,106.065 C38.595,104.987 37.529,96.978 37.378,95.906 C37.337,95.651 37.334,95.466 37.048,95.37 C36.846,95.301 36.664,95.383 36.477,95.568 C36.468,95.576 33.793,98.023 33.793,98.023 C33.69,98.153 33.515,98.216 33.353,98.168 C33.198,98.119 33.081,97.981 33.06,97.816 L32.593,93.507 C32.573,93.273 32.477,93.101 32.311,92.971 C32.154,92.847 31.94,92.777 31.706,92.777 C31.706,92.777 31.562,92.785 31.549,92.791 C31.549,92.791 31.524,92.799 31.521,92.799 C31.137,92.859 30.318,93.231 30.016,93.376 L29.906,94.317 L30.325,94.317 C30.438,94.317 30.552,94.373 30.627,94.462 C30.71,94.545 30.744,94.661 30.73,94.778 L30.359,97.816 C30.339,97.981 30.216,98.119 30.06,98.168 C29.898,98.216 29.724,98.153 29.621,98.023 C29.621,98.023 26.946,95.576 26.936,95.568 C26.75,95.383 26.568,95.301 26.365,95.37 C26.08,95.466 26.077,95.651 26.035,95.906 C25.884,96.978 24.818,104.987 24.691,106.065 C26.324,105.062 26.606,102.003 27.108,99.749 C27.216,99.179 27.726,99.226 27.672,99.858 L27.431,102.408 C27.792,102.278 28.936,101.845 29.335,101.694 C29.421,101.66 29.494,101.652 29.524,101.652 C29.864,101.666 29.967,101.962 29.927,102.134 C29.665,103.261 28.741,106.753 28.339,108.355 C28.626,108.461 29.263,108.513 29.58,108.485 C29.665,108.478 29.741,108.465 29.803,108.445 L29.847,108.41 L30.486,105.31 C30.603,104.739 31.074,104.782 31.019,105.413 L30.692,108.609 C30.778,108.774 31.253,109.559 31.706,109.559 C32.16,109.559 32.635,108.774 32.721,108.609 L32.394,105.413 C32.339,104.782 32.81,104.739 32.927,105.31 L33.566,108.41 L33.611,108.445 C33.673,108.465 33.748,108.478 33.834,108.485 C34.15,108.513 34.788,108.461 35.075,108.355 Z M74.163,87.232 C73.761,85.63 72.836,82.138 72.575,81.011 C72.534,80.839 72.637,80.543 72.977,80.529 C73.008,80.529 73.08,80.537 73.166,80.571 C73.565,80.722 74.709,81.155 75.07,81.285 L74.83,78.735 C74.776,78.103 75.285,78.056 75.394,78.626 C75.895,80.88 76.178,83.939 77.81,84.942 C77.683,83.864 76.617,75.855 76.466,74.783 C76.425,74.528 76.421,74.343 76.136,74.246 C75.933,74.178 75.751,74.26 75.565,74.445 C75.555,74.453 72.881,76.9 72.881,76.9 C72.778,77.03 72.602,77.093 72.441,77.045 C72.286,76.996 72.169,76.858 72.148,76.693 L71.681,72.384 C71.661,72.15 71.564,71.977 71.399,71.848 C71.241,71.724 71.028,71.654 70.794,71.654 C70.794,71.654 70.65,71.662 70.636,71.668 C70.636,71.668 70.612,71.676 70.609,71.676 C70.224,71.736 69.406,72.108 69.103,72.253 L68.993,73.194 L69.412,73.194 C69.526,73.194 69.64,73.25 69.715,73.339 C69.798,73.421 69.832,73.538 69.818,73.655 L69.447,76.693 C69.427,76.858 69.303,76.996 69.148,77.045 C68.986,77.093 68.81,77.03 68.708,76.9 C68.708,76.9 66.033,74.453 66.023,74.445 C65.837,74.26 65.655,74.178 65.453,74.246 C65.167,74.343 65.164,74.528 65.123,74.783 C64.972,75.855 63.906,83.864 63.779,84.942 C65.411,83.939 65.693,80.88 66.195,78.626 C66.304,78.056 66.812,78.103 66.759,78.735 L66.519,81.285 C66.879,81.155 68.023,80.722 68.423,80.571 C68.509,80.537 68.581,80.529 68.611,80.529 C68.952,80.543 69.055,80.839 69.014,81.011 C68.753,82.138 67.828,85.63 67.426,87.232 C67.713,87.338 68.351,87.389 68.667,87.362 C68.753,87.355 68.828,87.342 68.89,87.322 L68.935,87.288 L69.574,84.187 C69.69,83.616 70.162,83.659 70.106,84.29 L69.78,87.486 C69.866,87.651 70.341,88.435 70.794,88.435 C71.247,88.435 71.723,87.651 71.809,87.486 L71.482,84.29 C71.427,83.659 71.898,83.616 72.015,84.187 L72.654,87.288 L72.698,87.322 C72.76,87.342 72.835,87.355 72.921,87.362 C73.238,87.389 73.875,87.338 74.163,87.232 Z M92.082,87.232 C91.68,85.63 90.755,82.138 90.494,81.011 C90.453,80.839 90.556,80.543 90.896,80.529 C90.927,80.529 90.999,80.537 91.085,80.571 C91.484,80.722 92.628,81.155 92.989,81.285 L92.749,78.735 C92.695,78.103 93.204,78.056 93.312,78.626 C93.814,80.88 94.097,83.939 95.729,84.942 C95.602,83.864 94.536,75.855 94.385,74.783 C94.344,74.528 94.34,74.343 94.055,74.246 C93.852,74.178 93.67,74.26 93.484,74.445 C93.474,74.453 90.8,76.9 90.8,76.9 C90.696,77.03 90.521,77.093 90.359,77.045 C90.205,76.996 90.088,76.858 90.067,76.693 L89.6,72.384 C89.579,72.15 89.483,71.977 89.318,71.848 C89.161,71.724 88.947,71.654 88.713,71.654 C88.713,71.654 88.568,71.662 88.556,71.668 C88.556,71.668 88.531,71.676 88.527,71.676 C88.144,71.736 87.325,72.108 87.023,72.253 L86.913,73.194 L87.332,73.194 C87.445,73.194 87.558,73.25 87.634,73.339 C87.716,73.421 87.751,73.538 87.737,73.655 L87.367,76.693 C87.346,76.858 87.222,76.996 87.067,77.045 C86.905,77.093 86.73,77.03 86.628,76.9 C86.628,76.9 83.953,74.453 83.943,74.445 C83.757,74.26 83.575,74.178 83.372,74.246 C83.087,74.343 83.083,74.528 83.042,74.783 C82.891,75.855 81.825,83.864 81.698,84.942 C83.331,83.939 83.613,80.88 84.115,78.626 C84.223,78.056 84.732,78.103 84.679,78.735 L84.437,81.285 C84.799,81.155 85.943,80.722 86.342,80.571 C86.428,80.537 86.5,80.529 86.531,80.529 C86.871,80.543 86.974,80.839 86.934,81.011 C86.672,82.138 85.748,85.63 85.345,87.232 C85.632,87.338 86.269,87.389 86.586,87.362 C86.672,87.355 86.748,87.342 86.81,87.322 L86.853,87.288 L87.493,84.187 C87.609,83.616 88.081,83.659 88.025,84.29 L87.699,87.486 C87.785,87.651 88.261,88.435 88.713,88.435 C89.167,88.435 89.642,87.651 89.727,87.486 L89.401,84.29 C89.346,83.659 89.817,83.616 89.934,84.187 L90.573,87.288 L90.617,87.322 C90.679,87.342 90.755,87.355 90.841,87.362 C91.157,87.389 91.795,87.338 92.082,87.232 Z M74.163,108.355 C73.761,106.753 72.836,103.261 72.575,102.134 C72.534,101.962 72.637,101.666 72.977,101.652 C73.008,101.652 73.08,101.66 73.166,101.694 C73.565,101.845 74.709,102.278 75.07,102.408 L74.83,99.858 C74.776,99.226 75.285,99.179 75.394,99.749 C75.895,102.003 76.178,105.062 77.81,106.065 C77.683,104.987 76.617,96.978 76.466,95.906 C76.425,95.651 76.421,95.466 76.136,95.37 C75.933,95.301 75.751,95.383 75.565,95.568 C75.555,95.576 72.881,98.023 72.881,98.023 C72.778,98.153 72.602,98.216 72.441,98.168 C72.286,98.119 72.169,97.981 72.148,97.816 L71.681,93.507 C71.661,93.273 71.564,93.101 71.399,92.971 C71.241,92.847 71.028,92.777 70.794,92.777 C70.794,92.777 70.65,92.785 70.636,92.791 C70.636,92.791 70.612,92.799 70.609,92.799 C70.224,92.859 69.406,93.231 69.103,93.376 L68.993,94.317 L69.412,94.317 C69.526,94.317 69.64,94.373 69.715,94.462 C69.798,94.545 69.832,94.661 69.818,94.778 L69.447,97.816 C69.427,97.981 69.303,98.119 69.148,98.168 C68.986,98.216 68.81,98.153 68.708,98.023 C68.708,98.023 66.033,95.576 66.023,95.568 C65.837,95.383 65.655,95.301 65.453,95.37 C65.167,95.466 65.164,95.651 65.123,95.906 C64.972,96.978 63.906,104.987 63.779,106.065 C65.411,105.062 65.693,102.003 66.195,99.749 C66.304,99.179 66.812,99.226 66.759,99.858 L66.519,102.408 C66.879,102.278 68.023,101.845 68.423,101.694 C68.509,101.66 68.581,101.652 68.611,101.652 C68.952,101.666 69.055,101.962 69.014,102.134 C68.753,103.261 67.828,106.753 67.426,108.355 C67.713,108.461 68.351,108.513 68.667,108.485 C68.753,108.478 68.828,108.465 68.89,108.445 L68.935,108.41 L69.574,105.31 C69.69,104.739 70.162,104.782 70.106,105.413 L69.78,108.609 C69.866,108.774 70.341,109.559 70.794,109.559 C71.247,109.559 71.723,108.774 71.809,108.609 L71.482,105.413 C71.427,104.782 71.898,104.739 72.015,105.31 L72.654,108.41 L72.698,108.445 C72.76,108.465 72.835,108.478 72.921,108.485 C73.238,108.513 73.875,108.461 74.163,108.355 Z M92.082,108.355 C91.68,106.753 90.755,103.261 90.494,102.134 C90.453,101.962 90.556,101.666 90.896,101.652 C90.927,101.652 90.999,101.66 91.085,101.694 C91.484,101.845 92.628,102.278 92.989,102.408 L92.749,99.858 C92.695,99.226 93.204,99.179 93.312,99.749 C93.814,102.003 94.097,105.062 95.729,106.065 C95.602,104.987 94.536,96.978 94.385,95.906 C94.344,95.651 94.34,95.466 94.055,95.37 C93.852,95.301 93.67,95.383 93.484,95.568 C93.474,95.576 90.8,98.023 90.8,98.023 C90.696,98.153 90.521,98.216 90.359,98.168 C90.205,98.119 90.088,97.981 90.067,97.816 L89.6,93.507 C89.579,93.273 89.483,93.101 89.318,92.971 C89.161,92.847 88.947,92.777 88.713,92.777 C88.713,92.777 88.568,92.785 88.556,92.791 C88.556,92.791 88.531,92.799 88.527,92.799 C88.144,92.859 87.325,93.231 87.023,93.376 L86.913,94.317 L87.332,94.317 C87.445,94.317 87.558,94.373 87.634,94.462 C87.716,94.545 87.751,94.661 87.737,94.778 L87.367,97.816 C87.346,97.981 87.222,98.119 87.067,98.168 C86.905,98.216 86.73,98.153 86.628,98.023 C86.628,98.023 83.953,95.576 83.943,95.568 C83.757,95.383 83.575,95.301 83.372,95.37 C83.087,95.466 83.083,95.651 83.042,95.906 C82.891,96.978 81.825,104.987 81.698,106.065 C83.331,105.062 83.613,102.003 84.115,99.749 C84.223,99.179 84.732,99.226 84.679,99.858 L84.437,102.408 C84.799,102.278 85.943,101.845 86.342,101.694 C86.428,101.66 86.5,101.652 86.531,101.652 C86.871,101.666 86.974,101.962 86.934,102.134 C86.672,103.261 85.748,106.753 85.345,108.355 C85.632,108.461 86.269,108.513 86.586,108.485 C86.672,108.478 86.748,108.465 86.81,108.445 L86.853,108.41 L87.493,105.31 C87.609,104.739 88.081,104.782 88.025,105.413 L87.699,108.609 C87.785,108.774 88.261,109.559 88.713,109.559 C89.167,109.559 89.642,108.774 89.727,108.609 L89.401,105.413 C89.346,104.782 89.817,104.739 89.934,105.31 L90.573,108.41 L90.617,108.445 C90.679,108.465 90.755,108.478 90.841,108.485 C91.157,108.513 91.795,108.461 92.082,108.355 Z"></path>
  <path d="M51.257,33.045 C50.486,33.045 49.818,32.642 49.433,32.037 C49.129,32.193 48.789,32.283 48.428,32.283 C47.305,32.283 46.384,31.429 46.269,30.336 C45.097,30.312 44.143,29.347 44.143,28.166 C44.143,27.628 44.344,27.134 44.672,26.752 C45.195,26.123 47.092,23.842 47.122,23.806 L47.122,22.581 C47.122,22 47.589,21.524 48.169,21.524 L49.249,21.524 C49.37,21.407 50.227,20.556 50.233,20.54 C50.504,20.264 50.866,20.113 51.257,20.113 C51.648,20.113 52.009,20.264 52.28,20.54 C52.286,20.556 53.144,21.407 53.265,21.524 L54.345,21.524 C54.926,21.524 55.392,22 55.392,22.581 L55.392,23.806 C55.422,23.842 57.318,26.123 57.842,26.752 C58.17,27.134 58.371,27.628 58.371,28.166 C58.371,29.347 57.417,30.312 56.244,30.336 C56.13,31.429 55.208,32.283 54.086,32.283 C53.725,32.283 53.384,32.193 53.08,32.037 C52.695,32.642 52.027,33.045 51.257,33.045 Z M51.257,32.332 C51.763,32.302 52.199,32.024 52.436,31.606 L52.02,27.67 C52.009,27.519 52.116,27.384 52.269,27.361 C52.424,27.339 52.568,27.443 52.597,27.597 L53.291,31.381 C53.505,31.501 53.751,31.573 54.017,31.573 C54.781,31.573 55.404,30.983 55.467,30.231 L53.856,26.487 C53.791,26.34 53.859,26.168 54.006,26.104 C54.148,26.042 54.313,26.102 54.383,26.239 L56.123,29.626 C56.933,29.626 57.589,28.973 57.589,28.166 C57.589,27.859 57.561,27.598 57.405,27.384 L54.64,24.07 L54.64,22.575 C54.64,22.409 54.522,22.268 54.345,22.268 L52.954,22.268 L51.75,21.06 C51.624,20.935 51.44,20.859 51.257,20.859 C51.073,20.859 50.89,20.935 50.764,21.06 L49.56,22.268 L48.169,22.268 C47.992,22.268 47.874,22.409 47.874,22.575 L47.874,24.07 L45.108,27.384 C44.952,27.598 44.925,27.859 44.925,28.166 C44.925,28.973 45.581,29.626 46.39,29.626 C46.39,29.626 46.384,29.626 46.39,29.626 L48.131,26.239 C48.2,26.102 48.365,26.042 48.507,26.104 C48.654,26.168 48.722,26.34 48.658,26.487 L47.046,30.231 C47.109,30.983 47.732,31.573 48.497,31.573 C48.762,31.573 49.009,31.501 49.222,31.381 L49.917,27.597 C49.945,27.443 50.09,27.339 50.246,27.361 C50.397,27.384 50.505,27.519 50.494,27.67 L50.077,31.606 C50.314,32.024 50.751,32.302 51.257,32.332 Z"></path>
  <path d="M51.257,65.122 C50.486,65.122 49.818,64.719 49.433,64.114 C49.129,64.271 48.789,64.361 48.428,64.361 C47.305,64.361 46.384,63.506 46.269,62.414 C45.097,62.39 44.143,61.424 44.143,60.244 C44.143,59.705 44.344,59.212 44.672,58.829 C45.195,58.2 47.092,55.919 47.122,55.883 L47.122,54.658 C47.122,54.077 47.589,53.602 48.169,53.602 L49.249,53.602 C49.37,53.484 50.227,52.633 50.233,52.618 C50.504,52.341 50.866,52.19 51.257,52.19 C51.648,52.19 52.009,52.341 52.28,52.618 C52.286,52.633 53.144,53.484 53.265,53.602 L54.345,53.602 C54.926,53.602 55.392,54.077 55.392,54.658 L55.392,55.883 C55.422,55.919 57.318,58.2 57.842,58.829 C58.17,59.212 58.371,59.705 58.371,60.244 C58.371,61.424 57.417,62.39 56.244,62.414 C56.13,63.506 55.208,64.361 54.086,64.361 C53.725,64.361 53.384,64.271 53.08,64.114 C52.695,64.719 52.027,65.122 51.257,65.122 Z M51.257,64.409 C51.763,64.379 52.199,64.102 52.436,63.684 L52.02,59.747 C52.009,59.597 52.116,59.461 52.269,59.438 C52.424,59.416 52.568,59.52 52.597,59.674 L53.291,63.458 C53.505,63.578 53.751,63.65 54.017,63.65 C54.781,63.65 55.404,63.06 55.467,62.308 L53.856,58.565 C53.791,58.417 53.859,58.246 54.006,58.181 C54.148,58.119 54.313,58.179 54.383,58.316 L56.123,61.703 C56.933,61.703 57.589,61.05 57.589,60.244 C57.589,59.937 57.561,59.675 57.405,59.461 L54.64,56.147 L54.64,54.652 C54.64,54.486 54.522,54.345 54.345,54.345 L52.954,54.345 L51.75,53.138 C51.624,53.012 51.44,52.936 51.257,52.936 C51.073,52.936 50.89,53.012 50.764,53.138 L49.56,54.345 L48.169,54.345 C47.992,54.345 47.874,54.486 47.874,54.652 L47.874,56.147 L45.108,59.461 C44.952,59.675 44.925,59.937 44.925,60.244 C44.925,61.05 45.581,61.703 46.39,61.703 C46.39,61.703 46.384,61.703 46.39,61.703 L48.131,58.316 C48.2,58.179 48.365,58.119 48.507,58.181 C48.654,58.246 48.722,58.417 48.658,58.565 L47.046,62.308 C47.109,63.06 47.732,63.65 48.497,63.65 C48.762,63.65 49.009,63.578 49.222,63.458 L49.917,59.674 C49.945,59.52 50.09,59.416 50.246,59.438 C50.397,59.461 50.505,59.597 50.494,59.747 L50.077,63.684 C50.314,64.102 50.751,64.379 51.257,64.409 Z"></path>
  <path d="M22.751,65.122 C21.98,65.122 21.312,64.719 20.928,64.114 C20.624,64.271 20.283,64.361 19.923,64.361 C18.8,64.361 17.879,63.506 17.765,62.414 C16.591,62.39 15.637,61.424 15.637,60.244 C15.637,59.705 15.839,59.212 16.167,58.829 C16.69,58.2 18.586,55.919 18.616,55.883 L18.616,54.658 C18.616,54.077 19.083,53.602 19.664,53.602 L20.744,53.602 C20.864,53.484 21.722,52.633 21.728,52.618 C21.999,52.341 22.36,52.19 22.751,52.19 C23.143,52.19 23.504,52.341 23.774,52.618 C23.781,52.633 24.639,53.484 24.759,53.602 L25.839,53.602 C26.42,53.602 26.886,54.077 26.886,54.658 L26.886,55.883 C26.917,55.919 28.812,58.2 29.336,58.829 C29.664,59.212 29.866,59.705 29.866,60.244 C29.866,61.424 28.912,62.39 27.738,62.414 C27.624,63.506 26.703,64.361 25.58,64.361 C25.219,64.361 24.879,64.271 24.575,64.114 C24.19,64.719 23.521,65.122 22.751,65.122 Z M22.751,64.409 C23.257,64.379 23.693,64.102 23.931,63.684 L23.515,59.747 C23.503,59.597 23.611,59.461 23.763,59.438 C23.918,59.416 24.062,59.52 24.091,59.674 L24.786,63.458 C24.999,63.578 25.246,63.65 25.511,63.65 C26.275,63.65 26.898,63.06 26.962,62.308 L25.351,58.565 C25.286,58.417 25.354,58.246 25.501,58.181 C25.644,58.119 25.808,58.179 25.877,58.316 L27.618,61.703 C28.428,61.703 29.084,61.05 29.084,60.244 C29.084,59.937 29.057,59.675 28.9,59.461 L26.134,56.147 L26.134,54.652 C26.134,54.486 26.017,54.345 25.839,54.345 L24.449,54.345 L23.245,53.138 C23.119,53.012 22.935,52.936 22.751,52.936 C22.568,52.936 22.384,53.012 22.258,53.138 L21.054,54.345 L19.664,54.345 C19.486,54.345 19.369,54.486 19.369,54.652 L19.369,56.147 L16.602,59.461 C16.446,59.675 16.419,59.937 16.419,60.244 C16.419,61.05 17.075,61.703 17.885,61.703 C17.885,61.703 17.879,61.703 17.885,61.703 L19.625,58.316 C19.695,58.179 19.859,58.119 20.002,58.181 C20.149,58.246 20.217,58.417 20.152,58.565 L18.541,62.308 C18.604,63.06 19.227,63.65 19.992,63.65 C20.257,63.65 20.503,63.578 20.717,63.458 L21.412,59.674 C21.44,59.52 21.585,59.416 21.74,59.438 C21.892,59.461 21.999,59.597 21.988,59.747 L21.572,63.684 C21.81,64.102 22.246,64.379 22.751,64.409 Z"></path>
  <path d="M79.758,65.122 C78.987,65.122 78.319,64.719 77.934,64.114 C77.63,64.271 77.29,64.361 76.929,64.361 C75.806,64.361 74.885,63.506 74.771,62.414 C73.597,62.39 72.643,61.424 72.643,60.244 C72.643,59.705 72.845,59.212 73.173,58.829 C73.696,58.2 75.593,55.919 75.623,55.883 L75.623,54.658 C75.623,54.077 76.089,53.602 76.67,53.602 L77.75,53.602 C77.871,53.484 78.728,52.633 78.734,52.618 C79.005,52.341 79.366,52.19 79.758,52.19 C80.149,52.19 80.51,52.341 80.781,52.618 C80.787,52.633 81.644,53.484 81.765,53.602 L82.845,53.602 C83.427,53.602 83.893,54.077 83.893,54.658 L83.893,55.883 C83.923,55.919 85.818,58.2 86.343,58.829 C86.671,59.212 86.872,59.705 86.872,60.244 C86.872,61.424 85.918,62.39 84.744,62.414 C84.63,63.506 83.709,64.361 82.587,64.361 C82.226,64.361 81.885,64.271 81.581,64.114 C81.196,64.719 80.528,65.122 79.758,65.122 Z M80.937,63.684 L80.52,59.747 C80.509,59.597 80.617,59.461 80.769,59.438 C80.925,59.416 81.069,59.52 81.097,59.674 L81.792,63.458 C82.006,63.578 82.252,63.65 82.517,63.65 C83.282,63.65 83.905,63.06 83.968,62.308 L82.357,58.565 C82.292,58.417 82.36,58.246 82.507,58.181 C82.649,58.119 82.814,58.179 82.884,58.316 L84.624,61.703 C85.434,61.703 86.09,61.05 86.09,60.244 C86.09,59.937 86.062,59.675 85.906,59.461 L83.141,56.147 L83.141,54.652 C83.141,54.486 83.023,54.345 82.845,54.345 L81.455,54.345 L80.251,53.138 C80.125,53.012 79.941,52.936 79.758,52.936 C79.574,52.936 79.391,53.012 79.264,53.138 L78.06,54.345 L76.67,54.345 C76.492,54.345 76.375,54.486 76.375,54.652 L76.375,56.147 L73.609,59.461 C73.453,59.675 73.425,59.937 73.425,60.244 C73.425,61.05 74.081,61.703 74.892,61.703 L76.632,58.316 C76.701,58.179 76.865,58.119 77.008,58.181 C77.155,58.246 77.223,58.417 77.158,58.565 L75.547,62.308 C75.61,63.06 76.233,63.65 76.998,63.65 C77.263,63.65 77.51,63.578 77.724,63.458 L78.418,59.674 C78.446,59.52 78.591,59.416 78.746,59.438 C78.898,59.461 79.006,59.597 78.995,59.747 L78.578,63.684 C78.815,64.102 79.252,64.379 79.758,64.409 C80.263,64.379 80.7,64.102 80.937,63.684 Z"></path>
  <path d="M51.257,97.199 C50.486,97.199 49.818,96.796 49.433,96.191 C49.129,96.347 48.789,96.437 48.428,96.437 C47.305,96.437 46.384,95.582 46.269,94.49 C45.097,94.466 44.143,93.5 44.143,92.32 C44.143,91.781 44.344,91.288 44.672,90.906 C45.195,90.277 47.092,87.996 47.122,87.959 L47.122,86.734 C47.122,86.153 47.589,85.678 48.169,85.678 L49.249,85.678 C49.37,85.56 50.227,84.709 50.233,84.694 C50.504,84.417 50.866,84.267 51.257,84.267 C51.648,84.267 52.009,84.417 52.28,84.694 C52.286,84.709 53.144,85.56 53.265,85.678 L54.345,85.678 C54.926,85.678 55.392,86.153 55.392,86.734 L55.392,87.959 C55.422,87.996 57.318,90.277 57.842,90.906 C58.17,91.288 58.371,91.781 58.371,92.32 C58.371,93.5 57.417,94.466 56.244,94.49 C56.13,95.582 55.208,96.437 54.086,96.437 C53.725,96.437 53.384,96.347 53.08,96.191 C52.695,96.796 52.027,97.199 51.257,97.199 Z M51.257,96.485 C51.763,96.456 52.199,96.179 52.436,95.761 L52.02,91.824 C52.009,91.673 52.116,91.538 52.269,91.515 C52.424,91.492 52.568,91.597 52.597,91.75 L53.291,95.535 C53.505,95.655 53.751,95.727 54.017,95.727 C54.781,95.727 55.404,95.137 55.467,94.385 L53.856,90.641 C53.791,90.493 53.859,90.322 54.006,90.257 C54.148,90.195 54.313,90.256 54.383,90.394 L56.123,93.78 C56.933,93.78 57.589,93.127 57.589,92.32 C57.589,92.014 57.561,91.752 57.405,91.538 L54.64,88.224 L54.64,86.728 C54.64,86.563 54.522,86.421 54.345,86.421 L52.954,86.421 L51.75,85.214 C51.624,85.088 51.44,85.013 51.257,85.013 C51.073,85.013 50.89,85.088 50.764,85.214 L49.56,86.421 L48.169,86.421 C47.992,86.421 47.874,86.563 47.874,86.728 L47.874,88.224 L45.108,91.538 C44.952,91.752 44.925,92.014 44.925,92.32 C44.925,93.127 45.581,93.78 46.39,93.78 C46.39,93.78 46.384,93.78 46.39,93.78 L48.131,90.394 C48.2,90.256 48.365,90.195 48.507,90.257 C48.654,90.322 48.722,90.493 48.658,90.641 L47.046,94.385 C47.109,95.137 47.732,95.727 48.497,95.727 C48.762,95.727 49.009,95.655 49.222,95.535 L49.917,91.75 C49.945,91.597 50.09,91.492 50.246,91.515 C50.397,91.538 50.505,91.673 50.494,91.824 L50.077,95.761 C50.314,96.179 50.751,96.456 51.257,96.485 Z"></path>
</svg>