<svg viewBox="0 0 512 512" xmlns="http://www.w3.org/2000/svg">
  <path d="M385.05199,253.839099 C385.05199,253.839099 436.3076,181.603712 441.400854,157.864209 C443.097653,149.386427 439.363838,144.636241 430.536768,144.636241 L386.071212,144.636241 C375.887563,144.636241 372.153748,149.045088 369.098939,155.489116 C369.098939,155.489116 345.057862,206.668583 315.806313,238.918717 C306.416026,249.34456 301.641547,252.482311 296.458236,252.482311 C292.276992,252.482311 290.348617,249.000365 290.348617,239.595682 L290.348617,157.185815 C290.348617,145.655974 288.990606,142.264005 279.487391,142.264005 L208.204698,142.264005 C202.772656,142.264005 199.377629,145.418894 199.377629,149.723482 C199.377629,160.582069 216.011116,163.034285 216.011116,192.455159 L216.011116,253.160705 C216.011116,265.370367 215.332111,270.117697 209.561279,270.117697 C194.287234,270.117697 157.966882,217.552878 137.601011,157.864209 C133.526979,145.655974 129.114159,142.264005 117.572499,142.264005 L73.1069423,142.264005 C66.6571065,142.264005 61.9040694,146.671423 61.9040694,153.114023 C61.9040694,164.983775 75.821534,219.925115 130.47217,293.518717 C167.13131,343.031477 215.332111,369.823039 258.779873,369.823039 C285.256791,369.823039 291.706628,365.415621 291.706628,354.222835 L291.706628,316.239915 C291.706628,306.743828 295.440442,302.674893 300.871055,302.674893 C306.980673,302.674893 317.764707,304.635808 342.962238,329.466455 C372.832753,357.954716 374.869769,369.823039 391.164467,369.823039 L441.060637,369.823039 C446.152462,369.823039 450.904069,367.449374 450.904069,358.971592 C450.904069,347.778807 436.3076,327.771184 413.904712,304.030253 C404.740285,291.822018 389.805027,278.596907 385.05199,272.49279 C378.264795,265.370367 380.300382,261.298576 385.05199,253.839099"/>
</svg>