<svg viewBox="0 0 32 32" xmlns="http://www.w3.org/2000/svg">
  <path d="M2.00000034,15.9999998 C2.00000034,14.7803787 2.15837788,13.5607575 2.47513294,12.3746328 L19.6253716,29.5248659 C14.9547332,30.7721617 9.76471495,29.5637042 6.10050539,25.8994946 L2.00000034,29.9999997 L2.00000034,15.9999998 Z M3.93750903,8.88725596 C4.52493377,7.8926428 5.24593256,6.9550777 6.10050539,6.10050487 C6.95507822,5.24593204 7.89264332,4.52493325 8.88725647,3.93750851 L28.0624915,23.1127436 C27.4750668,24.1073567 26.754068,25.0449218 25.8994952,25.8994946 C25.0449223,26.7540675 24.1073572,27.4750663 23.1127441,28.062491 L3.93750903,8.88725596 Z M12.3746333,2.47513242 C17.0452673,1.22783783 22.2352856,2.43629531 25.8994952,6.10050487 C29.5637047,9.76471443 30.7721622,14.9547327 29.5248676,19.6253667 L12.374629,2.47513359 Z"></path>
</svg>