<svg viewBox="0 0 32 32" xmlns="http://www.w3.org/2000/svg">
  <path d="M1.00000014,15.9999997 C1.00000014,14.6932628 1.16969035,13.3865259 1.50907078,12.115678 L19.8843267,30.490928 C14.8800713,31.8273163 9.31933733,30.5325404 5.39339846,26.6066016 L1.00000014,30.9999999 L1.00000014,15.9999997 Z M3.07590233,8.3792027 C3.70528599,7.31354574 4.4777847,6.30901169 5.39339846,5.39339793 C6.30901222,4.47778417 7.31354627,3.70528546 8.37920324,3.07590179 L28.9240982,23.6207968 C28.2947146,24.6864537 27.5222159,25.6909878 26.6066021,26.6066016 C25.6909883,27.5222153 24.6864543,28.294714 23.6207973,28.9240977 L3.07590233,8.3792027 Z M12.1156785,1.50907025 C17.1199293,0.172683161 22.6806632,1.46745905 26.6066021,5.39339793 C30.532541,9.3193368 31.8273169,14.8800708 30.4909298,19.8843215 L12.1156738,1.50907149 Z"></path>
</svg>