<svg viewBox="0 0 64 64" xmlns="http://www.w3.org/2000/svg">
  <path d="M5.22586005e-10,32 C5.22830945e-10,29.2122946 0.362005789,26.4245892 1.08601737,23.713447 L40.286563,62.91398 C29.6108182,65.7649417 17.7479192,63.0027532 9.372583,54.627417 L0,64 L0,32 Z M4.4285913,15.7422998 C5.77127643,13.4688983 7.41927366,11.3258923 9.372583,9.372583 C11.3258923,7.41927366 13.4688983,5.77127643 15.7422998,4.4285913 L59.5714087,48.2577002 C58.2287236,50.5311017 56.5807263,52.6741077 54.627417,54.627417 C52.6741077,56.5807263 50.5311017,58.2287236 48.2577002,59.5714087 L4.4285913,15.7422998 Z M23.713447,1.08601737 C34.3891818,-1.76494173 46.2520808,0.997246818 54.627417,9.372583 C63.0027532,17.7479192 65.7649417,29.6108182 62.9139826,40.286553 L23.713437,1.08602002 Z"></path>
</svg>