<svg viewBox="0 0 277 64" xmlns="http://www.w3.org/2000/svg">
  <path d="M1.05788062,23.599174 L40.2918948,62.7149265 C37.5839642,63.4825276 34.9004111,63.9007587 32.0319954,63.9007587 C23.186021,63.9007587 14.9784317,60.1949066 9.41325842,54.6465083 L0.0314875653,64 C0.0314875653,64 0,36.374465 0,31.9653162 C-3.55551722e-15,29.1055467 0.287958863,26.2989422 1.05788062,23.599174 Z M4.31074926,15.745441 C7.18322779,10.978821 11.008967,7.16461364 15.4416036,4.64813804 L59.3007348,48.3750663 C56.776651,52.7943417 52.9509118,56.6085491 48.1698805,59.4723692 L4.31074926,15.745441 Z M31.9309305,0 C49.6218635,-3.54479995e-15 64,14.2608723 64,31.8984802 C64,34.7582497 63.671412,37.4737142 62.9014903,40.1734824 L23.6674761,1.05772989 C26.3754067,0.290128878 29.0625149,-3.54479995e-15 31.9309305,0 Z"></path>
  <path d="M98.3320261,18.4261438 C102.821809,18.4261438 106.091493,19.2975948 108.141176,21.0405229 C110.19086,22.783451 111.215686,25.4605484 111.215686,29.0718954 C111.215686,32.6832425 110.162973,35.3254818 108.057516,36.9986928 C105.952059,38.6719038 102.738148,39.5084967 98.4156863,39.5084967 L94.5254902,39.5084967 L94.5254902,47.6653595 L88,47.6653595 L88,18.4261438 L98.3320261,18.4261438 Z M98.9176471,33.8614379 C101.092821,33.8614379 102.570802,33.4222266 103.351634,32.5437908 C104.132466,31.6653551 104.522876,30.3825792 104.522876,28.6954248 C104.522876,27.0082704 104.013948,25.8091539 102.996078,25.0980392 C101.978208,24.3869245 100.395653,24.0313725 98.248366,24.0313725 L94.5254902,24.0313725 L94.5254902,33.8614379 L98.9176471,33.8614379 Z M120.418301,36.4130719 C120.418301,38.253604 120.941171,39.7524997 121.986928,40.9098039 C123.032685,42.0671082 124.371234,42.6457516 126.002614,42.6457516 C127.633995,42.6457516 128.972544,42.0671082 130.018301,40.9098039 C131.064058,39.7524997 131.586928,38.253604 131.586928,36.4130719 C131.586928,34.5725398 131.064058,33.0666725 130.018301,31.8954248 C128.972544,30.7241772 127.633995,30.1385621 126.002614,30.1385621 C124.371234,30.1385621 123.032685,30.7241772 121.986928,31.8954248 C120.941171,33.0666725 120.418301,34.5725398 120.418301,36.4130719 Z M137.903268,36.4130719 C137.903268,39.6758333 136.773868,42.4226468 134.515033,44.6535948 C132.256198,46.8845427 129.418753,48 126.002614,48 C122.586475,48 119.749031,46.8845427 117.490196,44.6535948 C115.231361,42.4226468 114.101961,39.6758333 114.101961,36.4130719 C114.101961,33.1503105 115.231361,30.3965254 117.490196,28.151634 C119.749031,25.9067426 122.586475,24.7843137 126.002614,24.7843137 C129.418753,24.7843137 132.256198,25.9067426 134.515033,28.151634 C136.773868,30.3965254 137.903268,33.1503105 137.903268,36.4130719 Z M148.820915,47.6653595 L142.546405,47.6653595 L142.546405,16.627451 L148.820915,16.627451 L148.820915,47.6653595 Z M161.035294,47.6653595 L154.760784,47.6653595 L154.760784,16.627451 L161.035294,16.627451 L161.035294,47.6653595 Z M186.467974,44.4026144 C183.930271,46.8008835 180.953394,48 177.537255,48 C174.121116,48 171.297615,46.9472872 169.066667,44.8418301 C166.835719,42.7363729 165.720261,39.9128717 165.720261,36.3712418 C165.720261,32.8296119 166.856634,30.0130824 169.129412,27.9215686 C171.40219,25.8300549 174.086259,24.7843137 177.181699,24.7843137 C180.27714,24.7843137 182.905436,25.7185092 185.066667,27.5869281 C187.227898,29.455347 188.308497,32.0208987 188.308497,35.2836601 L188.308497,38.6300654 L171.911111,38.6300654 C172.106319,39.8570867 172.747707,40.8609983 173.835294,41.6418301 C174.922881,42.4226619 176.149884,42.8130719 177.51634,42.8130719 C179.719401,42.8130719 181.532019,42.0740815 182.954248,40.5960784 L186.467974,44.4026144 Z M181.950327,34.1542484 C181.810893,32.8156796 181.308937,31.7838816 180.444444,31.0588235 C179.579952,30.3337654 178.527239,29.9712418 177.286275,29.9712418 C176.04531,29.9712418 174.908938,30.3477087 173.877124,31.1006536 C172.845311,31.8535985 172.245752,32.8714533 172.078431,34.1542484 L181.950327,34.1542484 Z M199.100654,35.1163399 L199.100654,47.6653595 L192.826144,47.6653595 L192.826144,25.1607843 L199.100654,25.1607843 L199.100654,27.6705882 C200.996959,25.7463956 203.130271,24.7843137 205.500654,24.7843137 C207.871036,24.7843137 209.857944,25.6209067 211.461438,27.2941176 C213.064932,28.9673286 213.866667,31.1982431 213.866667,33.9869281 L213.866667,47.6653595 L207.592157,47.6653595 L207.592157,34.9490196 C207.592157,31.4910502 206.323324,29.7620915 203.785621,29.7620915 C202.530713,29.7620915 201.43617,30.215246 200.501961,31.1215686 C199.567751,32.0278912 199.100654,33.3594683 199.100654,35.1163399 Z M225.830065,47.6653595 L219.555556,47.6653595 L219.555556,25.1607843 L225.830065,25.1607843 L225.830065,47.6653595 Z M220.057516,22.3163399 C219.360345,21.5912818 219.011765,20.7128592 219.011765,19.6810458 C219.011765,18.6492323 219.367317,17.7777813 220.078431,17.0666667 C220.789546,16.355552 221.660997,16 222.69281,16 C223.724624,16 224.596075,16.355552 225.30719,17.0666667 C226.018304,17.7777813 226.373856,18.6492323 226.373856,19.6810458 C226.373856,20.7128592 226.018304,21.5843102 225.30719,22.2954248 C224.596075,23.0065395 223.724624,23.3620915 222.69281,23.3620915 C221.660997,23.3620915 220.782574,23.0135111 220.057516,22.3163399 Z M231.351634,30.3477124 L231.351634,25.1607843 L249.505882,25.1607843 L249.505882,30.054902 L238.588235,42.4366013 L250.133333,42.4366013 L250.133333,47.6653595 L230.556863,47.6653595 L230.556863,42.4784314 L241.181699,30.3477124 L231.351634,30.3477124 Z M274.394771,44.4026144 C271.857068,46.8008835 268.880191,48 265.464052,48 C262.047913,48 259.224412,46.9472872 256.993464,44.8418301 C254.762516,42.7363729 253.647059,39.9128717 253.647059,36.3712418 C253.647059,32.8296119 254.783431,30.0130824 257.056209,27.9215686 C259.328987,25.8300549 262.013056,24.7843137 265.108497,24.7843137 C268.203937,24.7843137 270.832233,25.7185092 272.993464,27.5869281 C275.154695,29.455347 276.235294,32.0208987 276.235294,35.2836601 L276.235294,38.6300654 L259.837908,38.6300654 C260.033116,39.8570867 260.674504,40.8609983 261.762092,41.6418301 C262.849679,42.4226619 264.076682,42.8130719 265.443137,42.8130719 C267.646198,42.8130719 269.458816,42.0740815 270.881046,40.5960784 L274.394771,44.4026144 Z M269.877124,34.1542484 C269.73769,32.8156796 269.235734,31.7838816 268.371242,31.0588235 C267.506749,30.3337654 266.454037,29.9712418 265.213072,29.9712418 C263.972107,29.9712418 262.835735,30.3477087 261.803922,31.1006536 C260.772108,31.8535985 260.17255,32.8714533 260.005229,34.1542484 L269.877124,34.1542484 Z"></path>
</svg>