<svg viewBox="0 0 189 32" xmlns="http://www.w3.org/2000/svg">
  <path d="M10.3320261,2.42614379 C14.8218089,2.42614379 18.091493,3.29759477 20.1411765,5.04052288 C22.1908599,6.78345098 23.2156863,9.46054839 23.2156863,13.0718954 C23.2156863,16.6832425 22.1629735,19.3254818 20.0575163,20.9986928 C17.9520592,22.6719038 14.738148,23.5084967 10.4156863,23.5084967 L6.5254902,23.5084967 L6.5254902,31.6653595 L0,31.6653595 L0,2.42614379 L10.3320261,2.42614379 Z M10.9176471,17.8614379 C13.0928213,17.8614379 14.5708022,17.4222266 15.351634,16.5437908 C16.1324658,15.6653551 16.5228758,14.3825792 16.5228758,12.6954248 C16.5228758,11.0082704 16.0139484,9.80915388 14.9960784,9.09803922 C13.9782084,8.38692455 12.3956534,8.03137255 10.248366,8.03137255 L6.5254902,8.03137255 L6.5254902,17.8614379 L10.9176471,17.8614379 Z M32.4183007,20.4130719 C32.4183007,22.253604 32.9411712,23.7524997 33.9869281,24.9098039 C35.032685,26.0671082 36.3712337,26.6457516 38.0026144,26.6457516 C39.6339951,26.6457516 40.9725438,26.0671082 42.0183007,24.9098039 C43.0640575,23.7524997 43.5869281,22.253604 43.5869281,20.4130719 C43.5869281,18.5725398 43.0640575,17.0666725 42.0183007,15.8954248 C40.9725438,14.7241772 39.6339951,14.1385621 38.0026144,14.1385621 C36.3712337,14.1385621 35.032685,14.7241772 33.9869281,15.8954248 C32.9411712,17.0666725 32.4183007,18.5725398 32.4183007,20.4130719 Z M49.903268,20.4130719 C49.903268,23.6758333 48.7738675,26.4226468 46.5150327,28.6535948 C44.2561979,30.8845427 41.4187535,32 38.0026144,32 C34.5864753,32 31.7490309,30.8845427 29.4901961,28.6535948 C27.2313613,26.4226468 26.1019608,23.6758333 26.1019608,20.4130719 C26.1019608,17.1503105 27.2313613,14.3965254 29.4901961,12.151634 C31.7490309,9.90674259 34.5864753,8.78431373 38.0026144,8.78431373 C41.4187535,8.78431373 44.2561979,9.90674259 46.5150327,12.151634 C48.7738675,14.3965254 49.903268,17.1503105 49.903268,20.4130719 Z M60.820915,31.6653595 L54.5464052,31.6653595 L54.5464052,0.62745098 L60.820915,0.62745098 L60.820915,31.6653595 Z M73.0352941,31.6653595 L66.7607843,31.6653595 L66.7607843,0.62745098 L73.0352941,0.62745098 L73.0352941,31.6653595 Z M98.4679739,28.4026144 C95.9302705,30.8008835 92.953394,32 89.5372549,32 C86.1211158,32 83.2976146,30.9472872 81.0666667,28.8418301 C78.8357187,26.7363729 77.7202614,23.9128717 77.7202614,20.3712418 C77.7202614,16.8296119 78.8566335,14.0130824 81.1294118,11.9215686 C83.40219,9.8300549 86.086259,8.78431373 89.1816993,8.78431373 C92.2771397,8.78431373 94.9054358,9.71850918 97.0666667,11.5869281 C99.2278975,13.455347 100.308497,16.0208987 100.308497,19.2836601 L100.308497,22.6300654 L83.9111111,22.6300654 C84.1063191,23.8570867 84.747707,24.8609983 85.8352941,25.6418301 C86.9228813,26.4226619 88.1498842,26.8130719 89.5163399,26.8130719 C91.719401,26.8130719 93.532019,26.0740815 94.9542484,24.5960784 L98.4679739,28.4026144 Z M93.9503268,18.1542484 C93.8108925,16.8156796 93.3089368,15.7838816 92.4444444,15.0588235 C91.5799521,14.3337654 90.5272393,13.9712418 89.2862745,13.9712418 C88.0453097,13.9712418 86.9089376,14.3477087 85.8771242,15.1006536 C84.8453107,15.8535985 84.2457525,16.8714533 84.0784314,18.1542484 L93.9503268,18.1542484 Z M111.100654,19.1163399 L111.100654,31.6653595 L104.826144,31.6653595 L104.826144,9.16078431 L111.100654,9.16078431 L111.100654,11.6705882 C112.996959,9.74639561 115.130271,8.78431373 117.500654,8.78431373 C119.871036,8.78431373 121.857944,9.62090667 123.461438,11.2941176 C125.064932,12.9673286 125.866667,15.1982431 125.866667,17.9869281 L125.866667,31.6653595 L119.592157,31.6653595 L119.592157,18.9490196 C119.592157,15.4910502 118.323324,13.7620915 115.785621,13.7620915 C114.530713,13.7620915 113.43617,14.215246 112.501961,15.1215686 C111.567751,16.0278912 111.100654,17.3594683 111.100654,19.1163399 Z M137.830065,31.6653595 L131.555556,31.6653595 L131.555556,9.16078431 L137.830065,9.16078431 L137.830065,31.6653595 Z M132.057516,6.31633987 C131.360345,5.59128178 131.011765,4.71285919 131.011765,3.68104575 C131.011765,2.64923231 131.367317,1.77778133 132.078431,1.06666667 C132.789546,0.355552 133.660997,5.94440982e-15 134.69281,0 C135.724624,5.94440982e-15 136.596075,0.355552 137.30719,1.06666667 C138.018304,1.77778133 138.373856,2.64923231 138.373856,3.68104575 C138.373856,4.71285919 138.018304,5.58431017 137.30719,6.29542484 C136.596075,7.0065395 135.724624,7.3620915 134.69281,7.3620915 C133.660997,7.3620915 132.782574,7.01351111 132.057516,6.31633987 Z M143.351634,14.3477124 L143.351634,9.16078431 L161.505882,9.16078431 L161.505882,14.054902 L150.588235,26.4366013 L162.133333,26.4366013 L162.133333,31.6653595 L142.556863,31.6653595 L142.556863,26.4784314 L153.181699,14.3477124 L143.351634,14.3477124 Z M186.394771,28.4026144 C183.857068,30.8008835 180.880191,32 177.464052,32 C174.047913,32 171.224412,30.9472872 168.993464,28.8418301 C166.762516,26.7363729 165.647059,23.9128717 165.647059,20.3712418 C165.647059,16.8296119 166.783431,14.0130824 169.056209,11.9215686 C171.328987,9.8300549 174.013056,8.78431373 177.108497,8.78431373 C180.203937,8.78431373 182.832233,9.71850918 184.993464,11.5869281 C187.154695,13.455347 188.235294,16.0208987 188.235294,19.2836601 L188.235294,22.6300654 L171.837908,22.6300654 C172.033116,23.8570867 172.674504,24.8609983 173.762092,25.6418301 C174.849679,26.4226619 176.076682,26.8130719 177.443137,26.8130719 C179.646198,26.8130719 181.458816,26.0740815 182.881046,24.5960784 L186.394771,28.4026144 Z M181.877124,18.1542484 C181.73769,16.8156796 181.235734,15.7838816 180.371242,15.0588235 C179.506749,14.3337654 178.454037,13.9712418 177.213072,13.9712418 C175.972107,13.9712418 174.835735,14.3477087 173.803922,15.1006536 C172.772108,15.8535985 172.17255,16.8714533 172.005229,18.1542484 L181.877124,18.1542484 Z"></path>  
</svg>